<svg xmlns="http://www.w3.org/2000/svg" width="84" height="84" viewBox="0 0 84 84">
  <g id="Grupo_1179854" data-name="Grupo 1179854" transform="translate(-706 -4804.601)">
    <g id="Grupo_1179842" data-name="Grupo 1179842">
      <rect id="Rectángulo_456176" data-name="Rectángulo 456176" width="84" height="84" rx="5" transform="translate(706 4804.601)" fill="#ffb900"/>
      <g id="Grupo_1179711" data-name="Grupo 1179711" transform="translate(717.833 4816.434)">
        <g id="Grupo_1179680" data-name="Grupo 1179680" transform="translate(39.093 4.634)">
          <path id="Trazado_999591" data-name="Trazado 999591" d="M343.182,47.351a.884.884,0,0,1-.884-.884V41.1h-9.662a.884.884,0,0,1,0-1.768h10.546a.884.884,0,0,1,.884.884v6.254A.884.884,0,0,1,343.182,47.351Z" transform="translate(-331.752 -39.329)" fill="#fe93bb"/>
        </g>
        <path id="Trazado_999592" data-name="Trazado 999592" d="M406.848,215.584a.884.884,0,0,0-1.25,0l-.944.944v-8.364a.884.884,0,1,0-1.768,0v8.364l-.944-.944a.884.884,0,0,0-1.25,1.25l2.453,2.452a.884.884,0,0,0,1.25,0l2.452-2.452A.884.884,0,0,0,406.848,215.584Z" transform="translate(-353.248 -182.855)" fill="#fe93bb"/>
        <g id="Grupo_1179681" data-name="Grupo 1179681" transform="translate(8.926 4.634)">
          <path id="Trazado_999593" data-name="Trazado 999593" d="M76.636,47.351a.884.884,0,0,1-.884-.884V40.213a.884.884,0,0,1,.884-.884H87.182a.884.884,0,1,1,0,1.768H77.52v5.37A.884.884,0,0,1,76.636,47.351Z" transform="translate(-75.752 -39.329)" fill="#fe93bb"/>
        </g>
        <path id="Trazado_999594" data-name="Trazado 999594" d="M61.353,215.584a.884.884,0,0,0-1.25,0l-.944.944v-8.364a.884.884,0,1,0-1.768,0v8.364l-.944-.944a.884.884,0,0,0-1.25,1.25l2.452,2.452a.884.884,0,0,0,1.25,0l2.453-2.452a.884.884,0,0,0,0-1.25Z" transform="translate(-48.465 -182.855)" fill="#fe93bb"/>
        <g id="Grupo_1179684" data-name="Grupo 1179684" transform="translate(20.356 0)">
          <path id="Trazado_999595" data-name="Trazado 999595" d="M187.463,93.659h-9.81a4.905,4.905,0,0,0-4.905,4.905v3.727a1.178,1.178,0,0,0,1.178,1.178h1.862l.884-.775.884.775h10l.884-.775.884.775h1.862a1.178,1.178,0,0,0,1.178-1.178V98.564A4.905,4.905,0,0,0,187.463,93.659Z" transform="translate(-172.748 -82.622)" fill="#62dbfb"/>
          <path id="Trazado_999596" data-name="Trazado 999596" d="M268.249,93.659h-3.924a4.905,4.905,0,0,1,4.905,4.905v4.13l.884.775h1.862a1.178,1.178,0,0,0,1.178-1.178V98.564A4.905,4.905,0,0,0,268.249,93.659Z" transform="translate(-253.534 -82.622)" fill="#01d0fb"/>
          <g id="Grupo_1179682" data-name="Grupo 1179682" transform="translate(4.292)">
            <circle id="Elipse_13643" data-name="Elipse 13643" cx="5.518" cy="5.518" r="5.518" fill="#fed2a4"/>
          </g>
          <g id="Grupo_1179683" data-name="Grupo 1179683" transform="translate(4.88 0.588)">
            <path id="Trazado_999597" data-name="Trazado 999597" d="M221.568,4.989A5.518,5.518,0,0,1,214.16,12.4a5.518,5.518,0,1,0,7.408-7.408Z" transform="translate(-214.16 -4.989)" fill="#ffbd86"/>
          </g>
        </g>
        <g id="Grupo_1179687" data-name="Grupo 1179687" transform="translate(40.712 39.486)">
          <path id="Trazado_999598" data-name="Trazado 999598" d="M360.211,428.748H350.4a4.905,4.905,0,0,0-4.905,4.905v3.727a1.178,1.178,0,0,0,1.178,1.178h1.862l.884-.8.884.8h10l.884-.8.884.8h1.862a1.178,1.178,0,0,0,1.178-1.178v-3.727A4.905,4.905,0,0,0,360.211,428.748Z" transform="translate(-345.496 -417.712)" fill="#ffd15b"/>
          <path id="Trazado_999599" data-name="Trazado 999599" d="M441,428.748h-3.924a4.905,4.905,0,0,1,4.905,4.905v4.1l.884.8h1.862a1.178,1.178,0,0,0,1.178-1.178v-3.727A4.905,4.905,0,0,0,441,428.748Z" transform="translate(-426.282 -417.712)" fill="#ffc344"/>
          <g id="Grupo_1179685" data-name="Grupo 1179685" transform="translate(4.292)">
            <circle id="Elipse_13644" data-name="Elipse 13644" cx="5.518" cy="5.518" r="5.518" fill="#fed2a4"/>
          </g>
          <g id="Grupo_1179686" data-name="Grupo 1179686" transform="translate(4.88 0.588)">
            <path id="Trazado_999600" data-name="Trazado 999600" d="M394.316,340.079a5.518,5.518,0,0,1-7.408,7.408,5.518,5.518,0,1,0,7.408-7.408Z" transform="translate(-386.908 -340.079)" fill="#ffbd86"/>
          </g>
        </g>
        <g id="Grupo_1179690" data-name="Grupo 1179690" transform="translate(0 39.486)">
          <path id="Trazado_999601" data-name="Trazado 999601" d="M14.715,428.748H4.905A4.905,4.905,0,0,0,0,433.653v3.727a1.178,1.178,0,0,0,1.178,1.178H3.04l.939-.646.829.646h10l.939-.646.829.646h1.862a1.178,1.178,0,0,0,1.178-1.178v-3.727a4.905,4.905,0,0,0-4.905-4.905Z" transform="translate(0 -417.712)" fill="#5f99d7"/>
          <path id="Trazado_999602" data-name="Trazado 999602" d="M95.5,428.748H91.577a4.905,4.905,0,0,1,4.905,4.905v4.3l.055-.038.829.646h1.862a1.178,1.178,0,0,0,1.178-1.178v-3.727A4.905,4.905,0,0,0,95.5,428.748Z" transform="translate(-80.786 -417.712)" fill="#3c87d0"/>
          <g id="Grupo_1179688" data-name="Grupo 1179688" transform="translate(4.292)">
            <circle id="Elipse_13645" data-name="Elipse 13645" cx="5.518" cy="5.518" r="5.518" fill="#fed2a4"/>
          </g>
          <g id="Grupo_1179689" data-name="Grupo 1179689" transform="translate(4.88 0.588)">
            <path id="Trazado_999603" data-name="Trazado 999603" d="M48.82,340.079a5.518,5.518,0,0,1-7.408,7.408,5.518,5.518,0,1,0,7.408-7.408Z" transform="translate(-41.412 -340.079)" fill="#ffbd86"/>
          </g>
        </g>
        <g id="Grupo_1179693" data-name="Grupo 1179693" transform="translate(45.004 11.772)">
          <g id="Grupo_1179691" data-name="Grupo 1179691" transform="translate(0 0)">
            <path id="Trazado_999604" data-name="Trazado 999604" d="M392.219,114.618h-9.565a.736.736,0,0,1-.736-.736V100.639a.736.736,0,0,1,.736-.736h9.565a.736.736,0,0,1,.736.736v13.244A.736.736,0,0,1,392.219,114.618Z" transform="translate(-381.918 -99.903)" fill="#dff6fd"/>
          </g>
          <g id="Grupo_1179692" data-name="Grupo 1179692" transform="translate(6.622)">
            <path id="Trazado_999605" data-name="Trazado 999605" d="M441.792,99.9h-3.679a.736.736,0,0,1,.736.736v13.244a.736.736,0,0,1-.736.736h3.679a.736.736,0,0,0,.736-.736V100.638A.736.736,0,0,0,441.792,99.9Z" transform="translate(-438.113 -99.902)" fill="#c8effe"/>
          </g>
        </g>
        <g id="Grupo_1179696" data-name="Grupo 1179696" transform="translate(4.292 11.772)">
          <g id="Grupo_1179694" data-name="Grupo 1179694" transform="translate(0 0)">
            <path id="Trazado_999606" data-name="Trazado 999606" d="M46.724,114.618H37.159a.736.736,0,0,1-.736-.736V100.639a.736.736,0,0,1,.736-.736h9.565a.736.736,0,0,1,.736.736v13.244A.736.736,0,0,1,46.724,114.618Z" transform="translate(-36.423 -99.903)" fill="#dff6fd"/>
          </g>
          <g id="Grupo_1179695" data-name="Grupo 1179695" transform="translate(6.622)">
            <path id="Trazado_999607" data-name="Trazado 999607" d="M96.3,99.9H92.617a.736.736,0,0,1,.736.736v13.244a.736.736,0,0,1-.736.736H96.3a.736.736,0,0,0,.736-.736V100.638A.736.736,0,0,0,96.3,99.9Z" transform="translate(-92.617 -99.902)" fill="#c8effe"/>
          </g>
        </g>
        <g id="Grupo_1179701" data-name="Grupo 1179701" transform="translate(19.245 25.752)">
          <g id="Grupo_1179697" data-name="Grupo 1179697">
            <circle id="Elipse_13646" data-name="Elipse 13646" cx="10.922" cy="10.922" r="10.922" fill="#dff6fd"/>
          </g>
          <g id="Grupo_1179698" data-name="Grupo 1179698" transform="translate(1.886 1.886)">
            <path id="Trazado_999608" data-name="Trazado 999608" d="M194.488,234.539a10.923,10.923,0,0,1-15.172,15.172,10.922,10.922,0,1,0,15.172-15.172Z" transform="translate(-179.316 -234.539)" fill="#c8effe"/>
          </g>
          <g id="Grupo_1179700" data-name="Grupo 1179700" transform="translate(4.681 6.677)">
            <g id="Grupo_1179699" data-name="Grupo 1179699">
              <path id="Trazado_999609" data-name="Trazado 999609" d="M212.629,275.74l-4.563,4.563-1.887-1.887a1.839,1.839,0,1,0-2.6,2.6l3.188,3.188a1.839,1.839,0,0,0,2.6,0l5.864-5.864a1.839,1.839,0,1,0-2.6-2.6Z" transform="translate(-203.039 -275.201)" fill="#6cf5c2"/>
            </g>
          </g>
        </g>
        <g id="Grupo_1179702" data-name="Grupo 1179702" transform="translate(23.397 16.284)">
          <path id="Trazado_999610" data-name="Trazado 999610" d="M299.335,138.191a.884.884,0,0,0-.884.884v3.679h1.768v-3.679A.884.884,0,0,0,299.335,138.191Z" transform="translate(-286.679 -138.191)" fill="#01c0fa"/>
          <path id="Trazado_999611" data-name="Trazado 999611" d="M199.433,138.191a.884.884,0,0,0-.884.884v3.679h1.768v-3.679A.884.884,0,0,0,199.433,138.191Z" transform="translate(-198.549 -138.191)" fill="#01c0fa"/>
        </g>
        <g id="Grupo_1179703" data-name="Grupo 1179703" transform="translate(43.753 55.77)">
          <path id="Trazado_999612" data-name="Trazado 999612" d="M472.083,473.28a.884.884,0,0,0-.884.884v3.679h1.768v-3.679A.884.884,0,0,0,472.083,473.28Z" transform="translate(-459.427 -473.28)" fill="#feb237"/>
          <path id="Trazado_999613" data-name="Trazado 999613" d="M372.181,473.28a.884.884,0,0,0-.884.884v3.679h1.768v-3.679A.884.884,0,0,0,372.181,473.28Z" transform="translate(-371.297 -473.28)" fill="#feb237"/>
        </g>
        <g id="Grupo_1179704" data-name="Grupo 1179704" transform="translate(3.04 55.77)">
          <path id="Trazado_999614" data-name="Trazado 999614" d="M126.587,473.28a.884.884,0,0,0-.884.884v3.679h1.768v-3.679A.884.884,0,0,0,126.587,473.28Z" transform="translate(-113.931 -473.28)" fill="#0078c8"/>
          <path id="Trazado_999615" data-name="Trazado 999615" d="M26.685,473.28a.884.884,0,0,0-.884.884v3.679h1.768v-3.679A.884.884,0,0,0,26.685,473.28Z" transform="translate(-25.801 -473.28)" fill="#0078c8"/>
        </g>
        <g id="Grupo_1179705" data-name="Grupo 1179705" transform="translate(47.799 14.567)">
          <path id="Trazado_999616" data-name="Trazado 999616" d="M410.2,125.39h-3.679a.884.884,0,1,1,0-1.768H410.2a.884.884,0,1,1,0,1.768Z" transform="translate(-405.638 -123.622)" fill="#5f99d7"/>
        </g>
        <g id="Grupo_1179706" data-name="Grupo 1179706" transform="translate(47.799 18.246)">
          <path id="Trazado_999617" data-name="Trazado 999617" d="M410.2,156.61h-3.679a.884.884,0,1,1,0-1.768H410.2a.884.884,0,1,1,0,1.768Z" transform="translate(-405.638 -154.842)" fill="#5f99d7"/>
        </g>
        <g id="Grupo_1179707" data-name="Grupo 1179707" transform="translate(47.8 21.925)">
          <path id="Trazado_999618" data-name="Trazado 999618" d="M408.362,187.829h-1.839a.884.884,0,1,1,0-1.768h1.839a.884.884,0,1,1,0,1.768Z" transform="translate(-405.639 -186.061)" fill="#5f99d7"/>
        </g>
        <g id="Grupo_1179708" data-name="Grupo 1179708" transform="translate(7.087 14.567)">
          <path id="Trazado_999619" data-name="Trazado 999619" d="M64.705,125.39H61.027a.884.884,0,1,1,0-1.768h3.679a.884.884,0,1,1,0,1.768Z" transform="translate(-60.143 -123.622)" fill="#5f99d7"/>
        </g>
        <g id="Grupo_1179709" data-name="Grupo 1179709" transform="translate(7.087 18.246)">
          <path id="Trazado_999620" data-name="Trazado 999620" d="M64.705,156.61H61.027a.884.884,0,1,1,0-1.768h3.679a.884.884,0,1,1,0,1.768Z" transform="translate(-60.143 -154.842)" fill="#5f99d7"/>
        </g>
        <g id="Grupo_1179710" data-name="Grupo 1179710" transform="translate(7.087 21.925)">
          <path id="Trazado_999621" data-name="Trazado 999621" d="M62.866,187.829H61.027a.884.884,0,1,1,0-1.768h1.839a.884.884,0,1,1,0,1.768Z" transform="translate(-60.143 -186.061)" fill="#5f99d7"/>
        </g>
      </g>
    </g>
  </g>
</svg>
