<svg xmlns="http://www.w3.org/2000/svg" width="84" height="84" viewBox="0 0 84 84">
  <g id="Grupo_1179840" data-name="Grupo 1179840" transform="translate(-186.919 -705.001)">
    <rect id="Rectángulo_455765" data-name="Rectángulo 455765" width="84" height="84" rx="5" transform="translate(186.919 705.001)" fill="#371b57"/>
    <g id="Grupo_1179679" data-name="Grupo 1179679" transform="translate(197.031 713.516)">
      <path id="Trazado_999577" data-name="Trazado 999577" d="M184.036,397.848l-12.018,1.9L160,397.848a5,5,0,0,0,4.877-3.91l1.805-8.109h10.671l1.805,8.109A5,5,0,0,0,184.036,397.848Z" transform="translate(-139.97 -337.528)" fill="#d6d6ea"/>
      <path id="Trazado_999578" data-name="Trazado 999578" d="M268.018,397.848,256,399.747V385.83h5.336l1.805,8.109A5,5,0,0,0,268.018,397.848Z" transform="translate(-223.951 -337.528)" fill="#a9aaca"/>
      <path id="Trazado_999579" data-name="Trazado 999579" d="M135.5,482h30.171v3.756H135.5Z" transform="translate(-118.537 -421.659)" fill="#f1f1f1"/>
      <path id="Trazado_999580" data-name="Trazado 999580" d="M256,482h15.085v3.756H256Z" transform="translate(-223.951 -421.659)" fill="#d6d6ea"/>
      <path id="Trazado_999581" data-name="Trazado 999581" d="M64.1,333.971v8.012H0v-8.012l32.049-2.311Z" transform="translate(0 -290.14)" fill="#f1f1f1"/>
      <path id="Trazado_999582" data-name="Trazado 999582" d="M288.049,333.971v8.012H256V331.66Z" transform="translate(-223.951 -290.14)" fill="#d6d6ea"/>
      <path id="Trazado_999583" data-name="Trazado 999583" d="M0,62.12V98.175H64.1V62.12Z" transform="translate(0 -54.343)" fill="#4e588b"/>
      <path id="Trazado_999584" data-name="Trazado 999584" d="M256,62.12h32.049V98.175H256Z" transform="translate(-223.951 -54.343)" fill="#293e65"/>
      <path id="Trazado_999585" data-name="Trazado 999585" d="M30,92.12H86.586v28.543H30Z" transform="translate(-26.244 -80.588)" fill="#f1f1f1"/>
      <path id="Trazado_999586" data-name="Trazado 999586" d="M256,92.12h28.293v28.543H256Z" transform="translate(-223.951 -80.588)" fill="#d6d6ea"/>
      <path id="Trazado_999587" data-name="Trazado 999587" d="M172.462,4.651V22.719c0,7.705-13.951,14.483-13.951,14.483S144.56,30.425,144.56,22.719V4.651c4.651,0,7.479-1.282,9.3-4.651h9.3c1.705,3.4,4.65,4.651,9.3,4.651Z" transform="translate(-126.463 0)" fill="#bde953"/>
      <path id="Trazado_999588" data-name="Trazado 999588" d="M269.951,4.651V22.719C269.951,30.425,256,37.2,256,37.2V0h4.651C262.356,3.4,265.3,4.651,269.951,4.651Z" transform="translate(-223.951)" fill="#00cd72"/>
      <path id="Trazado_999589" data-name="Trazado 999589" d="M207.147,97.425l-9.61,9.61-6.708-6.706,2.657-2.657,4.051,4.051,6.953-6.953Z" transform="translate(-166.94 -82.906)" fill="#f1f1f1"/>
      <path id="Trazado_999590" data-name="Trazado 999590" d="M264.159,97.425,256,105.584v-5.312l5.5-5.5Z" transform="translate(-223.951 -82.906)" fill="#d6d6ea"/>
    </g>
  </g>
</svg>
