<svg xmlns="http://www.w3.org/2000/svg" width="84" height="84" viewBox="0 0 84 84">
  <g id="Grupo_1179839" data-name="Grupo 1179839" transform="translate(-740.919 -1658.92)">
    <rect id="Rectángulo_402006" data-name="Rectángulo 402006" width="84" height="84" rx="5" transform="translate(740.919 1658.92)" fill="#371b57"/>
    <g id="Grupo_1179678" data-name="Grupo 1179678" transform="translate(755.227 1652.884)">
      <g id="Grupo_1179661" data-name="Grupo 1179661" transform="translate(6.318 23.631)">
        <g id="Grupo_1179660" data-name="Grupo 1179660" transform="translate(0 0)">
          <g id="Grupo_1179651" data-name="Grupo 1179651" transform="translate(5.484)">
            <g id="Grupo_1179650" data-name="Grupo 1179650">
              <path id="Trazado_999556" data-name="Trazado 999556" d="M146.338,27.6a.217.217,0,0,1,.216.216v3.648h3.171V23.956a.325.325,0,0,0-.325-.325H112.7a.325.325,0,0,0-.325.325V27.6Z" transform="translate(-112.373 -23.631)" fill="#dff6fd"/>
            </g>
          </g>
          <g id="Grupo_1179653" data-name="Grupo 1179653" transform="translate(5.484 0)">
            <g id="Grupo_1179652" data-name="Grupo 1179652">
              <path id="Trazado_999557" data-name="Trazado 999557" d="M116.312,23.631H112.7a.325.325,0,0,0-.325.325V27.6h3.616V23.956A.325.325,0,0,1,116.312,23.631Z" transform="translate(-112.372 -23.631)" fill="#c8effe"/>
            </g>
          </g>
          <g id="Grupo_1179655" data-name="Grupo 1179655" transform="translate(2.421 3.865)">
            <g id="Grupo_1179654" data-name="Grupo 1179654">
              <path id="Trazado_999558" data-name="Trazado 999558" d="M88.574,68.008V64.62a.217.217,0,0,1,.216-.216h31.768V60.755a.325.325,0,0,0-.325-.325H83.53a.325.325,0,0,0-.325.325v7.253h5.369Z" transform="translate(-83.205 -60.43)" fill="#ffdcce"/>
            </g>
          </g>
          <g id="Grupo_1179656" data-name="Grupo 1179656" transform="translate(2.421 3.865)">
            <path id="Trazado_999559" data-name="Trazado 999559" d="M87.179,60.431H83.53a.325.325,0,0,0-.325.325v7.253h3.65V60.756A.325.325,0,0,1,87.179,60.431Z" transform="translate(-83.205 -60.431)" fill="#ffd1be"/>
          </g>
          <g id="Grupo_1179657" data-name="Grupo 1179657" transform="translate(7.682 7.73)">
            <path id="Trazado_999560" data-name="Trazado 999560" d="M143.682,100.943a.969.969,0,0,1,.868.532l3.1,6.084h23v-10a.325.325,0,0,0-.325-.325h-36.7a.325.325,0,0,0-.325.325v3.389Z" transform="translate(-133.294 -97.23)" fill="#fdf6ec"/>
          </g>
          <g id="Grupo_1179659" data-name="Grupo 1179659" transform="translate(7.682 7.73)">
            <g id="Grupo_1179658" data-name="Grupo 1179658">
              <path id="Trazado_999561" data-name="Trazado 999561" d="M137.742,97.23h-4.123a.325.325,0,0,0-.325.325v3.389h4.123V97.555A.325.325,0,0,1,137.742,97.23Z" transform="translate(-133.294 -97.23)" fill="#fef1da"/>
            </g>
          </g>
          <path id="Trazado_999562" data-name="Trazado 999562" d="M81.768,138.276l.488-.105-3.069-6.025a1.082,1.082,0,0,0-.964-.591H61.236a1.082,1.082,0,0,0-1.082,1.082v5.534l.416.105Z" transform="translate(-60.154 -120.22)" fill="#fac600"/>
        </g>
      </g>
      <g id="Grupo_1179677" data-name="Grupo 1179677" transform="translate(0 34.966)">
        <g id="Grupo_1179665" data-name="Grupo 1179665" transform="translate(6.318 0)">
          <g id="Grupo_1179664" data-name="Grupo 1179664">
            <g id="Grupo_1179662" data-name="Grupo 1179662" transform="translate(0)">
              <path id="Trazado_999563" data-name="Trazado 999563" d="M66.874,131.555H61.236a1.082,1.082,0,0,0-1.082,1.082v5.534h5.638v-5.534A1.082,1.082,0,0,1,66.874,131.555Z" transform="translate(-60.154 -131.555)" fill="#e8b800"/>
            </g>
            <path id="Trazado_999564" data-name="Trazado 999564" d="M106.527,194.551H60.154v15.371H73.607a.978.978,0,0,1,.977.977v12.854h31.943a1.082,1.082,0,0,0,1.082-1.082V195.633A1.082,1.082,0,0,0,106.527,194.551Z" transform="translate(-60.154 -187.935)" fill="#fed402"/>
            <g id="Grupo_1179663" data-name="Grupo 1179663" transform="translate(0 6.616)">
              <path id="Trazado_999565" data-name="Trazado 999565" d="M64.263,199.3a7.256,7.256,0,0,1,1.529.163v-4.909H60.154v6.027A7.2,7.2,0,0,1,64.263,199.3Z" transform="translate(-60.154 -194.551)" fill="#fac600"/>
              <path id="Trazado_999566" data-name="Trazado 999566" d="M65.3,270.641a3.991,3.991,0,0,0-3.987,3.987v3.393H66.83v-7.074A3.963,3.963,0,0,0,65.3,270.641Z" transform="translate(-61.192 -262.65)" fill="#fac600"/>
            </g>
          </g>
        </g>
        <g id="Grupo_1179666" data-name="Grupo 1179666" transform="translate(33.187 0.119)">
          <path id="Trazado_999567" data-name="Trazado 999567" d="M328.869,134.264H316.779a.788.788,0,0,1,0-1.575h12.091a.788.788,0,0,1,0,1.575Z" transform="translate(-315.991 -132.689)" fill="#fae2c0"/>
        </g>
        <g id="Grupo_1179667" data-name="Grupo 1179667" transform="translate(34.027 26.206)">
          <path id="Trazado_999568" data-name="Trazado 999568" d="M338.111,385.61H324.533a.541.541,0,0,1-.541-.541v-3.452a.541.541,0,0,1,.541-.541h13.578a.541.541,0,0,1,.541.541v3.452A.541.541,0,0,1,338.111,385.61Z" transform="translate(-323.992 -381.076)" fill="#fff"/>
        </g>
        <g id="Grupo_1179668" data-name="Grupo 1179668" transform="translate(34.027 26.206)">
          <path id="Trazado_999569" data-name="Trazado 999569" d="M329.889,385.069v-3.452a.541.541,0,0,1,.541-.541h-5.9a.541.541,0,0,0-.541.541v3.452a.541.541,0,0,0,.541.541h5.9A.541.541,0,0,1,329.889,385.069Z" transform="translate(-323.992 -381.076)" fill="#eef5f6"/>
        </g>
        <g id="Grupo_1179676" data-name="Grupo 1179676" transform="translate(0 11.362)">
          <g id="Grupo_1179669" data-name="Grupo 1179669" transform="translate(3.194)">
            <path id="Trazado_999570" data-name="Trazado 999570" d="M33.655,250.363v-3.4a3.987,3.987,0,0,1,7.974,0v3.4h3.246v-3.4a7.233,7.233,0,0,0-14.465,0v3.4Z" transform="translate(-30.409 -239.735)" fill="#7ca1b1"/>
          </g>
          <g id="Grupo_1179671" data-name="Grupo 1179671" transform="translate(3.194 0)">
            <g id="Grupo_1179670" data-name="Grupo 1179670">
              <path id="Trazado_999571" data-name="Trazado 999571" d="M38.56,239.8a7.222,7.222,0,0,0-8.151,7.173v3.4h1.837v-3.4A7.232,7.232,0,0,1,38.56,239.8Z" transform="translate(-30.409 -239.736)" fill="#678d98"/>
            </g>
          </g>
          <g id="Grupo_1179672" data-name="Grupo 1179672" transform="translate(0 10.52)">
            <path id="Trazado_999572" data-name="Trazado 999572" d="M20.42,444.439h-20L0,444.544v3.427a1.082,1.082,0,0,0,1.082,1.082H19.771a1.082,1.082,0,0,0,1.082-1.082v-3.427Z" transform="translate(0 -433.46)" fill="#fd5426"/>
            <path id="Trazado_999573" data-name="Trazado 999573" d="M19.771,339.9H1.082A1.082,1.082,0,0,0,0,340.986v3.427l.426.105h19.99l.437-.105v-3.427a1.082,1.082,0,0,0-1.082-1.082Z" transform="translate(0 -339.904)" fill="#fd5426"/>
          </g>
          <g id="Grupo_1179673" data-name="Grupo 1179673" transform="translate(0 10.52)">
            <path id="Trazado_999574" data-name="Trazado 999574" d="M4.6,354.415V340.986A1.082,1.082,0,0,1,5.68,339.9h-4.6A1.082,1.082,0,0,0,0,340.986v13.429A1.082,1.082,0,0,0,1.082,355.5h4.6A1.082,1.082,0,0,1,4.6,354.415Z" transform="translate(0 -339.904)" fill="#ef4424"/>
          </g>
          <g id="Grupo_1179674" data-name="Grupo 1179674" transform="translate(0 15.029)">
            <path id="Trazado_999575" data-name="Trazado 999575" d="M0,382.834H20.853v6.575H0Z" transform="translate(0 -382.834)" fill="#fff"/>
          </g>
          <g id="Grupo_1179675" data-name="Grupo 1179675" transform="translate(0 15.029)">
            <path id="Trazado_999576" data-name="Trazado 999576" d="M0,382.834H4.6v6.575H0Z" transform="translate(0 -382.834)" fill="#eef5f6"/>
          </g>
        </g>
      </g>
    </g>
  </g>
</svg>
