<svg xmlns="http://www.w3.org/2000/svg" width="84" height="84" viewBox="0 0 84 84">
  <g id="Grupo_1179855" data-name="Grupo 1179855" transform="translate(-186 -891.597)">
    <g id="Grupo_1178877" data-name="Grupo 1178877" transform="translate(-520.082 -853.377)">
      <rect id="Rectángulo_454628" data-name="Rectángulo 454628" width="84" height="84" rx="5" transform="translate(706.082 1744.974)" fill="#ffb900"/>
      <g id="Grupo_1179754" data-name="Grupo 1179754" transform="translate(716.082 1754.974)">
        <path id="Trazado_999733" data-name="Trazado 999733" d="M31.041,59.813c-24.171-9.9-24.5-33.84-24.452-47.221a2.568,2.568,0,0,1,2.4-2.549,67.628,67.628,0,0,0,21.917-5.8,2.54,2.54,0,0,1,2.18,0,67.628,67.628,0,0,0,21.917,5.8,2.568,2.568,0,0,1,2.4,2.549c.049,13.38-.281,37.322-24.453,47.221a2.552,2.552,0,0,1-1.918,0Z" fill="#cfd8dc"/>
        <path id="Trazado_999734" data-name="Trazado 999734" d="M32,55.878c-20.77-8.867-21.434-29.77-21.416-41.957A72.527,72.527,0,0,0,32,8.149a72.512,72.512,0,0,0,21.416,5.773C53.435,26.106,52.77,47.011,32,55.878Z" fill="#eceff1"/>
        <g id="Grupo_1179753" data-name="Grupo 1179753">
          <path id="Trazado_999735" data-name="Trazado 999735" d="M44.909,32.553a1.093,1.093,0,0,1-.119-.007,1,1,0,0,1-.875-1.111A12,12,0,1,0,20,30a1,1,0,0,1-2,0,14,14,0,0,1,28,0,14.242,14.242,0,0,1-.1,1.671,1,1,0,0,1-.992.882Z" fill="#1976d2"/>
          <path id="Trazado_999736" data-name="Trazado 999736" d="M31.57,43.993a1,1,0,0,1-.785-1.619C35.6,36.269,36,32.786,36,30a4,4,0,0,0-8,0,1,1,0,0,1-2,0,6,6,0,0,1,12,0c0,3.351-.684,7.319-5.644,13.612a1,1,0,0,1-.786.381Z" fill="#1976d2"/>
          <path id="Trazado_999737" data-name="Trazado 999737" d="M26.86,42.888a1,1,0,0,1-.713-1.7A16.5,16.5,0,0,0,31,29.757a1,1,0,1,1,2,0,18.518,18.518,0,0,1-5.427,12.831,1,1,0,0,1-.713.3Z" fill="#1976d2"/>
          <path id="Trazado_999738" data-name="Trazado 999738" d="M39.142,39.447a1,1,0,0,1-.889-1.456A16.683,16.683,0,0,0,40,30a8,8,0,0,0-16,0,10.525,10.525,0,0,1-2.465,7.1,1,1,0,1,1-1.586-1.219A8.512,8.512,0,0,0,22,30a10,10,0,1,1,20,0,18.535,18.535,0,0,1-1.968,8.9,1,1,0,0,1-.891.544Z" fill="#1976d2"/>
          <path id="Trazado_999739" data-name="Trazado 999739" d="M23.333,40.681a1,1,0,0,1-.736-1.676,11.9,11.9,0,0,0,2.845-4.887,1,1,0,0,1,1.92.562,13.985,13.985,0,0,1-3.291,5.677,1,1,0,0,1-.737.324Z" fill="#1976d2"/>
        </g>
      </g>
    </g>
  </g>
</svg>
