<svg xmlns="http://www.w3.org/2000/svg" xmlns:xlink="http://www.w3.org/1999/xlink" width="346" height="315.545" viewBox="0 0 346 315.545">
  <defs>
    <clipPath id="clip-path">
      <rect id="Rectángulo_456279" data-name="Rectángulo 456279" width="324" height="303.261" fill="none"/>
    </clipPath>
    <clipPath id="clip-path-3">
      <rect id="Rectángulo_456249" data-name="Rectángulo 456249" width="153.299" height="20.632" fill="none"/>
    </clipPath>
    <clipPath id="clip-path-4">
      <rect id="Rectángulo_456253" data-name="Rectángulo 456253" width="134.005" height="196.676" fill="#e5edf3"/>
    </clipPath>
  </defs>
  <g id="Grupo_1179846" data-name="Grupo 1179846" transform="translate(-519.711 -1096.425)">
    <path id="Rectángulo_456106" data-name="Rectángulo 456106" d="M120,0H301a45,45,0,0,1,45,45V205a45,45,0,0,1-45,45H45A45,45,0,0,1,0,205V120A120,120,0,0,1,120,0Z" transform="translate(519.711 1096.425)" fill="#062f18" opacity="0.07"/>
    <g id="Grupo_1179220" data-name="Grupo 1179220" transform="translate(530.711 1108.709)">
      <g id="Grupo_1179219" data-name="Grupo 1179219" clip-path="url(#clip-path)">
        <line id="Línea_3223" data-name="Línea 3223" x2="38.378" y2="35.188" transform="translate(74.129 57.001)" fill="none" stroke="#fff" stroke-linecap="round" stroke-linejoin="round" stroke-width="1.338" stroke-dasharray="2.675 3.567"/>
        <line id="Línea_3224" data-name="Línea 3224" y2="46.437" transform="translate(130.409 42.868)" fill="none" stroke="#fff" stroke-linecap="round" stroke-linejoin="round" stroke-width="1.338" stroke-dasharray="2.675 3.567"/>
        <line id="Línea_3225" data-name="Línea 3225" y2="42.399" transform="translate(204.006 44.31)" fill="none" stroke="#fff" stroke-linecap="round" stroke-linejoin="round" stroke-width="1.338" stroke-dasharray="2.675 3.567"/>
        <line id="Línea_3226" data-name="Línea 3226" x1="36.623" y2="30.862" transform="translate(218.344 61.327)" fill="none" stroke="#fff" stroke-linecap="round" stroke-linejoin="round" stroke-width="1.338" stroke-dasharray="2.675 3.567"/>
        <g id="Grupo_1179218" data-name="Grupo 1179218">
          <g id="Grupo_1179217" data-name="Grupo 1179217" clip-path="url(#clip-path)">
            <path id="Trazado_999401" data-name="Trazado 999401" d="M91.987,51.489a25.171,25.171,0,1,1-25.17-25.171,25.17,25.17,0,0,1,25.17,25.171" transform="translate(-6.217 -3.929)" fill="#fff"/>
            <path id="Trazado_999402" data-name="Trazado 999402" d="M80.955,37.6A10.081,10.081,0,0,0,65.189,49.5l-.946.311.042,2.693L52.509,65.856l.238,3.935,4.445.2.517-1.6,1.221-.124.842-.955.156-1.141,1.507-.744.175-.2-.071-.652.777-.149.141-.161.35-1.154,1.33-.854.716-2.04,1.857-.778.812-.919a12.95,12.95,0,0,1,.378-1.251l3.312-1.382.191-1.066A10.08,10.08,0,0,0,80.955,37.6m-1.512,5.343a2.53,2.53,0,1,1-.226-3.57,2.529,2.529,0,0,1,.226,3.57" transform="translate(-7.838 -5.236)" fill="#ffb900"/>
            <path id="Trazado_999403" data-name="Trazado 999403" d="M174.045,25.171A25.171,25.171,0,1,1,148.874,0a25.171,25.171,0,0,1,25.171,25.171" transform="translate(-18.466)" fill="#fff"/>
            <path id="Trazado_999404" data-name="Trazado 999404" d="M171.45,27.861s-9.86,10.024-22.023,10.024S127.4,27.861,127.4,27.861s9.859-10.1,22.023-10.1,22.023,10.1,22.023,10.1" transform="translate(-19.019 -2.651)" fill="#78a9dc"/>
            <path id="Trazado_999405" data-name="Trazado 999405" d="M160.76,28a9.057,9.057,0,1,1-9.057-9.059A9.056,9.056,0,0,1,160.76,28" transform="translate(-21.294 -2.827)" fill="#5185c5"/>
            <path id="Trazado_999406" data-name="Trazado 999406" d="M157.04,28.792a4.546,4.546,0,1,1-4.545-4.546,4.544,4.544,0,0,1,4.545,4.546" transform="translate(-22.085 -3.619)" fill="#040012"/>
            <path id="Trazado_999407" data-name="Trazado 999407" d="M257.953,25.171A25.171,25.171,0,1,1,232.782,0a25.171,25.171,0,0,1,25.171,25.171" transform="translate(-30.992)" fill="#fff"/>
            <path id="Trazado_999408" data-name="Trazado 999408" d="M246.827,22.049h-3.781c0-12.676-5.531-12.676-7.9-12.676-1.952,0-7.893,0-7.893,12.676h-3.783c0-5.578,1.1-9.814,3.273-12.586a11.269,11.269,0,0,1,16.79-.24c2.214,2.738,3.291,6.933,3.291,12.825" transform="translate(-33.36 -0.835)" fill="#10182b"/>
            <rect id="Rectángulo_456248" data-name="Rectángulo 456248" width="26.473" height="20.877" transform="translate(188.555 20.378)" fill="#ffb900"/>
            <path id="Trazado_999409" data-name="Trazado 999409" d="M240.1,34a3.523,3.523,0,1,0-5.707,2.762v5.24h4.368v-5.24A3.518,3.518,0,0,0,240.1,34" transform="translate(-34.79 -4.55)" fill="#10182b"/>
            <path id="Trazado_999410" data-name="Trazado 999410" d="M337.034,51.489a25.171,25.171,0,1,1-25.171-25.171,25.171,25.171,0,0,1,25.171,25.171" transform="translate(-42.797 -3.929)" fill="#fff"/>
            <path id="Trazado_999411" data-name="Trazado 999411" d="M313.033,72.06c-12.182,0-17.382-26.723-17.382-26.723a6.455,6.455,0,0,0,6.018-2.2,11.146,11.146,0,0,0,2.521-6.476H323.22a11.324,11.324,0,0,0,1.627,6.058c1.906,3.217,5.9,2.979,5.9,2.979S325.663,72.06,313.033,72.06" transform="translate(-44.134 -5.472)" fill="#10182b"/>
            <path id="Trazado_999412" data-name="Trazado 999412" d="M313.764,68.767c-9.433,0-13.458-20.694-13.458-20.694a5,5,0,0,0,4.659-1.707,8.626,8.626,0,0,0,1.953-5.015h14.737a8.774,8.774,0,0,0,1.26,4.691,5.262,5.262,0,0,0,4.573,2.308s-3.941,20.417-13.723,20.417" transform="translate(-44.829 -6.173)" fill="#78a9dc"/>
            <g id="Grupo_1179213" data-name="Grupo 1179213" transform="translate(90.931 282.629)" style="mix-blend-mode: multiply;isolation: isolate">
              <g id="Grupo_1179212" data-name="Grupo 1179212">
                <g id="Grupo_1179211" data-name="Grupo 1179211" clip-path="url(#clip-path-3)">
                  <path id="Trazado_999413" data-name="Trazado 999413" d="M260.186,342.539c0,5.7-34.317,10.316-76.65,10.316s-76.649-4.619-76.649-10.316,34.317-10.316,76.649-10.316,76.65,4.619,76.65,10.316" transform="translate(-106.887 -332.223)" fill="#abb1ce"/>
                </g>
              </g>
            </g>
            <rect id="Rectángulo_456250" data-name="Rectángulo 456250" width="6.522" height="28.561" transform="translate(97.14 97.615)" fill="#10182b"/>
            <rect id="Rectángulo_456251" data-name="Rectángulo 456251" width="6.522" height="14.28" transform="translate(97.14 132.474)" fill="#10182b"/>
            <path id="Trazado_999414" data-name="Trazado 999414" d="M252.259,301.029a4.431,4.431,0,0,1-4.437,4.434h-125.2a4.433,4.433,0,0,1-4.439-4.434V88.283a4.435,4.435,0,0,1,4.439-4.431h125.2a4.433,4.433,0,0,1,4.437,4.431Z" transform="translate(-17.642 -12.517)" fill="#10182b"/>
            <path id="Trazado_999504" data-name="Trazado 999504" d="M0,0H134.077V196.677H0Z" transform="translate(100.54 83.805)" fill="#99b8d0"/>
            <path id="Trazado_999415" data-name="Trazado 999415" d="M206.864,91.9a1.455,1.455,0,0,1-1.452,1.456H184.357a1.458,1.458,0,0,1,0-2.915h21.055a1.458,1.458,0,0,1,1.452,1.459" transform="translate(-27.303 -13.501)" fill="#fff"/>
            <path id="Trazado_999416" data-name="Trazado 999416" d="M202.955,336.17a1.617,1.617,0,0,1-1.623,1.613H190.093a1.615,1.615,0,1,1,0-3.23h11.239a1.619,1.619,0,0,1,1.623,1.617" transform="translate(-28.135 -49.941)" fill="#fff"/>
            <path id="Trazado_999417" data-name="Trazado 999417" d="M161.98,220.273c-1.057,2.379-2.282,17.948-1.506,31.5H188c8.2-15.633,13.259-35.662,18.443-46.85,1.888-4.076,2.832-9.662,3.539-18.677a81.655,81.655,0,0,0-.767-17.426c-1.815-12.153-6.6-18.587-20.713-18.587-6.218,0-13.849,4.035-19.39,14.532-6.7,12.689-1.514,15.957-7.224,21.835s-6.043,10.076-1.845,15.786a18.89,18.89,0,0,1,1.934,17.892" transform="translate(-23.468 -22.426)" fill="#10182b"/>
            <path id="Trazado_999418" data-name="Trazado 999418" d="M172.61,261.052h39.077a65.274,65.274,0,0,1,2.58-11.627c6.721-19.38,1.712-28.591,1.712-28.591-4.638-3.111-17.464-8.415-17.464-8.415H183.595s-9.136,5.957-14.145,8.185c0,0-5.553,10.884.741,28.172a51.776,51.776,0,0,1,2.419,12.277" transform="translate(-24.957 -31.709)" fill="#ffb900"/>
            <path id="Trazado_999419" data-name="Trazado 999419" d="M201.395,210.227s-2.435,5.239-7.327,5.239c-5.229,0-7.594-5.239-7.594-5.239V197.738h14.921Z" transform="translate(-27.836 -29.518)" fill="#e07569"/>
            <path id="Trazado_999420" data-name="Trazado 999420" d="M207.819,182.219c-1.285,5.557-9.066,16.069-16.076,16.069-6.025,0-15.716-8.745-16.139-14.512,0,0-1.5-10.3-1.717-13.761-.637-10.246,8.945-18.58,17.856-18.58s18.836,8.34,18.108,18.58a94.308,94.308,0,0,1-2.032,12.2" transform="translate(-25.953 -22.606)" fill="#ef8372"/>
            <path id="Trazado_999421" data-name="Trazado 999421" d="M223.087,262.313h13.19c-.089-1.321-.18-2.623-.271-3.9,0,0-1.572-18.766-2.289-21.939-2.777-12.276-11.572-15.614-11.572-15.614s.075,12.242.327,29.823c.057,3.891.294,7.862.616,11.627" transform="translate(-33.161 -32.97)" fill="#ffb900"/>
            <path id="Trazado_999422" data-name="Trazado 999422" d="M167.011,262.426c.529-5.556.951-10.262.948-11.09-.077-17.584,0-29.717,0-29.717a23.3,23.3,0,0,0-13.02,16.445c-1.067,5.094-2.015,14.94-2.706,24.361Z" transform="translate(-22.725 -33.083)" fill="#ffb900"/>
            <path id="Trazado_999423" data-name="Trazado 999423" d="M195.125,190.8c-.078,0-.163,0-.239-.008a.254.254,0,0,1-.23-.275.242.242,0,0,1,.276-.231c.51.049.9-.1.936-.21.023-.048-.029-.223-.448-.509-1.267-.861-1.414-3.861-1.422-3.985a.258.258,0,0,1,.249-.265.244.244,0,0,1,.256.239c.038.8.321,3,1.2,3.594.56.372.774.743.648,1.093-.143.4-.685.556-1.222.556" transform="translate(-28.959 -27.664)" fill="#10182b"/>
            <path id="Trazado_999424" data-name="Trazado 999424" d="M185.206,183.3a1.27,1.27,0,0,0-.964.427,1.371,1.371,0,0,0-.305.886,1.284,1.284,0,0,0,2.246.894,1.337,1.337,0,0,0,.319-.894,1.263,1.263,0,0,0-1.3-1.314" transform="translate(-27.458 -27.362)" fill="#10182b"/>
            <path id="Trazado_999425" data-name="Trazado 999425" d="M203.88,183.3a1.276,1.276,0,0,1,.966.427,1.381,1.381,0,0,1,.305.886,1.265,1.265,0,0,1-1.272,1.328,1.247,1.247,0,0,1-.974-.434,1.329,1.329,0,0,1-.319-.894,1.26,1.26,0,0,1,1.293-1.314" transform="translate(-30.242 -27.362)" fill="#10182b"/>
            <path id="Trazado_999426" data-name="Trazado 999426" d="M206.868,179.212s-1.424-1.765-4.6-.693" transform="translate(-30.194 -26.597)" fill="none" stroke="#10182b" stroke-linecap="round" stroke-linejoin="round" stroke-width="0.84"/>
            <path id="Trazado_999427" data-name="Trazado 999427" d="M182.275,179.212s1.424-1.765,4.6-.693" transform="translate(-27.21 -26.597)" fill="none" stroke="#10182b" stroke-linecap="round" stroke-linejoin="round" stroke-width="0.84"/>
            <path id="Trazado_999428" data-name="Trazado 999428" d="M188.158,191.156c0,1.131-1.4,2.042-3.126,2.042s-3.117-.911-3.117-2.042,1.394-2.037,3.117-2.037,3.126.913,3.126,2.037" transform="translate(-27.156 -28.231)" fill="#e65c70"/>
            <path id="Trazado_999429" data-name="Trazado 999429" d="M206.528,191.662c0,1.126-1.4,2.037-3.125,2.037s-3.12-.912-3.12-2.037,1.4-2.042,3.12-2.042,3.125.912,3.125,2.042" transform="translate(-29.898 -28.306)" fill="#e65c70"/>
            <path id="Trazado_999430" data-name="Trazado 999430" d="M190.093,196.145a4.548,4.548,0,0,0,9.027,0Z" transform="translate(-28.377 -29.28)" fill="#fff"/>
            <path id="Trazado_999431" data-name="Trazado 999431" d="M209.8,175.115c-.231,1.472-.52,4.354-1.836,5.963,0,0-2.285-11.572-5.436-16.6a17.167,17.167,0,0,1-12.594,6.61c-8.1.265-12.837,3.1-14.974,8.665a22.819,22.819,0,0,1,0-17.158c3.43-7.982,12.347-11.868,18.033-11.868,8.971,0,19.453,7.473,16.807,24.385" transform="translate(-25.865 -22.501)" fill="#10182b"/>
            <path id="Trazado_999432" data-name="Trazado 999432" d="M227.5,197.418v14.313H213.954" transform="translate(-31.939 -29.47)" fill="none" stroke="#fff" stroke-linecap="round" stroke-linejoin="round" stroke-width="1.212"/>
            <path id="Trazado_999433" data-name="Trazado 999433" d="M159.5,158.317V143.861h17.139" transform="translate(-23.81 -21.475)" fill="none" stroke="#fff" stroke-linecap="round" stroke-linejoin="round" stroke-width="1.212"/>
            <path id="Trazado_999434" data-name="Trazado 999434" d="M213.057,143.861h14.312V157.41" transform="translate(-31.805 -21.475)" fill="none" stroke="#fff" stroke-linecap="round" stroke-linejoin="round" stroke-width="1.212"/>
            <path id="Trazado_999435" data-name="Trazado 999435" d="M173.955,211.236H159.5V194.1" transform="translate(-23.81 -28.974)" fill="none" stroke="#fff" stroke-linecap="round" stroke-linejoin="round" stroke-width="1.212"/>
            <path id="Trazado_999436" data-name="Trazado 999436" d="M221.981,194.326v11.905H210.712" transform="translate(-31.455 -29.009)" fill="none" stroke="#fff" stroke-linecap="round" stroke-linejoin="round" stroke-width="1.008"/>
            <path id="Trazado_999437" data-name="Trazado 999437" d="M165.423,161.807V149.785h14.255" transform="translate(-24.694 -22.36)" fill="none" stroke="#fff" stroke-linecap="round" stroke-linejoin="round" stroke-width="1.008"/>
            <path id="Trazado_999438" data-name="Trazado 999438" d="M209.965,149.784h11.9v11.27" transform="translate(-31.343 -22.359)" fill="none" stroke="#fff" stroke-linecap="round" stroke-linejoin="round" stroke-width="1.008"/>
            <path id="Trazado_999439" data-name="Trazado 999439" d="M177.446,205.818H165.423V191.564" transform="translate(-24.694 -28.596)" fill="none" stroke="#fff" stroke-linecap="round" stroke-linejoin="round" stroke-width="1.008"/>
            <path id="Trazado_999440" data-name="Trazado 999440" d="M213.817,172.148a1.309,1.309,0,1,1-1.309-1.31,1.309,1.309,0,0,1,1.309,1.31" transform="translate(-31.527 -25.502)" fill="#fff"/>
            <path id="Trazado_999441" data-name="Trazado 999441" d="M177.791,173.153a1.31,1.31,0,1,1-1.309-1.309,1.309,1.309,0,0,1,1.309,1.309" transform="translate(-26.149 -25.653)" fill="#fff"/>
            <path id="Trazado_999442" data-name="Trazado 999442" d="M195.374,177.663a1.309,1.309,0,1,1-1.311-1.309,1.31,1.31,0,0,1,1.311,1.309" transform="translate(-28.774 -26.326)" fill="#fff"/>
            <path id="Trazado_999443" data-name="Trazado 999443" d="M175.085,186.651a1.309,1.309,0,1,1-1.31-1.308,1.31,1.31,0,0,1,1.31,1.308" transform="translate(-25.745 -27.668)" fill="#fff"/>
            <path id="Trazado_999444" data-name="Trazado 999444" d="M196.388,207.445a1.31,1.31,0,1,1-1.31-1.31,1.311,1.311,0,0,1,1.31,1.31" transform="translate(-28.925 -30.771)" fill="#fff"/>
            <path id="Trazado_999445" data-name="Trazado 999445" d="M195.774,192.014a1.309,1.309,0,1,1-1.309-1.31,1.31,1.31,0,0,1,1.309,1.31" transform="translate(-28.834 -28.468)" fill="#fff"/>
            <path id="Trazado_999446" data-name="Trazado 999446" d="M214.251,187.4a1.308,1.308,0,1,1-1.309-1.309,1.309,1.309,0,0,1,1.309,1.309" transform="translate(-31.592 -27.779)" fill="#fff"/>
            <path id="Trazado_999447" data-name="Trazado 999447" d="M181.5,199.712a1.309,1.309,0,1,1-1.308-1.309,1.309,1.309,0,0,1,1.308,1.309" transform="translate(-26.703 -29.617)" fill="#fff"/>
            <path id="Trazado_999448" data-name="Trazado 999448" d="M208.406,200.619a1.31,1.31,0,1,1-1.309-1.309,1.309,1.309,0,0,1,1.309,1.309" transform="translate(-30.72 -29.753)" fill="#fff"/>
            <path id="Trazado_999449" data-name="Trazado 999449" d="M179.463,195.827l12.665,6.579,10.225-5.807,4.9-11.069-.3-13.152H176.411L174,184.716Z" transform="translate(-25.975 -25.732)" fill="none" stroke="#fff" stroke-miterlimit="10" stroke-width="0.362"/>
            <path id="Trazado_999450" data-name="Trazado 999450" d="M180.421,198.895l11.882-5.969,11.008,6.74" transform="translate(-26.933 -28.8)" fill="none" stroke="#fff" stroke-miterlimit="10" stroke-width="0.362"/>
            <path id="Trazado_999451" data-name="Trazado 999451" d="M194.373,188.445l-.082-11.376,15.692-4.691" transform="translate(-29.003 -25.732)" fill="none" stroke="#fff" stroke-miterlimit="10" stroke-width="0.362"/>
            <path id="Trazado_999452" data-name="Trazado 999452" d="M207.127,185.68l-15.765-8.2-16.7,7.713,17.037,4.846,15.35-3.749" transform="translate(-26.074 -26.494)" fill="none" stroke="#fff" stroke-miterlimit="10" stroke-width="0.362"/>
            <path id="Trazado_999453" data-name="Trazado 999453" d="M180.237,195.489l11.352-18.237-15.4-3.655" transform="translate(-26.301 -25.914)" fill="none" stroke="#fff" stroke-miterlimit="10" stroke-width="0.362"/>
            <line id="Línea_3227" data-name="Línea 3227" x1="10.979" y1="18.919" transform="translate(165.289 151.337)" fill="none" stroke="#fff" stroke-miterlimit="10" stroke-width="0.362"/>
            <line id="Línea_3228" data-name="Línea 3228" x1="0.521" y1="13.127" transform="translate(165.631 163.546)" fill="none" stroke="#fff" stroke-miterlimit="10" stroke-width="0.362"/>
            <g id="Grupo_1179216" data-name="Grupo 1179216" transform="translate(100.494 83.805)" opacity="0.3">
              <g id="Grupo_1179215" data-name="Grupo 1179215">
                <g id="Grupo_1179214" data-name="Grupo 1179214" clip-path="url(#clip-path-4)">
                  <path id="Trazado_999454" data-name="Trazado 999454" d="M257.614,98.51H246.135L154.848,295.186H182.6l75.017-167.23Z" transform="translate(-123.609 -98.51)" fill="#e5edf3"/>
                  <path id="Trazado_999455" data-name="Trazado 999455" d="M233.134,98.51H209.154s-90.87,186.6-91.026,186.606v10.071h22.425Z" transform="translate(-118.128 -98.51)" fill="#e5edf3"/>
                </g>
              </g>
            </g>
            <line id="Línea_3229" data-name="Línea 3229" x1="1.138" transform="translate(252.333 119.343)" fill="none" stroke="#fff" stroke-linecap="round" stroke-linejoin="round" stroke-width="1.338"/>
            <line id="Línea_3230" data-name="Línea 3230" x1="31.356" transform="translate(217.842 119.343)" fill="none" stroke="#fff" stroke-linecap="round" stroke-linejoin="round" stroke-width="1.338" stroke-dasharray="2.764 3.686"/>
            <path id="Trazado_999456" data-name="Trazado 999456" d="M253.9,140.285h-1.138l-.713.886" transform="translate(-37.625 -20.941)" fill="none" stroke="#fff" stroke-linecap="round" stroke-linejoin="round" stroke-width="1.338"/>
            <line id="Línea_3231" data-name="Línea 3231" x1="2.709" y2="3.367" transform="translate(209.547 122.924)" fill="none" stroke="#fff" stroke-linecap="round" stroke-linejoin="round" stroke-width="1.338" stroke-dasharray="3.048 4.064"/>
            <line id="Línea_3232" data-name="Línea 3232" x1="0.714" y2="0.886" transform="translate(207.751 127.639)" fill="none" stroke="#fff" stroke-linecap="round" stroke-linejoin="round" stroke-width="1.338"/>
            <path id="Trazado_999457" data-name="Trazado 999457" d="M300.415,139.861A2.418,2.418,0,1,1,298,137.443a2.417,2.417,0,0,1,2.418,2.418" transform="translate(-44.123 -20.517)" fill="#fff"/>
            <path id="Trazado_999458" data-name="Trazado 999458" d="M246.2,150.655a2.419,2.419,0,1,1-2.419-2.419,2.419,2.419,0,0,1,2.419,2.419" transform="translate(-36.03 -22.128)" fill="#fff"/>
            <rect id="Rectángulo_456254" data-name="Rectángulo 456254" width="62.274" height="40.583" transform="translate(261.726 97.855)" fill="#fff"/>
            <path id="Trazado_999459" data-name="Trazado 999459" d="M322.412,127.344c0,.157-5.633-5.122-5.633-5.122a7.6,7.6,0,0,1,5.633-2.49Z" transform="translate(-47.288 -17.873)" fill="#78a9dc"/>
            <path id="Trazado_999460" data-name="Trazado 999460" d="M331.011,127.344H323.4v-7.612a7.612,7.612,0,0,1,7.611,7.612" transform="translate(-48.277 -17.873)" fill="#f58605"/>
            <path id="Trazado_999461" data-name="Trazado 999461" d="M314.45,128.688h7.613V136.3a7.613,7.613,0,0,1-7.613-7.612" transform="translate(-46.94 -19.21)" fill="#077886"/>
            <path id="Trazado_999462" data-name="Trazado 999462" d="M322.064,127.781h-7.613a7.6,7.6,0,0,1,1.98-5.122Z" transform="translate(-46.941 -18.31)" fill="#10182b"/>
            <path id="Trazado_999463" data-name="Trazado 999463" d="M323.4,128.689c0-.158,5.63,5.122,5.63,5.122a7.6,7.6,0,0,1-5.63,2.491Z" transform="translate(-48.277 -19.21)" fill="#e884b4"/>
            <path id="Trazado_999464" data-name="Trazado 999464" d="M323.4,128.69h7.611a7.582,7.582,0,0,1-1.98,5.122Z" transform="translate(-48.277 -19.211)" fill="#db2d64"/>
            <path id="Trazado_999465" data-name="Trazado 999465" d="M322.413,147.729c0,.158-5.633-5.122-5.633-5.122a7.6,7.6,0,0,1,5.633-2.489Z" transform="translate(-47.288 -20.917)" fill="#78a9dc"/>
            <path id="Trazado_999466" data-name="Trazado 999466" d="M331.012,147.729H323.4v-7.611a7.611,7.611,0,0,1,7.61,7.611" transform="translate(-48.277 -20.917)" fill="#f58605"/>
            <path id="Trazado_999467" data-name="Trazado 999467" d="M314.454,149.074h7.611v7.612a7.611,7.611,0,0,1-7.611-7.612" transform="translate(-46.941 -22.253)" fill="#077886"/>
            <path id="Trazado_999468" data-name="Trazado 999468" d="M322.065,148.166h-7.611a7.592,7.592,0,0,1,1.979-5.122Z" transform="translate(-46.941 -21.353)" fill="#10182b"/>
            <path id="Trazado_999469" data-name="Trazado 999469" d="M323.4,149.075c0-.157,5.628,5.121,5.628,5.121a7.588,7.588,0,0,1-5.628,2.491Z" transform="translate(-48.277 -22.253)" fill="#e884b4"/>
            <path id="Trazado_999470" data-name="Trazado 999470" d="M323.4,149.076h7.61a7.576,7.576,0,0,1-1.981,5.121Z" transform="translate(-48.277 -22.254)" fill="#db2d64"/>
            <rect id="Rectángulo_456255" data-name="Rectángulo 456255" width="30.717" height="1.536" transform="translate(287.498 103.98)" fill="#10182b"/>
            <rect id="Rectángulo_456256" data-name="Rectángulo 456256" width="30.717" height="1.536" transform="translate(287.498 108.707)" fill="#10182b"/>
            <rect id="Rectángulo_456257" data-name="Rectángulo 456257" width="30.717" height="1.537" transform="translate(287.498 113.434)" fill="#10182b"/>
            <rect id="Rectángulo_456258" data-name="Rectángulo 456258" width="30.715" height="1.536" transform="translate(287.048 121.322)" fill="#10182b"/>
            <rect id="Rectángulo_456259" data-name="Rectángulo 456259" width="30.715" height="1.537" transform="translate(287.048 126.049)" fill="#10182b"/>
            <rect id="Rectángulo_456260" data-name="Rectángulo 456260" width="30.715" height="1.536" transform="translate(287.048 130.777)" fill="#10182b"/>
            <line id="Línea_3233" data-name="Línea 3233" x1="1.138" transform="translate(252.333 220.521)" fill="none" stroke="#fff" stroke-linecap="round" stroke-linejoin="round" stroke-width="1.338"/>
            <line id="Línea_3234" data-name="Línea 3234" x1="31.356" transform="translate(217.842 220.521)" fill="none" stroke="#fff" stroke-linecap="round" stroke-linejoin="round" stroke-width="1.338" stroke-dasharray="2.764 3.686"/>
            <path id="Trazado_999471" data-name="Trazado 999471" d="M253.9,259.061h-1.138l-.713-.886" transform="translate(-37.625 -38.54)" fill="none" stroke="#fff" stroke-linecap="round" stroke-linejoin="round" stroke-width="1.338"/>
            <line id="Línea_3235" data-name="Línea 3235" x1="2.709" y1="3.367" transform="translate(209.547 213.574)" fill="none" stroke="#fff" stroke-linecap="round" stroke-linejoin="round" stroke-width="1.338" stroke-dasharray="3.048 4.064"/>
            <line id="Línea_3236" data-name="Línea 3236" x1="0.714" y1="0.886" transform="translate(207.751 211.34)" fill="none" stroke="#fff" stroke-linecap="round" stroke-linejoin="round" stroke-width="1.338"/>
            <path id="Trazado_999472" data-name="Trazado 999472" d="M300.415,258.793A2.418,2.418,0,1,0,298,261.21a2.417,2.417,0,0,0,2.418-2.418" transform="translate(-44.123 -38.271)" fill="#fff"/>
            <path id="Trazado_999473" data-name="Trazado 999473" d="M246.2,248a2.419,2.419,0,1,0-2.418,2.419A2.417,2.417,0,0,0,246.2,248" transform="translate(-36.03 -36.66)" fill="#fff"/>
            <rect id="Rectángulo_456261" data-name="Rectángulo 456261" width="62.274" height="40.583" transform="translate(261.726 197.314)" fill="#fff"/>
            <path id="Trazado_999474" data-name="Trazado 999474" d="M322.412,246.08c0,.157-5.631-5.122-5.631-5.122a7.592,7.592,0,0,1,5.631-2.49Z" transform="translate(-47.288 -35.598)" fill="#78a9dc"/>
            <path id="Trazado_999475" data-name="Trazado 999475" d="M331.011,246.08H323.4v-7.612a7.613,7.613,0,0,1,7.611,7.612" transform="translate(-48.277 -35.598)" fill="#f58605"/>
            <path id="Trazado_999476" data-name="Trazado 999476" d="M314.452,247.425h7.611v7.611a7.611,7.611,0,0,1-7.611-7.611" transform="translate(-46.941 -36.935)" fill="#077886"/>
            <path id="Trazado_999477" data-name="Trazado 999477" d="M322.064,246.517h-7.611a7.587,7.587,0,0,1,1.981-5.122Z" transform="translate(-46.941 -36.035)" fill="#10182b"/>
            <path id="Trazado_999478" data-name="Trazado 999478" d="M323.4,247.426c0-.157,5.63,5.122,5.63,5.122a7.594,7.594,0,0,1-5.63,2.489Z" transform="translate(-48.277 -36.935)" fill="#e884b4"/>
            <path id="Trazado_999479" data-name="Trazado 999479" d="M323.4,247.427h7.611a7.583,7.583,0,0,1-1.98,5.122Z" transform="translate(-48.277 -36.935)" fill="#db2d64"/>
            <rect id="Rectángulo_456262" data-name="Rectángulo 456262" width="30.717" height="1.537" transform="translate(287.498 204.992)" fill="#10182b"/>
            <rect id="Rectángulo_456263" data-name="Rectángulo 456263" width="30.717" height="1.536" transform="translate(287.498 209.718)" fill="#10182b"/>
            <rect id="Rectángulo_456264" data-name="Rectángulo 456264" width="30.717" height="1.536" transform="translate(287.498 214.446)" fill="#10182b"/>
            <rect id="Rectángulo_456265" data-name="Rectángulo 456265" width="8.879" height="8.878" transform="translate(270.749 223.219)" fill="#78a9dc"/>
            <rect id="Rectángulo_456266" data-name="Rectángulo 456266" width="8.878" height="8.878" transform="translate(282.533 223.219)" fill="#f58605"/>
            <rect id="Rectángulo_456267" data-name="Rectángulo 456267" width="8.878" height="8.878" transform="translate(294.316 223.219)" fill="#077886"/>
            <rect id="Rectángulo_456268" data-name="Rectángulo 456268" width="8.88" height="8.878" transform="translate(306.097 223.219)" fill="#db2d64"/>
            <line id="Línea_3237" data-name="Línea 3237" x2="1.138" transform="translate(70.529 119.343)" fill="none" stroke="#fff" stroke-linecap="round" stroke-linejoin="round" stroke-width="1.338"/>
            <line id="Línea_3238" data-name="Línea 3238" x2="31.355" transform="translate(74.802 119.343)" fill="none" stroke="#fff" stroke-linecap="round" stroke-linejoin="round" stroke-width="1.338" stroke-dasharray="2.764 3.686"/>
            <path id="Trazado_999480" data-name="Trazado 999480" d="M126.628,140.285h1.138l.713.886" transform="translate(-18.903 -20.941)" fill="none" stroke="#fff" stroke-linecap="round" stroke-linejoin="round" stroke-width="1.338"/>
            <line id="Línea_3239" data-name="Línea 3239" x2="2.709" y2="3.367" transform="translate(111.743 122.924)" fill="none" stroke="#fff" stroke-linecap="round" stroke-linejoin="round" stroke-width="1.338" stroke-dasharray="3.048 4.064"/>
            <line id="Línea_3240" data-name="Línea 3240" x2="0.714" y2="0.886" transform="translate(115.535 127.639)" fill="none" stroke="#fff" stroke-linecap="round" stroke-linejoin="round" stroke-width="1.338"/>
            <path id="Trazado_999481" data-name="Trazado 999481" d="M79.589,139.861a2.419,2.419,0,1,0,2.418-2.418,2.417,2.417,0,0,0-2.418,2.418" transform="translate(-11.881 -20.517)" fill="#fff"/>
            <path id="Trazado_999482" data-name="Trazado 999482" d="M133.806,150.655a2.418,2.418,0,1,0,2.417-2.419,2.417,2.417,0,0,0-2.417,2.419" transform="translate(-19.974 -22.128)" fill="#fff"/>
            <rect id="Rectángulo_456269" data-name="Rectángulo 456269" width="62.273" height="40.583" transform="translate(0 97.855)" fill="#fff"/>
            <path id="Trazado_999483" data-name="Trazado 999483" d="M17.34,146.49c0,.157,5.633-5.122,5.633-5.122a7.6,7.6,0,0,0-5.633-2.49Z" transform="translate(-2.588 -20.731)" fill="#78a9dc"/>
            <path id="Trazado_999484" data-name="Trazado 999484" d="M8.394,146.49H16v-7.612a7.612,7.612,0,0,0-7.611,7.612" transform="translate(-1.253 -20.731)" fill="#f58605"/>
            <path id="Trazado_999485" data-name="Trazado 999485" d="M24.953,147.834H17.34v7.611a7.612,7.612,0,0,0,7.613-7.611" transform="translate(-2.588 -22.068)" fill="#077886"/>
            <path id="Trazado_999486" data-name="Trazado 999486" d="M17.34,146.927h7.613a7.6,7.6,0,0,0-1.98-5.122Z" transform="translate(-2.588 -21.168)" fill="#10182b"/>
            <path id="Trazado_999487" data-name="Trazado 999487" d="M16.352,147.835c0-.157-5.63,5.122-5.63,5.122a7.594,7.594,0,0,0,5.63,2.489Z" transform="translate(-1.601 -22.068)" fill="#e884b4"/>
            <path id="Trazado_999488" data-name="Trazado 999488" d="M16,147.836H8.394a7.583,7.583,0,0,0,1.98,5.122Z" transform="translate(-1.253 -22.069)" fill="#db2d64"/>
            <rect id="Rectángulo_456270" data-name="Rectángulo 456270" width="50.617" height="1.536" transform="translate(5.786 103.211)" fill="#10182b"/>
            <rect id="Rectángulo_456271" data-name="Rectángulo 456271" width="50.617" height="1.536" transform="translate(5.786 107.939)" fill="#10182b"/>
            <rect id="Rectángulo_456272" data-name="Rectángulo 456272" width="50.617" height="1.536" transform="translate(5.786 112.666)" fill="#10182b"/>
            <rect id="Rectángulo_456273" data-name="Rectángulo 456273" width="29.021" height="5.986" transform="translate(26.392 122.541)" fill="#78a9dc"/>
            <rect id="Rectángulo_456274" data-name="Rectángulo 456274" width="15.132" height="5.986" transform="translate(40.281 122.541)" fill="#10182b"/>
            <line id="Línea_3241" data-name="Línea 3241" x2="1.138" transform="translate(70.529 220.521)" fill="none" stroke="#fff" stroke-linecap="round" stroke-linejoin="round" stroke-width="1.338"/>
            <line id="Línea_3242" data-name="Línea 3242" x2="31.355" transform="translate(74.802 220.521)" fill="none" stroke="#fff" stroke-linecap="round" stroke-linejoin="round" stroke-width="1.338" stroke-dasharray="2.764 3.686"/>
            <path id="Trazado_999489" data-name="Trazado 999489" d="M126.628,259.061h1.138l.713-.886" transform="translate(-18.903 -38.54)" fill="none" stroke="#fff" stroke-linecap="round" stroke-linejoin="round" stroke-width="1.338"/>
            <line id="Línea_3243" data-name="Línea 3243" y1="3.367" x2="2.709" transform="translate(111.743 213.574)" fill="none" stroke="#fff" stroke-linecap="round" stroke-linejoin="round" stroke-width="1.338" stroke-dasharray="3.048 4.064"/>
            <line id="Línea_3244" data-name="Línea 3244" y1="0.886" x2="0.714" transform="translate(115.535 211.34)" fill="none" stroke="#fff" stroke-linecap="round" stroke-linejoin="round" stroke-width="1.338"/>
            <path id="Trazado_999490" data-name="Trazado 999490" d="M79.589,258.793a2.419,2.419,0,1,1,2.418,2.418,2.418,2.418,0,0,1-2.418-2.418" transform="translate(-11.881 -38.271)" fill="#fff"/>
            <path id="Trazado_999491" data-name="Trazado 999491" d="M133.8,248a2.419,2.419,0,1,1,2.419,2.419A2.418,2.418,0,0,1,133.8,248" transform="translate(-19.974 -36.66)" fill="#fff"/>
            <rect id="Rectángulo_456275" data-name="Rectángulo 456275" width="62.273" height="40.583" transform="translate(0 197.314)" fill="#fff"/>
            <path id="Trazado_999492" data-name="Trazado 999492" d="M20.258,245.49c0,.157,5.633-5.121,5.633-5.121a7.6,7.6,0,0,0-5.633-2.49Z" transform="translate(-3.024 -35.51)" fill="#78a9dc"/>
            <path id="Trazado_999493" data-name="Trazado 999493" d="M11.312,245.49h7.611v-7.611a7.612,7.612,0,0,0-7.611,7.611" transform="translate(-1.689 -35.51)" fill="#f58605"/>
            <path id="Trazado_999494" data-name="Trazado 999494" d="M27.872,246.835H20.258v7.612a7.615,7.615,0,0,0,7.614-7.612" transform="translate(-3.024 -36.847)" fill="#077886"/>
            <path id="Trazado_999495" data-name="Trazado 999495" d="M20.258,245.927h7.614a7.594,7.594,0,0,0-1.98-5.121Z" transform="translate(-3.024 -35.947)" fill="#10182b"/>
            <path id="Trazado_999496" data-name="Trazado 999496" d="M19.27,246.835c0-.158-5.63,5.121-5.63,5.121a7.589,7.589,0,0,0,5.63,2.491Z" transform="translate(-2.036 -36.847)" fill="#e884b4"/>
            <path id="Trazado_999497" data-name="Trazado 999497" d="M18.923,246.836H11.312a7.575,7.575,0,0,0,1.98,5.121Z" transform="translate(-1.689 -36.847)" fill="#db2d64"/>
            <path id="Trazado_999498" data-name="Trazado 999498" d="M52.15,245.49c0,.157,5.633-5.121,5.633-5.121a7.6,7.6,0,0,0-5.633-2.49Z" transform="translate(-7.785 -35.51)" fill="#78a9dc"/>
            <path id="Trazado_999499" data-name="Trazado 999499" d="M43.2,245.49h7.611v-7.611A7.613,7.613,0,0,0,43.2,245.49" transform="translate(-6.449 -35.51)" fill="#f58605"/>
            <path id="Trazado_999500" data-name="Trazado 999500" d="M59.763,246.835H52.15v7.612a7.614,7.614,0,0,0,7.613-7.612" transform="translate(-7.785 -36.847)" fill="#077886"/>
            <path id="Trazado_999501" data-name="Trazado 999501" d="M52.15,245.927h7.613a7.59,7.59,0,0,0-1.98-5.121Z" transform="translate(-7.785 -35.947)" fill="#10182b"/>
            <path id="Trazado_999502" data-name="Trazado 999502" d="M51.162,246.835c0-.158-5.631,5.121-5.631,5.121a7.594,7.594,0,0,0,5.631,2.491Z" transform="translate(-6.797 -36.847)" fill="#e884b4"/>
            <path id="Trazado_999503" data-name="Trazado 999503" d="M50.814,246.836H43.2a7.588,7.588,0,0,0,1.98,5.121Z" transform="translate(-6.449 -36.847)" fill="#db2d64"/>
            <rect id="Rectángulo_456276" data-name="Rectángulo 456276" width="50.705" height="6.446" transform="translate(6.656 223.618)" fill="#78a9dc"/>
            <rect id="Rectángulo_456277" data-name="Rectángulo 456277" width="35.427" height="6.446" transform="translate(21.933 223.618)" fill="#10182b"/>
          </g>
        </g>
      </g>
    </g>
  </g>
</svg>
