<svg xmlns="http://www.w3.org/2000/svg" width="84" height="84" viewBox="0 0 84 84">
  <g id="Grupo_1179848" data-name="Grupo 1179848" transform="translate(-739.082 -4900.92)">
    <rect id="Rectángulo_402006" data-name="Rectángulo 402006" width="84" height="84" rx="5" transform="translate(739.082 4900.92)" fill="#371b57"/>
    <g id="Layer_x0020_1" transform="translate(752.164 4849.88)">
      <g id="_306191664" transform="translate(0 63)">
        <g id="Grupo_1179749" data-name="Grupo 1179749" transform="translate(0 13.9)">
          <path id="Trazado_999713" data-name="Trazado 999713" d="M772.015,4404h50.868a1.019,1.019,0,0,1,1.018,1.019v33.989a1.018,1.018,0,0,1-1.018,1.015H772.015a1.015,1.015,0,0,1-1.015-1.015v-33.989A1.016,1.016,0,0,1,772.015,4404Z" transform="translate(-768.531 -4404)" fill="#0065a3" fill-rule="evenodd"/>
          <path id="Trazado_999714" data-name="Trazado 999714" d="M1791.015,5465h44.342a1.015,1.015,0,0,1,1.015,1.015v27.2a1.016,1.016,0,0,1-1.015,1.015h-44.342a1.016,1.016,0,0,1-1.015-1.015v-27.2A1.015,1.015,0,0,1,1791.015,5465Z" transform="translate(-1784.268 -5461.603)" fill="#33ddfe" fill-rule="evenodd"/>
          <path id="Trazado_999715" data-name="Trazado 999715" d="M56.82,15028.545H1.018A1.017,1.017,0,0,1,0,15027.527v-7.51A1.017,1.017,0,0,1,1.018,15019h55.8a1.016,1.016,0,0,1,1.015,1.018v7.51A1.016,1.016,0,0,1,56.82,15028.545Z" transform="translate(0 -14985.011)" fill="#194d80" fill-rule="evenodd"/>
          <path id="Trazado_999716" data-name="Trazado 999716" d="M6275,15337h17.653v3.756H6275Z" transform="translate(-6254.907 -15301.992)" fill="#e6e6e6" fill-rule="evenodd"/>
        </g>
        <path id="Trazado_999717" data-name="Trazado 999717" d="M3299.018,11777.033a1.017,1.017,0,1,1,0-2.033H3333.7a1.017,1.017,0,1,1,0,2.033Z" transform="translate(-3287.44 -11737.498)" fill="#29b3fe" fill-rule="evenodd"/>
        <path id="Trazado_999718" data-name="Trazado 999718" d="M4842.016,8255h24.8a1.018,1.018,0,0,1,1.015,1.019v7.521a1.017,1.017,0,0,1-1.015,1.019h-24.8a1.017,1.017,0,0,1-1.016-1.019v-7.521A1.019,1.019,0,0,1,4842.016,8255Z" transform="translate(-4825.499 -8228.769)" fill="#fff"/>
        <g id="Grupo_1179750" data-name="Grupo 1179750" transform="translate(19.049 28.892)">
          <path id="Trazado_999719" data-name="Trazado 999719" d="M6293,9087.019a1.017,1.017,0,1,1,2.033,0v2.2a1.017,1.017,0,0,1-2.033,0Z" transform="translate(-6291.898 -9086)" fill="#fe9833" fill-rule="evenodd"/>
          <path id="Trazado_999720" data-name="Trazado 999720" d="M5952.218,9430a1.017,1.017,0,1,1,0,2.033h-2.2a1.017,1.017,0,0,1,0-2.033Z" transform="translate(-5949 -9428.898)" fill="#fe9833" fill-rule="evenodd"/>
          <path id="Trazado_999721" data-name="Trazado 999721" d="M7907,9087.019a1.017,1.017,0,1,1,2.033,0v2.2a1.017,1.017,0,0,1-2.033,0Z" transform="translate(-7900.73 -9086)" fill="#fe9833" fill-rule="evenodd"/>
          <path id="Trazado_999722" data-name="Trazado 999722" d="M7566.218,9430a1.017,1.017,0,1,1,0,2.033h-2.2a1.017,1.017,0,0,1,0-2.033Z" transform="translate(-7557.832 -9428.898)" fill="#fe9833" fill-rule="evenodd"/>
          <path id="Trazado_999723" data-name="Trazado 999723" d="M9521,9087.019a1.017,1.017,0,1,1,2.033,0v2.2a1.017,1.017,0,0,1-2.033,0Z" transform="translate(-9509.563 -9086)" fill="#fe9833" fill-rule="evenodd"/>
          <path id="Trazado_999724" data-name="Trazado 999724" d="M9180.219,9430a1.017,1.017,0,1,1,0,2.033h-2.2a1.017,1.017,0,0,1,0-2.033Z" transform="translate(-9166.663 -9428.898)" fill="#fe9833" fill-rule="evenodd"/>
          <path id="Trazado_999725" data-name="Trazado 999725" d="M11135,9087.019a1.017,1.017,0,1,1,2.033,0v2.2a1.017,1.017,0,0,1-2.033,0Z" transform="translate(-11118.395 -9086)" fill="#fe9833" fill-rule="evenodd"/>
          <path id="Trazado_999726" data-name="Trazado 999726" d="M10794.219,9430a1.017,1.017,0,0,1,0,2.033h-2.2a1.017,1.017,0,0,1,0-2.033Z" transform="translate(-10775.495 -9428.898)" fill="#fe9833" fill-rule="evenodd"/>
        </g>
        <g id="Grupo_1179751" data-name="Grupo 1179751" transform="translate(31.041)">
          <path id="Trazado_999727" data-name="Trazado 999727" d="M10472.191,72.494a1.146,1.146,0,0,1-2.293,0v-3.4a3.8,3.8,0,0,0-7.605,0v3.4a1.146,1.146,0,0,1-2.293,0v-3.4a6.1,6.1,0,0,1,12.191,0Z" transform="translate(-10457.547 -63)" fill="#ccc"/>
          <path id="Trazado_999728" data-name="Trazado 999728" d="M9695.15,2670h14.8a1.148,1.148,0,0,1,1.148,1.146v10.82a1.148,1.148,0,0,1-1.148,1.146h-14.8a1.148,1.148,0,0,1-1.15-1.146v-10.82A1.148,1.148,0,0,1,9695.15,2670Z" transform="translate(-9694 -2661.652)" fill="#fe9833" fill-rule="evenodd"/>
          <path id="Trazado_999729" data-name="Trazado 999729" d="M12005,3811.146a1.148,1.148,0,0,1,2.3,0v3.519a1.148,1.148,0,0,1-2.3,0Z" transform="translate(-11997.601 -3798.002)" fill="#fe7b29" fill-rule="evenodd"/>
        </g>
        <g id="Grupo_1179752" data-name="Grupo 1179752" transform="translate(9.702)">
          <path id="Trazado_999730" data-name="Trazado 999730" d="M3807.193,72.494a1.148,1.148,0,0,1-2.3,0v-3.4a3.8,3.8,0,0,0-7.6,0v3.4a1.146,1.146,0,1,1-2.292,0v-3.4a6.1,6.1,0,0,1,12.193,0Z" transform="translate(-3792.551 -63)" fill="#ccc"/>
          <path id="Trazado_999731" data-name="Trazado 999731" d="M3031.146,2670h14.8a1.147,1.147,0,0,1,1.146,1.146v10.82a1.147,1.147,0,0,1-1.146,1.146h-14.8a1.145,1.145,0,0,1-1.146-1.146v-10.82A1.145,1.145,0,0,1,3031.146,2670Z" transform="translate(-3030 -2661.652)" fill="#fe9833" fill-rule="evenodd"/>
          <path id="Trazado_999732" data-name="Trazado 999732" d="M5341,3811.146a1.146,1.146,0,0,1,2.293,0v3.519a1.146,1.146,0,0,1-2.293,0Z" transform="translate(-5333.6 -3798.002)" fill="#fe7b29" fill-rule="evenodd"/>
        </g>
      </g>
    </g>
  </g>
</svg>
