<svg xmlns="http://www.w3.org/2000/svg" width="84" height="84" viewBox="0 0 84 84">
  <g id="Grupo_1179857" data-name="Grupo 1179857" transform="translate(-706.371 -5338.009)">
    <g id="Grupo_1179847" data-name="Grupo 1179847">
      <rect id="Rectángulo_456166" data-name="Rectángulo 456166" width="84" height="84" rx="5" transform="translate(706.371 5338.009)" fill="#ffb900"/>
      <g id="Grupo_1179748" data-name="Grupo 1179748" transform="translate(695.53 5327.168)">
        <path id="Trazado_999676" data-name="Trazado 999676" d="M43.978,152H89.726a3.978,3.978,0,0,1,3.978,3.978v30.83a2.984,2.984,0,0,1-2.984,2.984H42.984A2.984,2.984,0,0,1,40,186.808v-30.83A3.978,3.978,0,0,1,43.978,152Z" transform="translate(-14.011 -112.088)" fill="#348fd9"/>
        <path id="Trazado_999677" data-name="Trazado 999677" d="M116.584,57.164A4,4,0,0,0,113.77,56H75.978A3.977,3.977,0,0,0,72,59.978V106.72h45.748V59.978A4,4,0,0,0,116.584,57.164Z" transform="translate(-42.033 -28.022)" fill="#60d1e0"/>
        <path id="Trazado_999678" data-name="Trazado 999678" d="M104,80h1.989v1.989H104Z" transform="translate(-70.051 -49.038)" fill="#3fb7c7"/>
        <path id="Trazado_999679" data-name="Trazado 999679" d="M136,80h1.989v1.989H136Z" transform="translate(-98.073 -49.038)" fill="#3fb7c7"/>
        <path id="Trazado_999680" data-name="Trazado 999680" d="M168,80h1.989v1.989H168Z" transform="translate(-126.095 -49.038)" fill="#3fb7c7"/>
        <path id="Trazado_999681" data-name="Trazado 999681" d="M104,112h24.863v1.989H104Z" transform="translate(-70.055 -77.06)" fill="#3fb7c7"/>
        <path id="Trazado_999682" data-name="Trazado 999682" d="M116.584,57.164A4,4,0,0,0,113.77,56H75.978A3.977,3.977,0,0,0,72,59.978V106.72h45.748V59.978A4,4,0,0,0,116.584,57.164Z" transform="translate(-42.033 -28.022)" fill="#60d1e0"/>
        <path id="Trazado_999683" data-name="Trazado 999683" d="M104,80h1.989v1.989H104Z" transform="translate(-70.051 -49.038)" fill="#3fb7c7"/>
        <path id="Trazado_999684" data-name="Trazado 999684" d="M136,80h1.989v1.989H136Z" transform="translate(-98.073 -49.038)" fill="#3fb7c7"/>
        <path id="Trazado_999685" data-name="Trazado 999685" d="M168,80h1.989v1.989H168Z" transform="translate(-126.095 -49.038)" fill="#3fb7c7"/>
        <path id="Trazado_999686" data-name="Trazado 999686" d="M104,112h24.863v1.989H104Z" transform="translate(-70.055 -77.06)" fill="#3fb7c7"/>
        <path id="Trazado_999687" data-name="Trazado 999687" d="M173.792,160,136,197.792h37.792Z" transform="translate(-98.077 -119.093)" fill="#5ac6d4"/>
        <path id="Trazado_999688" data-name="Trazado 999688" d="M58.808,440.995a3.4,3.4,0,0,1-2.4.995H49.275a3.4,3.4,0,0,1-2.4-.994,3.4,3.4,0,0,0-2.4-.995H24v2.984a2.984,2.984,0,0,0,2.984,2.984H78.7a2.984,2.984,0,0,0,2.984-2.984V440H61.209a3.4,3.4,0,0,0-2.4.995Z" transform="translate(0 -364.285)" fill="#e0e0de"/>
        <path id="Trazado_999689" data-name="Trazado 999689" d="M434.984,440v2.984A2.984,2.984,0,0,1,432,445.967h3.978a2.984,2.984,0,0,0,2.984-2.984V440Z" transform="translate(-357.28 -364.285)" fill="#d6d6d4"/>
        <path id="Trazado_999690" data-name="Trazado 999690" d="M440,240h3.978v1.989H440Z" transform="translate(-364.285 -189.148)" fill="#3086cd"/>
        <path id="Trazado_999691" data-name="Trazado 999691" d="M40,376h3.978v1.989H40Z" transform="translate(-14.011 -308.241)" fill="#3086cd"/>
        <path id="Trazado_999692" data-name="Trazado 999692" d="M344,240h11.934v1.989H344Z" transform="translate(-280.219 -189.148)" fill="#5ac6d4"/>
        <path id="Trazado_999693" data-name="Trazado 999693" d="M72,328H95.868v7.956H72Z" transform="translate(-42.033 -266.208)" fill="#5ac6d4"/>
        <g id="Grupo_1179747" data-name="Grupo 1179747" transform="translate(41.643 39.037)">
          <path id="Trazado_999694" data-name="Trazado 999694" d="M206.428,148.757l-1.144-1.627a11.918,11.918,0,0,1,13.727,0l-1.145,1.627A9.932,9.932,0,0,0,206.428,148.757Z" transform="translate(-200.391 -144.961)" fill="#348fd9"/>
          <path id="Trazado_999695" data-name="Trazado 999695" d="M198.533,182.85a15.217,15.217,0,0,0-10.3-3.9h-.139a14.5,14.5,0,0,0-8.183,2.524l-1.118-1.645a16.486,16.486,0,0,1,9.3-2.867h.139a17.2,17.2,0,0,1,11.639,4.416Z" transform="translate(-177.193 -172.985)" fill="#348fd9"/>
          <path id="Trazado_999696" data-name="Trazado 999696" d="M189.574,225.006l-1.914-.541a10.359,10.359,0,0,0,0-5.681A10.581,10.581,0,0,0,186.1,215.5a11.132,11.132,0,0,0-9.142-4.551h-.139a10.75,10.75,0,0,0-8.791,4.637l-.477.685-1.633-1.136.477-.685a12.741,12.741,0,0,1,10.424-5.489h.139a13.124,13.124,0,0,1,10.767,5.393,12.533,12.533,0,0,1,1.847,3.888A12.339,12.339,0,0,1,189.574,225.006Z" transform="translate(-165.921 -201.007)" fill="#348fd9"/>
          <path id="Trazado_999697" data-name="Trazado 999697" d="M298.634,358.6l-1.434-1.379a22.768,22.768,0,0,0,4.722-7.272l1.843.747A24.754,24.754,0,0,1,298.634,358.6Z" transform="translate(-280.88 -324.469)" fill="#348fd9"/>
          <path id="Trazado_999698" data-name="Trazado 999698" d="M177.619,264.419l-1.406-1.406,3.67-3.67a18.994,18.994,0,0,0,4.677-7.691,6.593,6.593,0,0,0-.988-5.947,6.775,6.775,0,0,0-5.443-2.755h-.507a6.793,6.793,0,0,0-6.379,4.631,5.111,5.111,0,0,1-1.193,1.912L168.24,251.3l-1.406-1.406,1.8-1.8a3.13,3.13,0,0,0,.728-1.163,8.782,8.782,0,0,1,8.26-5.97h.507a8.771,8.771,0,0,1,7.047,3.568,8.564,8.564,0,0,1,1.28,7.722,20.987,20.987,0,0,1-5.168,8.5Z" transform="translate(-166.72 -229.027)" fill="#348fd9"/>
          <path id="Trazado_999699" data-name="Trazado 999699" d="M203.949,290.961l-1.406-1.406,5-5a14.776,14.776,0,0,0,3.7-6.072,2.655,2.655,0,0,0-.4-2.391,2.75,2.75,0,0,0-2.24-1.138H208.1a2.789,2.789,0,0,0-2.621,1.948,8.894,8.894,0,0,1-2.145,3.439l-.289.289-1.4-1.407.289-.289a7.019,7.019,0,0,0,1.136-1.488,6.923,6.923,0,0,0,.534-1.19,4.817,4.817,0,0,1,4.5-3.291h.507a4.721,4.721,0,0,1,3.845,1.952,4.624,4.624,0,0,1,.693,4.167,16.976,16.976,0,0,1-4.2,6.879Z" transform="translate(-197.198 -257.051)" fill="#348fd9"/>
          <path id="Trazado_999700" data-name="Trazado 999700" d="M0,0H3.652V1.99H0Z" transform="translate(0.5 26.103) rotate(-44.919)" fill="#348fd9"/>
          <path id="Trazado_999701" data-name="Trazado 999701" d="M186.558,314.588l-1.406-1.406,5.142-5.142a10.991,10.991,0,0,0,2.882-5.052l1.928.491a12.983,12.983,0,0,1-3.4,5.967Z" transform="translate(-182.761 -283.343)" fill="#348fd9"/>
        </g>
        <path id="Trazado_999702" data-name="Trazado 999702" d="M328,120h19.89v14.918H328Z" transform="translate(-266.208 -84.066)" fill="#ffb531"/>
        <path id="Trazado_999703" data-name="Trazado 999703" d="M344,31.956h3.978a3.978,3.978,0,1,1,7.956,0v3.978h3.978V31.956a7.956,7.956,0,1,0-15.912,0Z" transform="translate(-280.219)" fill="#e0e0de"/>
        <path id="Trazado_999704" data-name="Trazado 999704" d="M381.479,155.193a1.989,1.989,0,1,0-3,0,3.975,3.975,0,0,0-2.478,3.68h7.956A3.975,3.975,0,0,0,381.479,155.193Z" transform="translate(-308.241 -111.998)" fill="#95573a"/>
        <path id="Trazado_999705" data-name="Trazado 999705" d="M328,217.917h19.89A17.342,17.342,0,0,0,328,217.917Z" transform="translate(-266.208 -167.064)" fill="#ffa912"/>
        <path id="Trazado_999706" data-name="Trazado 999706" d="M347.89,120H328A17.342,17.342,0,0,0,347.89,120Z" transform="translate(-266.208 -84.066)" fill="#ffcb73"/>
        <path id="Trazado_999707" data-name="Trazado 999707" d="M24,312H51.847v7.956H24Z" transform="translate(0 -252.197)" fill="#ffb531"/>
        <path id="Trazado_999708" data-name="Trazado 999708" d="M24,312H51.847v1.989H24Z" transform="translate(0 -252.197)" fill="#ffa912"/>
        <path id="Trazado_999709" data-name="Trazado 999709" d="M48,336h1.989v1.989H48Z" transform="translate(-21.016 -273.214)" fill="#348fd9"/>
        <path id="Trazado_999710" data-name="Trazado 999710" d="M80,336h1.989v1.989H80Z" transform="translate(-49.038 -273.214)" fill="#348fd9"/>
        <path id="Trazado_999711" data-name="Trazado 999711" d="M112,336h1.989v1.989H112Z" transform="translate(-77.06 -273.214)" fill="#348fd9"/>
        <path id="Trazado_999712" data-name="Trazado 999712" d="M144,336h1.989v1.989H144Z" transform="translate(-105.082 -273.214)" fill="#348fd9"/>
      </g>
    </g>
  </g>
</svg>
