<svg xmlns="http://www.w3.org/2000/svg" width="90" height="91" viewBox="0 0 90 91">
  <g id="Grupo_1179854" data-name="Grupo 1179854" transform="translate(13293 12056)">
    <g id="Grupo_1179832" data-name="Grupo 1179832" transform="translate(-14491.833 -12570)">
      <g id="Rectángulo_455827" data-name="Rectángulo 455827" transform="translate(1198.833 514)" fill="#fff" stroke="#e5edf3" stroke-width="5">
        <rect width="90" height="91" rx="20" stroke="none"/>
        <rect x="2.5" y="2.5" width="85" height="86" rx="17.5" fill="none"/>
      </g>
      <g id="Grupo_1179822" data-name="Grupo 1179822" transform="translate(1200.041 472.704)">
        <path id="Trazado_1000140" data-name="Trazado 1000140" d="M68.328,84.52h-.166a11.269,11.269,0,0,0-15.012-5.944,11.275,11.275,0,0,0-8.144-5.743,18.572,18.572,0,0,0-5.026-9.1,18.762,18.762,0,0,0-26.49,0,18.709,18.709,0,0,0,10.368,31.72c0,.1-.007.209-.007.314a11.265,11.265,0,0,0,11.257,11.248h5.933v5.41a2.918,2.918,0,0,0,2.916,2.913H59.474a2.918,2.918,0,0,0,2.915-2.913v-5.41h5.938a11.246,11.246,0,1,0,0-22.492Z" transform="translate(0 -0.001)" fill="#c0dafc"/>
        <path id="Trazado_1000141" data-name="Trazado 1000141" d="M32.04,84.94c-.029-.332-.044-.665-.044-1a11.249,11.249,0,0,1,13.009-11.11,18.572,18.572,0,0,0-5.026-9.1,18.762,18.762,0,0,0-26.49,0A18.709,18.709,0,0,0,23.857,95.45,11.3,11.3,0,0,1,32.04,84.94Z" transform="translate(0)" fill="#6bd9e7"/>
        <path id="Trazado_1000142" data-name="Trazado 1000142" d="M127.077,148.03a11.261,11.261,0,0,1,1.752.139,18.692,18.692,0,0,0-.506-1.81q-.618-.059-1.246-.06a13,13,0,0,0-12.987,12.755,13.042,13.042,0,0,0-8.128,11.383c.564.141,1.137.259,1.719.349a11.3,11.3,0,0,1,8.183-10.51c-.029-.332-.044-.665-.044-1a11.265,11.265,0,0,1,11.257-11.248Z" transform="translate(-83.824 -75.335)" fill="#57d3dd"/>
        <g id="Grupo_1179819" data-name="Grupo 1179819" transform="translate(57.778 69.212)">
          <path id="Trazado_1000143" data-name="Trazado 1000143" d="M367.376,166.1a5.392,5.392,0,0,0-4.042-.263.866.866,0,0,0,.542,1.645,3.672,3.672,0,0,1,4.339,1.658.866.866,0,0,0,1.5-.867A5.406,5.406,0,0,0,367.376,166.1Z" transform="translate(-361.319 -161.032)" fill="#e2e7f6"/>
          <path id="Trazado_1000144" data-name="Trazado 1000144" d="M365.232,139.159a9.944,9.944,0,0,0-11.733-4.491.866.866,0,1,0,.542,1.645,8.212,8.212,0,0,1,9.687,3.705.866.866,0,1,0,1.5-.859Z" transform="translate(-352.903 -134.165)" fill="#e2e7f6"/>
        </g>
        <path id="Trazado_1000145" data-name="Trazado 1000145" d="M24.2,93.012a10.5,10.5,0,0,1-2.929-3.818A20.62,20.62,0,0,1,20.1,86.249a34.417,34.417,0,0,1,9.882-.5,11.129,11.129,0,0,1,2.059-.812c-.02-.229-.031-.458-.037-.688a36.32,36.32,0,0,0-12.367.329,32.271,32.271,0,0,1-.863-6.755h15.04a11.34,11.34,0,0,1,2.563-2.78,33.488,33.488,0,0,0-.862-6.1,23.292,23.292,0,0,0,4.231-1.566q.381-.186.751-.39A16.815,16.815,0,0,1,43.19,72.7l.063,0a11.263,11.263,0,0,1,1.752.139,18.572,18.572,0,0,0-5.026-9.1,18.762,18.762,0,0,0-26.49,0,18.71,18.71,0,0,0,10.369,31.72,11.147,11.147,0,0,1,.338-2.439ZM18.773,76.1a32.287,32.287,0,0,1,.861-6.746,36.176,36.176,0,0,0,14.2,0,32.2,32.2,0,0,1,.854,6.746H18.773ZM38.756,64.957c.217.216.425.44.629.666-.132.069-.266.138-.4.2a21.668,21.668,0,0,1-3.927,1.452,22.5,22.5,0,0,0-1.3-3.319,14.239,14.239,0,0,0-2.165-3.269,16.9,16.9,0,0,1,7.167,4.266ZM26.486,59.992q.248,0,.5,0c1.922.132,3.767,1.8,5.219,4.736a20.682,20.682,0,0,1,1.168,2.951,34.271,34.271,0,0,1-13.271,0,20.627,20.627,0,0,1,1.17-2.95C22.719,61.793,24.564,60.124,26.486,59.992ZM14.713,64.957a16.9,16.9,0,0,1,7.17-4.267,14.221,14.221,0,0,0-2.168,3.27,22.418,22.418,0,0,0-1.305,3.318,21.682,21.682,0,0,1-3.93-1.453c-.134-.065-.267-.133-.4-.2Q14.387,65.283,14.713,64.957Zm-1.743,2.035c.246.135.5.265.748.388a23.326,23.326,0,0,0,4.234,1.568,33.981,33.981,0,0,0-.9,7.148H9.754A16.805,16.805,0,0,1,12.969,66.992Zm0,19.939a16.8,16.8,0,0,1-3.216-9.1h7.3a33.987,33.987,0,0,0,.9,7.153,23.071,23.071,0,0,0-4.23,1.56Q13.336,86.728,12.969,86.931Zm1.743,2.035q-.326-.325-.631-.665c.132-.069.266-.138.4-.2a21.5,21.5,0,0,1,3.926-1.449,22.409,22.409,0,0,0,1.3,3.316A14.163,14.163,0,0,0,21.9,93.243,16.8,16.8,0,0,1,14.712,88.966Z" transform="translate(0 -0.001)" fill="#08a9f1"/>
        <g id="Grupo_1179820" data-name="Grupo 1179820" transform="translate(22.138 70.963)">
          <path id="Trazado_1000146" data-name="Trazado 1000146" d="M248.055,146.313a16.938,16.938,0,0,1,.545,1.719l.063,0a11.261,11.261,0,0,1,1.752.139,18.692,18.692,0,0,0-.506-1.81q-.618-.059-1.246-.06C248.459,146.3,248.256,146.3,248.055,146.313Z" transform="translate(-227.547 -146.298)" fill="#099fd3"/>
          <path id="Trazado_1000147" data-name="Trazado 1000147" d="M177.483,162.689c-.035-.678-.09-1.347-.161-2.008a13.069,13.069,0,0,0-1.621,1.237q.069.9.091,1.818H174.02a13.027,13.027,0,0,0-1.114,1.732h2.014a11.339,11.339,0,0,1,2.563-2.78Z" transform="translate(-163.244 -158.605)" fill="#099fd3"/>
          <path id="Trazado_1000148" data-name="Trazado 1000148" d="M108.019,290.938a7.819,7.819,0,0,1-1.4-1.371,12.867,12.867,0,0,0-.661,3.461c.564.141,1.137.259,1.719.349a11.138,11.138,0,0,1,.338-2.439Z" transform="translate(-105.961 -268.89)" fill="#099fd3"/>
          <path id="Trazado_1000149" data-name="Trazado 1000149" d="M144.9,237.491c-.02-.229-.031-.458-.037-.688-.776-.115-1.562-.2-2.352-.265a12.928,12.928,0,0,0-2.615,1.617c.982.008,1.968.056,2.945.148A11.148,11.148,0,0,1,144.9,237.491Z" transform="translate(-134.998 -223.514)" fill="#099fd3"/>
        </g>
        <path id="Trazado_1000150" data-name="Trazado 1000150" d="M255.372,326.378H239.855a2.918,2.918,0,0,0-2.916,2.913v12.556a2.918,2.918,0,0,0,2.916,2.913h15.517a2.918,2.918,0,0,0,2.915-2.913V329.291A2.917,2.917,0,0,0,255.372,326.378Z" transform="translate(-195.898 -229.425)" fill="#4c6cb5"/>
        <g id="Grupo_1179821" data-name="Grupo 1179821" transform="translate(26.392 85.735)">
          <path id="Trazado_1000151" data-name="Trazado 1000151" d="M150.085,368.612h-9.569a11.192,11.192,0,0,1-5.081-1.216,11.242,11.242,0,0,0,8.716,4.139h5.933Z" transform="translate(-135.436 -350.258)" fill="#a8cdf4"/>
          <path id="Trazado_1000152" data-name="Trazado 1000152" d="M395.878,248.652a11.238,11.238,0,0,1-8.717,18.353h-2.3v2.923H390.8a11.241,11.241,0,0,0,5.082-21.276Z" transform="translate(-348.861 -248.652)" fill="#a8cdf4"/>
        </g>
        <path id="Trazado_1000153" data-name="Trazado 1000153" d="M353.25,326.378h-1.924a2.917,2.917,0,0,1,2.915,2.913v12.556a2.918,2.918,0,0,1-2.915,2.913h1.924a2.918,2.918,0,0,0,2.915-2.913V329.291A2.917,2.917,0,0,0,353.25,326.378Z" transform="translate(-293.776 -229.425)" fill="#3d62ad"/>
        <path id="Trazado_1000154" data-name="Trazado 1000154" d="M274.458,255.177a6.164,6.164,0,0,1,6.149,6.141v4.135H278.2v-4.135a3.741,3.741,0,0,0-7.483,0v4.135h-2.406v-4.135A6.161,6.161,0,0,1,274.458,255.177Z" transform="translate(-222.74 -168.5)" fill="#939393"/>
        <path id="Trazado_1000155" data-name="Trazado 1000155" d="M290.469,361.99a2.455,2.455,0,0,1,1.2,4.6l.454,3.506h-3.306l.454-3.506a2.453,2.453,0,0,1,1.2-4.6Z" transform="translate(-239.598 -259.897)" fill="#e2e7f6"/>
        <path id="Trazado_1000156" data-name="Trazado 1000156" d="M310.855,364.446a2.444,2.444,0,0,0-2.879-2.417,2.453,2.453,0,0,1,.776,4.558l.454,3.506h.847l-.454-3.506A2.455,2.455,0,0,0,310.855,364.446Z" transform="translate(-256.682 -259.897)" fill="#ced8ef"/>
      </g>
    </g>
  </g>
</svg>
