<svg xmlns="http://www.w3.org/2000/svg" width="84" height="84" viewBox="0 0 84 84">
  <g id="Grupo_1179852" data-name="Grupo 1179852" transform="translate(-706.371 -906.904)">
    <g id="Grupo_1179845" data-name="Grupo 1179845">
      <rect id="Rectángulo_456167" data-name="Rectángulo 456167" width="84" height="84" rx="5" transform="translate(706.371 906.904)" fill="#ffb900"/>
      <g id="Grupo_1179746" data-name="Grupo 1179746" transform="translate(714.371 914.904)">
        <g id="Grupo_1179716" data-name="Grupo 1179716">
          <path id="Trazado_999658" data-name="Trazado 999658" d="M66,14.168V59.729a4.081,4.081,0,0,1-4.083,4.083H6.083A4.081,4.081,0,0,1,2,59.729V14.168Z" fill="#e9e9ff"/>
        </g>
        <g id="Grupo_1179717" data-name="Grupo 1179717">
          <path id="Trazado_999659" data-name="Trazado 999659" d="M66,14.164V8.282A4.081,4.081,0,0,0,61.917,4.2L6.083,4.188A4.088,4.088,0,0,0,2,8.27v5.894Z" fill="#70c1f9"/>
        </g>
        <g id="Grupo_1179723" data-name="Grupo 1179723">
          <g id="Grupo_1179721" data-name="Grupo 1179721">
            <g id="Grupo_1179718" data-name="Grupo 1179718">
              <path id="Trazado_999660" data-name="Trazado 999660" d="M16.538,9.176A1.771,1.771,0,1,1,14.767,7.4,1.764,1.764,0,0,1,16.538,9.176Z" fill="#e9e9ff"/>
            </g>
            <g id="Grupo_1179719" data-name="Grupo 1179719">
              <path id="Trazado_999661" data-name="Trazado 999661" d="M10.29,9.176A1.777,1.777,0,1,1,8.52,7.4,1.771,1.771,0,0,1,10.29,9.176Z" fill="#e9e9ff"/>
            </g>
            <g id="Grupo_1179720" data-name="Grupo 1179720">
              <path id="Trazado_999662" data-name="Trazado 999662" d="M22.8,9.176A1.777,1.777,0,1,1,21.014,7.4,1.774,1.774,0,0,1,22.8,9.176Z" fill="#e9e9ff"/>
            </g>
          </g>
          <g id="Grupo_1179722" data-name="Grupo 1179722">
            <path id="Trazado_999663" data-name="Trazado 999663" d="M37.838,7.9a1.276,1.276,0,0,0,0,2.553H59.979a1.276,1.276,0,1,0,0-2.553Z" fill="#e9e9ff"/>
          </g>
        </g>
        <g id="Grupo_1179735" data-name="Grupo 1179735">
          <g id="Grupo_1179724" data-name="Grupo 1179724">
            <path id="Trazado_999664" data-name="Trazado 999664" d="M61.26,20.593v16.53a1.585,1.585,0,0,1-1.58,1.59H8.32a1.586,1.586,0,0,1-1.58-1.59V20.593A1.586,1.586,0,0,1,8.32,19H59.68A1.585,1.585,0,0,1,61.26,20.593Z" fill="#cfcfff"/>
          </g>
          <g id="Grupo_1179725" data-name="Grupo 1179725">
            <path id="Trazado_999665" data-name="Trazado 999665" d="M30.75,43.23v4.057a.886.886,0,0,1-.886.886H7.626a.886.886,0,0,1-.886-.886V43.23a.886.886,0,0,1,.886-.886H29.863A.886.886,0,0,1,30.75,43.23Z" fill="#cfcfff"/>
          </g>
          <g id="Grupo_1179726" data-name="Grupo 1179726">
            <path id="Trazado_999666" data-name="Trazado 999666" d="M61.26,43.23v4.057a.886.886,0,0,1-.886.886H38.136a.886.886,0,0,1-.886-.886V43.23a.886.886,0,0,1,.886-.886H60.373A.886.886,0,0,1,61.26,43.23Z" fill="#cfcfff"/>
          </g>
          <g id="Grupo_1179730" data-name="Grupo 1179730">
            <g id="Grupo_1179727" data-name="Grupo 1179727">
              <path id="Trazado_999667" data-name="Trazado 999667" d="M30.75,52.062v.975a.474.474,0,0,1-.48.47H7.219a.474.474,0,0,1-.48-.47v-.975a.476.476,0,0,1,.48-.48H30.27A.476.476,0,0,1,30.75,52.062Z" fill="#cfcfff"/>
            </g>
            <g id="Grupo_1179728" data-name="Grupo 1179728">
              <path id="Trazado_999668" data-name="Trazado 999668" d="M17.306,57.219v.975a.474.474,0,0,1-.48.47H7.219a.474.474,0,0,1-.48-.47v-.975a.476.476,0,0,1,.48-.48h9.607A.476.476,0,0,1,17.306,57.219Z" fill="#cfcfff"/>
            </g>
            <g id="Grupo_1179729" data-name="Grupo 1179729">
              <path id="Trazado_999669" data-name="Trazado 999669" d="M30.75,57.219v.975a.474.474,0,0,1-.48.47H20.8a.474.474,0,0,1-.48-.47v-.975a.476.476,0,0,1,.48-.48h9.47A.476.476,0,0,1,30.75,57.219Z" fill="#cfcfff"/>
            </g>
          </g>
          <g id="Grupo_1179734" data-name="Grupo 1179734">
            <g id="Grupo_1179731" data-name="Grupo 1179731">
              <path id="Trazado_999670" data-name="Trazado 999670" d="M61.26,52.062v.975a.474.474,0,0,1-.48.47H37.729a.474.474,0,0,1-.48-.47v-.975a.476.476,0,0,1,.48-.48H60.78A.476.476,0,0,1,61.26,52.062Z" fill="#cfcfff"/>
            </g>
            <g id="Grupo_1179732" data-name="Grupo 1179732">
              <path id="Trazado_999671" data-name="Trazado 999671" d="M47.815,57.219v.975a.474.474,0,0,1-.48.47H37.729a.474.474,0,0,1-.48-.47v-.975a.476.476,0,0,1,.48-.48h9.607A.476.476,0,0,1,47.815,57.219Z" fill="#cfcfff"/>
            </g>
            <g id="Grupo_1179733" data-name="Grupo 1179733">
              <path id="Trazado_999672" data-name="Trazado 999672" d="M61.26,57.219v.975a.474.474,0,0,1-.48.47H51.31a.474.474,0,0,1-.48-.47v-.975a.476.476,0,0,1,.48-.48h9.47A.476.476,0,0,1,61.26,57.219Z" fill="#cfcfff"/>
            </g>
          </g>
        </g>
        <g id="Grupo_1179742" data-name="Grupo 1179742">
          <g id="Grupo_1179741" data-name="Grupo 1179741">
            <g id="Grupo_1179738" data-name="Grupo 1179738">
              <g id="Grupo_1179737" data-name="Grupo 1179737">
                <g id="Grupo_1179736" data-name="Grupo 1179736">
                  <path id="Trazado_999673" data-name="Trazado 999673" d="M50.3,36.326,46.05,35.2a12.209,12.209,0,0,0-.858-2.072l2.22-3.788a.627.627,0,0,0-.1-.759l-2.9-2.9a.631.631,0,0,0-.769-.108l-3.8,2.22-.355-.178a9.605,9.605,0,0,0-1.036-.444c-.227-.089-.444-.158-.671-.247l-1.115-4.242a.634.634,0,0,0-.612-.463H31.943a.625.625,0,0,0-.612.463l-.02.059-.118.464-.177.71-.8,3.009a13.663,13.663,0,0,0-2.072.868l-3.788-2.22a.631.631,0,0,0-.769.108l-1.865,1.865-.661.661-.375.375a.627.627,0,0,0-.1.759l2,3.443.01.02.2.326a.527.527,0,0,0-.049.108,11.818,11.818,0,0,0-.8,1.973L17.7,36.326a.623.623,0,0,0-.473.6v4.1a.617.617,0,0,0,.473.612l4.252,1.125a11.077,11.077,0,0,0,.858,2.062l-2.22,3.8a.626.626,0,0,0,.1.76l2.9,2.91a.642.642,0,0,0,.769.1l3.788-2.22c.118.059.237.128.355.178.345.168.69.315,1.045.454.217.079.444.158.671.227L31.332,55.3a.625.625,0,0,0,.612.464h4.113a.633.633,0,0,0,.612-.464l1.115-4.261a12.254,12.254,0,0,0,2.062-.858l.01.01.533.315.325.187,2.042,1.184.888.523a.889.889,0,0,0,.227.089.672.672,0,0,0,.5-.158.135.135,0,0,0,.039-.03l2.525-2.535.375-.375a.626.626,0,0,0,.1-.76L45.4,45.2l-.207-.365a.528.528,0,0,0,.049-.108,11.675,11.675,0,0,0,.809-1.953L50.3,41.644a.617.617,0,0,0,.473-.612v-4.1A.623.623,0,0,0,50.3,36.326Z" fill="#ed524e"/>
                </g>
              </g>
            </g>
            <g id="Grupo_1179739" data-name="Grupo 1179739">
              <circle id="Elipse_13647" data-name="Elipse 13647" cx="8.984" cy="8.984" r="8.984" transform="translate(25.011 30)" fill="#4f5d99"/>
            </g>
            <g id="Grupo_1179740" data-name="Grupo 1179740">
              <circle id="Elipse_13648" data-name="Elipse 13648" cx="7.181" cy="7.181" r="7.181" transform="translate(26.814 31.803)" fill="#e9e9ff"/>
            </g>
          </g>
        </g>
        <g id="Grupo_1179745" data-name="Grupo 1179745" opacity="0.2">
          <g id="Grupo_1179743" data-name="Grupo 1179743">
            <path id="Trazado_999674" data-name="Trazado 999674" d="M8.427,4.195,28.475,63.812H48.663L28.6,4.195Z" fill="#fff"/>
          </g>
          <g id="Grupo_1179744" data-name="Grupo 1179744">
            <path id="Trazado_999675" data-name="Trazado 999675" d="M39.528,4.195H33.792L53.851,63.812h5.722Z" fill="#fff"/>
          </g>
        </g>
      </g>
    </g>
  </g>
</svg>
