<svg xmlns="http://www.w3.org/2000/svg" width="84" height="84" viewBox="0 0 84 84">
  <g id="Grupo_1179854" data-name="Grupo 1179854" transform="translate(-706.186 -820.22)">
    <rect id="Rectángulo_454628" data-name="Rectángulo 454628" width="84" height="84" rx="5" transform="translate(706.186 820.22)" fill="#ffb900"/>
    <g id="Blogger-Content-Copywriter-Influencer-Writer" transform="translate(715.866 830.22)">
      <path id="Trazado_1000096" data-name="Trazado 1000096" d="M38,49v1H33V45h1a4.009,4.009,0,0,1,4,4Z" fill="#ffc477"/>
      <path id="Trazado_1000097" data-name="Trazado 1000097" d="M33,45v5H31.71A4.009,4.009,0,0,1,28,47.51c0-.01-.01-.01-.01-.02L25,40h-.02V50H7a4,4,0,0,1-4-4V40.6a7.976,7.976,0,0,1,5.27-7.51L14,31a3,3,0,1,0,6,0l6.48,2.88a5.978,5.978,0,0,1,3.31,3.76L32,45Z" fill="#3d9ae2"/>
      <path id="Trazado_1000098" data-name="Trazado 1000098" d="M20,27v4a3,3,0,0,1-6,0V27Z" fill="#ffc477"/>
      <path id="Trazado_1000099" data-name="Trazado 1000099" d="M61.61,34.33l-2.33,14A2.006,2.006,0,0,1,57.31,50H42l3-18H59.64a2,2,0,0,1,1.97,2.33Z" fill="#c6c5ca"/>
      <path id="Trazado_1000100" data-name="Trazado 1000100" d="M3,50H61v4H3Z" fill="#a97c50"/>
      <path id="Trazado_1000101" data-name="Trazado 1000101" d="M61,5V21a2.006,2.006,0,0,1-2,2H48l-3,4-3-4H35a2.006,2.006,0,0,1-2-2V5a2.006,2.006,0,0,1,2-2H59a2.006,2.006,0,0,1,2,2Z" fill="#00ccb3"/>
      <path id="Trazado_1000102" data-name="Trazado 1000102" d="M6,54H58v7H6Z" fill="#a97c50"/>
      <circle id="Elipse_13649" data-name="Elipse 13649" cx="2" cy="2" r="2" transform="translate(50 39)" fill="#e6e7e8"/>
      <path id="Trazado_1000103" data-name="Trazado 1000103" d="M45,32,42,50H38l.67-4,1.91-11.49A3,3,0,0,1,43.54,32Z" fill="#acabb1"/>
      <path id="Trazado_1000104" data-name="Trazado 1000104" d="M38.67,46,38,50H30a2.006,2.006,0,0,1-2-2V46Z" fill="#acabb1"/>
      <path id="Trazado_1000105" data-name="Trazado 1000105" d="M26,8v5.07c-2.64.34-4.03.93-7,.93-3.33,0-2.67-1-6-1v2a2.006,2.006,0,0,1-2,2H10V12a4,4,0,0,1,4-4Z" fill="#57565c"/>
      <path id="Trazado_1000106" data-name="Trazado 1000106" d="M6,54H58v2H6Z" fill="#8b5e3c"/>
      <path id="Trazado_1000107" data-name="Trazado 1000107" d="M10,17H9.5a2.5,2.5,0,0,0,0,5H11V17Z" fill="#ffb655"/>
      <path id="Trazado_1000108" data-name="Trazado 1000108" d="M20,27v3.75A8.239,8.239,0,0,1,18,31a7.851,7.851,0,0,1-4-1.08V27Z" fill="#ffb655"/>
      <path id="Trazado_1000109" data-name="Trazado 1000109" d="M26,13.07V21a8.006,8.006,0,0,1-6,7.75A8.239,8.239,0,0,1,18,29a7.851,7.851,0,0,1-4-1.08,7.575,7.575,0,0,1-1.66-1.26A8.054,8.054,0,0,1,10.06,22,8.262,8.262,0,0,1,10,21V17h1a2.006,2.006,0,0,0,2-2V13c3.33,0,2.67,1,6,1C21.97,14,23.36,13.41,26,13.07Z" fill="#ffc477"/>
      <path id="Trazado_1000110" data-name="Trazado 1000110" d="M15,18h2v2H15Z" fill="#ee8700"/>
      <path id="Trazado_1000111" data-name="Trazado 1000111" d="M21,18h2v2H21Z" fill="#ee8700"/>
      <g id="Grupo_1179807" data-name="Grupo 1179807">
        <path id="Trazado_1000112" data-name="Trazado 1000112" d="M38,8H56v2H38Z" fill="#00b39d"/>
        <path id="Trazado_1000113" data-name="Trazado 1000113" d="M38,12H56v2H38Z" fill="#00b39d"/>
        <path id="Trazado_1000114" data-name="Trazado 1000114" d="M38,16H56v2H38Z" fill="#00b39d"/>
      </g>
      <path id="Trazado_1000115" data-name="Trazado 1000115" d="M15.5,40.959h2v6.083h-2Z" transform="translate(-7.009 3.311) rotate(-9.443)" fill="#e6e7e8"/>
      <path id="Trazado_1000116" data-name="Trazado 1000116" d="M7,39H9v6H7Z" fill="#1e81ce"/>
      <path id="Trazado_1000117" data-name="Trazado 1000117" d="M19,49v1H14V45h1a3.757,3.757,0,0,1,1.54.32A3.965,3.965,0,0,1,19,49Z" fill="#ffc477"/>
    </g>
  </g>
</svg>
