<svg xmlns="http://www.w3.org/2000/svg" width="84" height="84" viewBox="0 0 84 84">
  <g id="Grupo_1179844" data-name="Grupo 1179844" transform="translate(-186 -3155.033)">
    <rect id="Rectángulo_455765" data-name="Rectángulo 455765" width="84" height="84" rx="5" transform="translate(186 3155.033)" fill="#371b57"/>
    <g id="lisence" transform="translate(136.231 3103.631)">
      <path id="Trazado_999647" data-name="Trazado 999647" d="M140.1,64H97.634a1.634,1.634,0,1,0,0,3.267,3.266,3.266,0,0,1,2.3.964c1.372,1.372.964-1.634.964,48.041a3.267,3.267,0,0,1-3.267,3.267,1.633,1.633,0,1,0,0,3.267H140.1a6.534,6.534,0,0,0,6.534-6.534V70.534A6.534,6.534,0,0,0,140.1,64Z" transform="translate(-27.1)" fill="#e4ebf7"/>
      <path id="Trazado_999648" data-name="Trazado 999648" d="M182.967,106.667H209.1a1.633,1.633,0,0,1,1.633,1.634v9.8a1.633,1.633,0,0,1-1.633,1.633H182.967a1.633,1.633,0,0,1-1.634-1.633v-9.8a1.633,1.633,0,0,1,1.634-1.634Z" transform="translate(-99.365 -36.133)" fill="#79a1e8"/>
      <path id="Trazado_999649" data-name="Trazado 999649" d="M209.1,301.934H182.967a1.633,1.633,0,1,1,0-3.267H209.1a1.633,1.633,0,0,1,0,3.267Z" transform="translate(-99.365 -198.731)" fill="#4b31aa"/>
      <path id="Trazado_999650" data-name="Trazado 999650" d="M209.1,216.6H182.967a1.633,1.633,0,1,1,0-3.267H209.1a1.633,1.633,0,0,1,0,3.267Z" transform="translate(-99.365 -126.465)" fill="#4b31aa"/>
      <path id="Trazado_999651" data-name="Trazado 999651" d="M246.1,259.267h-9.8a1.634,1.634,0,0,1,0-3.267h9.8a1.634,1.634,0,1,1,0,3.267Z" transform="translate(-144.531 -162.597)" fill="#d6af0d"/>
      <g id="Grupo_1179714" data-name="Grupo 1179714" transform="translate(88.502 75.434)">
        <path id="Trazado_999652" data-name="Trazado 999652" d="M314.233,351.135a4.9,4.9,0,1,1,4.9-4.9A4.9,4.9,0,0,1,314.233,351.135Zm0-6.534a1.633,1.633,0,1,0,1.634,1.634A1.633,1.633,0,0,0,314.233,344.6Z" transform="translate(-296.265 -310.298)" fill="#f9d015"/>
        <path id="Trazado_999653" data-name="Trazado 999653" d="M227.267,140.3a1.633,1.633,0,1,1-1.633-1.634A1.633,1.633,0,0,1,227.267,140.3Z" transform="translate(-224 -138.667)" fill="#f9d015"/>
        <path id="Trazado_999654" data-name="Trazado 999654" d="M269.933,140.3a1.634,1.634,0,1,1-1.633-1.634A1.633,1.633,0,0,1,269.933,140.3Z" transform="translate(-260.132 -138.667)" fill="#f9d015"/>
        <path id="Trazado_999655" data-name="Trazado 999655" d="M312.6,140.3a1.634,1.634,0,1,1-1.634-1.634A1.633,1.633,0,0,1,312.6,140.3Z" transform="translate(-296.265 -138.667)" fill="#f9d015"/>
      </g>
      <g id="Grupo_1179715" data-name="Grupo 1179715" transform="translate(64 64)">
        <path id="Trazado_999656" data-name="Trazado 999656" d="M73.8,73.8H65.634A1.633,1.633,0,0,1,64,72.167V68.9a4.9,4.9,0,0,1,9.8,0Z" transform="translate(-64 -64)" fill="#79a1e8"/>
        <path id="Trazado_999657" data-name="Trazado 999657" d="M73.8,384H65.634A1.633,1.633,0,0,0,64,385.634V388.9a4.9,4.9,0,1,0,9.8,0Z" transform="translate(-64 -334.996)" fill="#79a1e8"/>
      </g>
    </g>
  </g>
</svg>
