<svg xmlns="http://www.w3.org/2000/svg" xmlns:xlink="http://www.w3.org/1999/xlink" width="346" height="293.301" viewBox="0 0 346 293.301">
  <defs>
    <clipPath id="clip-path">
      <rect id="Rectángulo_457566" data-name="Rectángulo 457566" width="289.451" height="273.189" fill="none"/>
    </clipPath>
    <clipPath id="clip-path-3">
      <path id="Trazado_999760" data-name="Trazado 999760" d="M208.564,210.971c-2.8,17.294,9.274,31.314,26.97,31.314s34.313-14.02,37.113-31.314-9.275-31.313-26.971-31.313-34.312,14.019-37.112,31.313" transform="translate(-208.161 -179.658)" fill="#99b8d0"/>
    </clipPath>
    <clipPath id="clip-path-4">
      <rect id="Rectángulo_457562" data-name="Rectángulo 457562" width="83.249" height="63.874" fill="#99b8d0"/>
    </clipPath>
    <clipPath id="clip-path-5">
      <rect id="Rectángulo_457563" data-name="Rectángulo 457563" width="64.299" height="49.269" fill="#99b8d0"/>
    </clipPath>
    <clipPath id="clip-path-7">
      <rect id="Rectángulo_457564" data-name="Rectángulo 457564" width="279.009" height="12.254" fill="none"/>
    </clipPath>
  </defs>
  <g id="Grupo_1179841" data-name="Grupo 1179841" transform="translate(-520.549 -2370)">
    <path id="Rectángulo_456106" data-name="Rectángulo 456106" d="M120,0H301a45,45,0,0,1,45,45V205a45,45,0,0,1-45,45H45A45,45,0,0,1,0,205V120A120,120,0,0,1,120,0Z" transform="translate(520.549 2370)" fill="#062f18" opacity="0.07"/>
    <g id="Grupo_1179771" data-name="Grupo 1179771" transform="translate(556.549 2390.112)">
      <g id="Grupo_1179770" data-name="Grupo 1179770" clip-path="url(#clip-path)">
        <g id="Grupo_1179756" data-name="Grupo 1179756">
          <g id="Grupo_1179755" data-name="Grupo 1179755" clip-path="url(#clip-path)">
            <path id="Trazado_999740" data-name="Trazado 999740" d="M253.389,219.693l9.4,111.776s.985,8.126-4.055,8.138c-8.287.02-41.245,0-41.245,0s6.237-2.761,6.161-5.934c-.089-3.741-10.987-115.038-10.987-115.038Z" transform="translate(-69.171 -71.113)" fill="#b76522"/>
            <path id="Trazado_999741" data-name="Trazado 999741" d="M213.494,335.252c1.63,0,33.109.1,41.179,0,3.517-.044,4.133-3.127,4.162-5.123.015-.957-9.663-114.5-9.663-114.5H208.6s10.983,114.483,10.986,115.038a4.672,4.672,0,0,1-.079.9c-.669,3.562-5.4,3.679-6.016,3.679" transform="translate(-67.85 -70.136)" fill="#ffb900"/>
            <rect id="Rectángulo_457560" data-name="Rectángulo 457560" width="42.635" height="3.376" transform="translate(138.857 265.161)" fill="#ecac3f"/>
            <path id="Trazado_999742" data-name="Trazado 999742" d="M221.856,353.277l.22,1.549,40.1,8.1-.551-6.542-.262-3.107Z" transform="translate(-72.161 -114.907)" fill="#141b25"/>
            <path id="Trazado_999743" data-name="Trazado 999743" d="M215.852,386.827c1.63,0,33.109.1,41.179,0,3.517-.044,4.133-3.127,4.162-5.123L221.287,374.2c.414,4.572.657,7.492.66,8.047a4.675,4.675,0,0,1-.079.9c-.669,3.562-5.4,3.679-6.016,3.679" transform="translate(-70.208 -121.711)" fill="#ca7c2e"/>
            <path id="Trazado_999744" data-name="Trazado 999744" d="M290.546,348.171H103.688a7.219,7.219,0,0,1-7.17-8.062l.3-2.531H299.168l-.316,3.093a8.349,8.349,0,0,1-8.305,7.5" transform="translate(-31.377 -109.801)" fill="#b76522"/>
            <path id="Trazado_999745" data-name="Trazado 999745" d="M407.928,136.218h0L393.985,272.655l-5.2-.549,8.425-142.049h3.437a7.379,7.379,0,0,1,7.278,6.16" transform="translate(-126.457 -42.303)" fill="#ca7c2e"/>
            <path id="Trazado_999746" data-name="Trazado 999746" d="M308.858,137.4,294.18,271.573a6.62,6.62,0,0,1-6.581,5.9H103.534a6.62,6.62,0,0,1-6.575-7.394L112.754,135.9a6.62,6.62,0,0,1,6.575-5.846H302.278a6.62,6.62,0,0,1,6.581,7.34" transform="translate(-31.522 -42.303)" fill="#ffb900"/>
            <path id="Trazado_999747" data-name="Trazado 999747" d="M96.836,328.554l2.4-20.666H296.467l-2.324,21.452a6.7,6.7,0,0,1-6.658,5.975H102.859a6.063,6.063,0,0,1-6.023-6.761" transform="translate(-31.484 -100.144)" fill="#ca7c2e"/>
            <path id="Trazado_999748" data-name="Trazado 999748" d="M170.889,140.074H320.563a3.129,3.129,0,0,1,3.169,3.646l-.551,4.208H169.863Z" transform="translate(-55.25 -45.561)" fill="#3e6faf"/>
            <path id="Trazado_999749" data-name="Trazado 999749" d="M310.86,147.928l-.673,5.153h-178.2l.947-8.327a5.5,5.5,0,0,1,5.292-4.68h22.086a4.017,4.017,0,0,1,4.068,4.68l-.123.947c-.338,2.585,1.945,2.227,4.53,2.227Z" transform="translate(-42.929 -45.561)" fill="#568fcc"/>
            <path id="Trazado_999750" data-name="Trazado 999750" d="M290.614,251.969H117.467a2.776,2.776,0,0,1-2.812-3.235l11.682-89.382h178.2l-10.27,89.382a3.8,3.8,0,0,1-3.658,3.235" transform="translate(-37.284 -51.831)" fill="#fff"/>
            <path id="Trazado_999751" data-name="Trazado 999751" d="M322.405,146.932H189.8a1.7,1.7,0,0,1-1.725-1.984,2.332,2.332,0,0,1,2.244-1.984h132.6a1.7,1.7,0,0,1,1.725,1.984,2.331,2.331,0,0,1-2.244,1.984" transform="translate(-61.169 -46.501)" fill="#c7f0ff"/>
            <path id="Trazado_999752" data-name="Trazado 999752" d="M384.667,145.214a.911.911,0,0,0,.922,1.061,1.248,1.248,0,0,0,1.2-1.061.911.911,0,0,0-.922-1.061A1.246,1.246,0,0,0,384.667,145.214Z" transform="translate(-125.114 -46.887)" fill="none" stroke="#ba86b0" stroke-linecap="round" stroke-linejoin="round" stroke-width="0.536"/>
            <line id="Línea_3245" data-name="Línea 3245" x1="0.621" y2="0.549" transform="translate(259.137 99.067)" fill="none" stroke="#ba86b0" stroke-linecap="round" stroke-linejoin="round" stroke-width="0.536"/>
            <path id="Trazado_999753" data-name="Trazado 999753" d="M161.44,145.374a1.517,1.517,0,0,0,1.536,1.767,2.077,2.077,0,0,0,2-1.767,1.518,1.518,0,0,0-1.536-1.767,2.077,2.077,0,0,0-2,1.767" transform="translate(-52.505 -46.71)" fill="#2a4579"/>
            <path id="Trazado_999754" data-name="Trazado 999754" d="M152.138,145.374a1.517,1.517,0,0,0,1.536,1.767,2.077,2.077,0,0,0,2-1.767,1.517,1.517,0,0,0-1.536-1.767,2.077,2.077,0,0,0-2,1.767" transform="translate(-49.479 -46.71)" fill="#f0c52f"/>
            <path id="Trazado_999755" data-name="Trazado 999755" d="M142.836,145.374a1.517,1.517,0,0,0,1.536,1.767,2.078,2.078,0,0,0,2-1.767,1.518,1.518,0,0,0-1.536-1.767,2.077,2.077,0,0,0-2,1.767" transform="translate(-46.454 -46.71)" fill="#fff"/>
          </g>
        </g>
        <g id="Grupo_1179764" data-name="Grupo 1179764" transform="translate(140.454 121.222)">
          <g id="Grupo_1179763" data-name="Grupo 1179763" clip-path="url(#clip-path-3)">
            <path id="Trazado_999756" data-name="Trazado 999756" d="M272.647,210.971c-2.8,17.294-19.416,31.313-37.113,31.313s-29.772-14.02-26.971-31.313,19.416-31.313,37.113-31.313,29.772,14.02,26.971,31.313" transform="translate(-208.161 -179.658)" fill="#99b8d0"/>
            <g id="Grupo_1179759" data-name="Grupo 1179759" transform="translate(-9.18 -0.624)" opacity="0.3">
              <g id="Grupo_1179758" data-name="Grupo 1179758">
                <g id="Grupo_1179757" data-name="Grupo 1179757" clip-path="url(#clip-path-4)">
                  <path id="Trazado_999757" data-name="Trazado 999757" d="M260.341,210.863c-2.82,17.418-9.2,31.537-14.251,31.537s-6.857-14.12-4.036-31.537,9.2-31.537,14.251-31.537S263.161,193.446,260.341,210.863Z" transform="translate(-209.572 -178.926)" fill="#99b8d0" stroke="#fff" stroke-linecap="round" stroke-linejoin="round" stroke-width="1.186"/>
                  <path id="Trazado_999758" data-name="Trazado 999758" d="M268.493,210.863c-2.82,17.418-15.918,31.537-29.254,31.537s-21.86-14.12-19.039-31.537,15.918-31.537,29.254-31.537S271.314,193.446,268.493,210.863Z" transform="translate(-202.722 -178.926)" fill="#99b8d0" stroke="#fff" stroke-linecap="round" stroke-linejoin="round" stroke-width="1.186"/>
                  <line id="Línea_3246" data-name="Línea 3246" x2="73.667" transform="translate(9.182 4.822)" fill="none" stroke="#fff" stroke-linecap="round" stroke-linejoin="round" stroke-width="1.186"/>
                  <line id="Línea_3247" data-name="Línea 3247" x2="73.668" transform="translate(7.367 16.028)" fill="none" stroke="#fff" stroke-linecap="round" stroke-linejoin="round" stroke-width="1.186"/>
                  <line id="Línea_3248" data-name="Línea 3248" x2="73.667" transform="translate(4.791 31.937)" fill="none" stroke="#fff" stroke-linecap="round" stroke-linejoin="round" stroke-width="1.186"/>
                  <line id="Línea_3249" data-name="Línea 3249" x2="73.668" transform="translate(2.214 47.846)" fill="none" stroke="#fff" stroke-linecap="round" stroke-linejoin="round" stroke-width="1.186"/>
                  <line id="Línea_3250" data-name="Línea 3250" x2="73.668" transform="translate(0.4 59.052)" fill="none" stroke="#fff" stroke-linecap="round" stroke-linejoin="round" stroke-width="1.186"/>
                </g>
              </g>
            </g>
            <g id="Grupo_1179762" data-name="Grupo 1179762" transform="translate(0.592 13.355)" opacity="0.4">
              <g id="Grupo_1179761" data-name="Grupo 1179761">
                <g id="Grupo_1179760" data-name="Grupo 1179760" clip-path="url(#clip-path-5)">
                  <path id="Trazado_999759" data-name="Trazado 999759" d="M272.931,217.414c-2.8,17.29-19.413,31.307-37.105,31.307-13.841,0-24.239-8.576-26.789-20.574,4.483,8.063,13.222,13.332,24.076,13.332,17.692,0,34.305-14.016,37.1-31.307a29.425,29.425,0,0,0-.177-10.721,27.473,27.473,0,0,1,2.891,17.963" transform="translate(-209.038 -199.451)" fill="#99b8d0"/>
                </g>
              </g>
            </g>
          </g>
        </g>
        <g id="Grupo_1179769" data-name="Grupo 1179769">
          <g id="Grupo_1179768" data-name="Grupo 1179768" clip-path="url(#clip-path)">
            <path id="Trazado_999761" data-name="Trazado 999761" d="M63.795,384.843l11.348,0-1.09-12.047-10.516,0Z" transform="translate(-20.666 -121.255)" fill="#e39992"/>
            <path id="Trazado_999762" data-name="Trazado 999762" d="M63.539,372.793l.094,4.445a83.464,83.464,0,0,0,10.78-.474l-.36-3.974Z" transform="translate(-20.667 -121.254)" fill="#141b25"/>
            <path id="Trazado_999763" data-name="Trazado 999763" d="M84.181,392.658a1.933,1.933,0,0,0,1.011-2.253c-.487-2.314-6.523-2.781-8.374-4.309-1.938-1.6-3.829-4.734-6.225-4.341s-2.295,2.906-1.835,4.016.335,1.339.335,1.339-5.7-2.121-6.3-2.578-1.363,8.131-1.363,8.131h4.245s-.477-2.09.245-2.123,2.008,2.122,2.008,2.122Z" transform="translate(-19.981 -124.159)" fill="#2a4579"/>
            <path id="Trazado_999764" data-name="Trazado 999764" d="M86.233,389.822a25.194,25.194,0,0,0-3.156-.286" transform="translate(-27.022 -126.701)" fill="none" stroke="#141b25" stroke-linecap="round" stroke-linejoin="round" stroke-width="0.343"/>
            <path id="Trazado_999765" data-name="Trazado 999765" d="M19.449,384.845l11.35,0,.486-12.05-10.517,0Z" transform="translate(-6.326 -121.255)" fill="#e39992"/>
            <path id="Trazado_999766" data-name="Trazado 999766" d="M21.171,372.793l-.488,4.446a84.594,84.594,0,0,0,10.844-.474l.161-3.974Z" transform="translate(-6.727 -121.254)" fill="#141b25"/>
            <path id="Trazado_999767" data-name="Trazado 999767" d="M38.76,392.661a2.246,2.246,0,0,0,1.306-2.254c-.184-2.314-6.16-2.781-7.811-4.31-1.729-1.6-3.21-4.734-5.658-4.341s-2.675,2.907-2.361,4.017.16,1.339.16,1.339-5.42-2.121-5.961-2.578-2.428,8.132-2.428,8.132h4.245s-.2-2.09.523-2.123,1.731,2.122,1.731,2.122Z" transform="translate(-5.206 -124.159)" fill="#2a4579"/>
            <path id="Trazado_999768" data-name="Trazado 999768" d="M41.874,389.825a24.34,24.34,0,0,0-3.119-.287" transform="translate(-12.605 -126.701)" fill="none" stroke="#141b25" stroke-linecap="round" stroke-linejoin="round" stroke-width="0.343"/>
            <path id="Trazado_999769" data-name="Trazado 999769" d="M17.794,330.274c8.782-72.059,10.987-95.113,10.987-95.113l32.749.253L60.487,330.48H46.426c-1.2-29.345-1.407-56.182-2.192-71l-12.38,70.8Z" transform="translate(-5.788 -76.489)" fill="#5b72bc"/>
            <path id="Trazado_999770" data-name="Trazado 999770" d="M56.98,269.345c.785,14.82.987,41.659,2.194,71h4.257l-4.621-74.2-1.077-.648c-.226,1.3-.477,2.6-.752,3.853" transform="translate(-18.533 -86.354)" fill="#3b518a"/>
            <path id="Trazado_999771" data-name="Trazado 999771" d="M59.657,235.369s-.327,13.538-2.677,24.175" transform="translate(-18.533 -76.556)" fill="none" stroke="#141b25" stroke-linecap="round" stroke-linejoin="round" stroke-width="0.339"/>
            <path id="Trazado_999772" data-name="Trazado 999772" d="M63.185,235.369s-.022,8.295-.533,11.83-3.337,2.757-3.337,2.757" transform="translate(-19.293 -76.556)" fill="none" stroke="#141b25" stroke-linecap="round" stroke-linejoin="round" stroke-width="0.339"/>
            <line id="Línea_3251" data-name="Línea 3251" x1="7.156" y1="4.281" transform="translate(35.521 176.947)" fill="none" stroke="#141b25" stroke-linecap="round" stroke-linejoin="round" stroke-width="0.339"/>
            <path id="Trazado_999773" data-name="Trazado 999773" d="M33.368,239.854c4.177,1.086,6.245-.316,12.512-.7,3.8-.231,7.163.916,9.781,1.557,5.66,1.388,9.334.376,10.879-.361l.056-4.937-11.85-.1-2.768-.016-18.13-.146s-.182,1.833-.481,4.7" transform="translate(-10.853 -76.487)" fill="#141b25"/>
            <path id="Trazado_999774" data-name="Trazado 999774" d="M117.668,179.977s.279-.385-.152-1-.885-.41-.885-.41a1.226,1.226,0,0,0-.443-1.281.909.909,0,0,0-1.011-.138c.69-.862,1.646-2.078,2.233-2.905,1-1.412,1.289-2.132.893-2.465s-.7-.2-1.565.753-4.231,4.786-4.231,4.786l.186.088a25.177,25.177,0,0,1-2.838,3.731l-15.237,12.93-10.408-10.6-5.9,9.682S89.821,204.223,94.4,205.381c4.13,1.044,17.244-17.9,18.038-18.873a3.725,3.725,0,0,1,2.279-1.6c1.534-.408,3.1-2.633,3.418-3.464.288-.748-.47-1.468-.47-1.468" transform="translate(-25.471 -55.819)" fill="#e39992"/>
            <path id="Trazado_999775" data-name="Trazado 999775" d="M129.236,182.966l-.249.32a4.654,4.654,0,0,1,1.361,2.544,1.815,1.815,0,0,0,2.71.994,5.347,5.347,0,0,0,1.027-.8s-.789.735-1.353.485a.661.661,0,0,1-.348-1.024.887.887,0,0,1-.829-.3.939.939,0,0,1-.1-.936.882.882,0,0,1-.874-.239c-.393-.4-.212-.6-.212-.6a1.713,1.713,0,0,1-1.134-.449" transform="translate(-41.954 -59.512)" fill="#e39992"/>
            <path id="Trazado_999776" data-name="Trazado 999776" d="M133.74,181.92a12.908,12.908,0,0,1-2.825,2.955" transform="translate(-42.581 -59.171)" fill="none" stroke="#141b25" stroke-linecap="round" stroke-linejoin="round" stroke-width="0.279"/>
            <path id="Trazado_999777" data-name="Trazado 999777" d="M134.9,184.009a7.356,7.356,0,0,1-2.554,2.275s-.721.288-1.046-.607" transform="translate(-42.708 -59.851)" fill="none" stroke="#141b25" stroke-linecap="round" stroke-linejoin="round" stroke-width="0.279"/>
            <path id="Trazado_999778" data-name="Trazado 999778" d="M135.46,187.4s-1.7,1.967-2.4.41" transform="translate(-43.278 -60.955)" fill="none" stroke="#141b25" stroke-linecap="round" stroke-linejoin="round" stroke-width="0.279"/>
            <path id="Trazado_999779" data-name="Trazado 999779" d="M131.885,179.854a24,24,0,0,1-2.053,3.047" transform="translate(-42.229 -58.499)" fill="none" stroke="#141b25" stroke-linecap="round" stroke-linejoin="round" stroke-width="0.279"/>
            <path id="Trazado_999780" data-name="Trazado 999780" d="M125.425,184.879s-1.277-2.064-.3-3.5c.74-1.088,2.283-1.833,3.025-1.273.685.518,1.822.6,1.965,1.414.161.922-1.416,1.254-2.254.453l-.249.32a4.156,4.156,0,0,1,1.367,2.666c.043,1.528-1.142,2.012-2.192,1.383a3.247,3.247,0,0,1-1.362-1.462" transform="translate(-40.578 -58.519)" fill="#e39992"/>
            <path id="Trazado_999781" data-name="Trazado 999781" d="M129.066,179.931c.685.518,2.246.783,2.424,1.594.188.853-1.416,1.254-2.254.454l-.249.319a4.157,4.157,0,0,1,1.367,2.667" transform="translate(-41.954 -58.524)" fill="none" stroke="#141b25" stroke-linecap="round" stroke-linejoin="round" stroke-width="0.279"/>
            <path id="Trazado_999782" data-name="Trazado 999782" d="M125.058,185.726a4.864,4.864,0,0,0,1.559,2.472" transform="translate(-40.676 -60.409)" fill="none" stroke="#141b25" stroke-linecap="round" stroke-linejoin="round" stroke-width="0.279"/>
            <path id="Trazado_999783" data-name="Trazado 999783" d="M69.068,174.152a13.325,13.325,0,0,1,5.152,3.151c2.645,2.786,6.321,6.65,7.886,8.257,0,0,.1,1.8-2.266,5.606a45.419,45.419,0,0,1-4.5,5.361l-9.967-7.4Z" transform="translate(-21.263 -56.645)" fill="#fff"/>
            <path id="Trazado_999784" data-name="Trazado 999784" d="M66.475,213.622s1.173,1.785,1.042,2.432-2.528,3.818-16.076,1.285c-7.46-1.395-18.251,1.566-18.333.741a22.36,22.36,0,0,0-1.4-3.633c-.5-1.263,1.645-2.875,1.645-2.875.05-2.094.5-13.375.5-13.375l.192-22.243c3.531-1.522,9-3.355,9-3.355l11.779.111a10.758,10.758,0,0,1,9.32,8.662,36.737,36.737,0,0,1,.909,8.083,103.526,103.526,0,0,0,1.011,19.727c2.488,1.9.42,4.44.42,4.44" transform="translate(-10.289 -56.14)" fill="#a50101"/>
            <path id="Trazado_999785" data-name="Trazado 999785" d="M63.414,144.019s3.8-.337,4.843-3.221-1.32-3.774-1.32-3.774a6.4,6.4,0,0,0,.8-4.97c-.706-2.884-4.817-3.835-8.744,0a2.307,2.307,0,0,0-2.148-2.178c-2.148-.338-2.761,1.871-4.571,3.467a5.976,5.976,0,0,0-5.649,2.884c-1.837,3.313-1.138,7.351,0,11.034s16.79-3.241,16.79-3.241" transform="translate(-14.797 -42.128)" fill="#1c212a"/>
            <path id="Trazado_999786" data-name="Trazado 999786" d="M55.643,135.733c5.292-.294,8.832,2.357,8.39,7.105-.574,6.168.659,7.363-.3,10.013-1.053,2.907-3.735,4.376-7.78,4.351-5.29-.032-9.292-3.2-9.036-11.249.238-7.473,4.44-9.983,8.726-10.22" transform="translate(-15.256 -44.142)" fill="#e39992"/>
            <path id="Trazado_999787" data-name="Trazado 999787" d="M58.61,168.221c0-.522-.012-4.669-.012-4.669l-11.429-7.741.291,11.328,8.317,4.3Z" transform="translate(-15.342 -50.679)" fill="#e39992"/>
            <path id="Trazado_999788" data-name="Trazado 999788" d="M60.423,166.727l-.016,2.5c-5.748.361-7.543-3.428-7.639-3.66a9.495,9.495,0,0,0,5.094,1.347,12.607,12.607,0,0,0,2.515-.217Z" transform="translate(-17.164 -53.852)" fill="#1c212a"/>
            <path id="Trazado_999789" data-name="Trazado 999789" d="M46.965,148.077s3.4.956,3.649-3.544c0,0,1.213.094,2.005-1.7s2.063.35,3.6.211,4.71-2.694,7.811-.3c.7-4.537-3.228-7.617-8.521-7.313-4.291.233-8.6,3.057-8.594,10.427,0,.793-.011,1.527.047,2.227" transform="translate(-15.261 -44.041)" fill="#1c212a"/>
            <path id="Trazado_999790" data-name="Trazado 999790" d="M48.8,150.713a2.386,2.386,0,0,1-2.1,2.589,2.666,2.666,0,0,1,.032-5.2,2.386,2.386,0,0,1,2.069,2.615" transform="translate(-14.516 -48.17)" fill="#e39992"/>
            <path id="Trazado_999791" data-name="Trazado 999791" d="M46.65,150.307a1.783,1.783,0,0,0,1.283,2.222" transform="translate(-15.156 -48.889)" fill="none" stroke="#1c212a" stroke-linecap="round" stroke-linejoin="round" stroke-width="0.405"/>
            <path id="Trazado_999792" data-name="Trazado 999792" d="M47.949,150.769a1.588,1.588,0,0,0-.811,1.335" transform="translate(-15.332 -49.039)" fill="none" stroke="#1c212a" stroke-linecap="round" stroke-linejoin="round" stroke-width="0.405"/>
            <path id="Trazado_999793" data-name="Trazado 999793" d="M65.646,149.609l-.438,1.211.617,1.7a.342.342,0,0,1-.316.459l-1.5.024" transform="translate(-20.821 -48.662)" fill="none" stroke="#3d231f" stroke-linecap="round" stroke-linejoin="round" stroke-width="0.331"/>
            <path id="Trazado_999794" data-name="Trazado 999794" d="M57.253,148.258s1.434-1.284,2.673-.58" transform="translate(-18.622 -47.965)" fill="none" stroke="#1c212a" stroke-linecap="round" stroke-linejoin="round" stroke-width="0.827"/>
            <path id="Trazado_999795" data-name="Trazado 999795" d="M67.848,147.592s.848-.5,2.109.754" transform="translate(-22.068 -47.974)" fill="none" stroke="#1c212a" stroke-linecap="round" stroke-linejoin="round" stroke-width="0.827"/>
            <path id="Trazado_999796" data-name="Trazado 999796" d="M63.163,156.805a5.36,5.36,0,0,1-.868,2.5s-3.209.363-3.3-2.835a.5.5,0,0,1,.076-.286.517.517,0,0,1,.733-.167,4.843,4.843,0,0,0,1.963.785,2.17,2.17,0,0,0,.23.031,1.33,1.33,0,0,0,.235.016c.082,0,.162.01.242.008a1.4,1.4,0,0,0,.248-.007,3.02,3.02,0,0,0,.441-.045" transform="translate(-19.188 -50.717)" fill="#3d221f"/>
            <path id="Trazado_999797" data-name="Trazado 999797" d="M62.825,156.85s-.219.625-.708.756a3.383,3.383,0,0,1-3.009-1.422.516.516,0,0,1,.733-.167,4.847,4.847,0,0,0,1.963.785,1.306,1.306,0,0,0,.231.032,1.266,1.266,0,0,0,.235.016,4.044,4.044,0,0,0,.49,0,.212.212,0,0,0,.065,0" transform="translate(-19.225 -50.718)" fill="#fff"/>
            <path id="Trazado_999798" data-name="Trazado 999798" d="M62.338,160.33a3.127,3.127,0,0,1-2.484-1.026,1.947,1.947,0,0,1,1.331-.225,1.779,1.779,0,0,1,1.153,1.252" transform="translate(-19.468 -51.728)" fill="#6c2e28"/>
            <path id="Trazado_999799" data-name="Trazado 999799" d="M60.219,150.885a.848.848,0,1,1-.862-.835.848.848,0,0,1,.862.835" transform="translate(-19.035 -48.805)" fill="#1c212a"/>
            <path id="Trazado_999800" data-name="Trazado 999800" d="M67.848,150.734a.848.848,0,1,0,.862-.834.848.848,0,0,0-.862.834" transform="translate(-22.068 -48.756)" fill="#1c212a"/>
            <path id="Trazado_999801" data-name="Trazado 999801" d="M47.111,170.078l-.883,2.006,4.521,4.3a1.25,1.25,0,0,0,1.882-.184l1.6-2.261Z" transform="translate(-15.036 -55.32)" fill="#fff"/>
            <path id="Trazado_999802" data-name="Trazado 999802" d="M57.623,175.807l1.241,2.139-2.208-.773Z" transform="translate(-18.428 -57.183)" fill="#c7f0ff"/>
            <path id="Trazado_999803" data-name="Trazado 999803" d="M63.12,170.99l-2.013,3.25,1.051,2.088a.492.492,0,0,0,.924-.142l.635-3.915Z" transform="translate(-19.876 -55.616)" fill="#fff"/>
            <path id="Trazado_999804" data-name="Trazado 999804" d="M60.723,175.807l-.8,2.139,1.567-.607Z" transform="translate(-19.492 -57.183)" fill="#c7f0ff"/>
            <path id="Trazado_999805" data-name="Trazado 999805" d="M28.047,227.123a6.973,6.973,0,0,1-4.986,6.181S9.238,218.579,6.593,215.327s-3.5-7.233-1.349-11.045c2.152-3.785,9.6-12.512,11.587-14.489.861-.407,2.432,1.121,3.467,4.567a36.721,36.721,0,0,1,1.529,6.692c.034.27.074.553.128.864-2.524,2.6-7.326,7.536-7.326,7.536Z" transform="translate(-1.312 -61.711)" fill="#e39992"/>
            <path id="Trazado_999806" data-name="Trazado 999806" d="M25.478,244.426a15.725,15.725,0,0,0,6.1-5.8.573.573,0,0,1,.906-.112c.416.42.847.822,1.211,1.146a.578.578,0,0,1,.13.706,15.54,15.54,0,0,1-6.521,6.382.6.6,0,0,1-.692-.1c-.367-.364-.837-.829-1.294-1.316a.582.582,0,0,1,.163-.91" transform="translate(-8.184 -77.524)" fill="#519074"/>
            <path id="Trazado_999807" data-name="Trazado 999807" d="M28.47,246a1.964,1.964,0,1,1,2.476,1.26A1.965,1.965,0,0,1,28.47,246" transform="translate(-9.229 -79.177)" fill="#fff"/>
            <path id="Trazado_999808" data-name="Trazado 999808" d="M33.866,186.068c.382,6.428-2.372,8.9-2.372,8.9a115.278,115.278,0,0,1-8.24,8.232c-.215.171-3.282-2.16-5.061-5.619-1.566-3.046-1.9-7.242-1.651-7.521,4.421-4.954,11.218-12.091,12.837-12.668,0,0,3.985.231,4.486,8.676" transform="translate(-5.357 -57.699)" fill="#fff"/>
            <path id="Trazado_999809" data-name="Trazado 999809" d="M60.521,178.293s.588,6.982.588,11.884H58.632s-.022-8.371-.544-11.857l1.241.434Z" transform="translate(-18.894 -57.992)" fill="#fff"/>
            <path id="Trazado_999810" data-name="Trazado 999810" d="M112.835,72.783H45.6A3.131,3.131,0,0,1,42.431,69L49.893,23.05a4.621,4.621,0,0,1,4.392-3.778h67.239a3.131,3.131,0,0,1,3.165,3.778L117.226,69a4.62,4.62,0,0,1-4.392,3.779" transform="translate(-13.785 -6.268)" fill="#3e6faf"/>
            <path id="Trazado_999811" data-name="Trazado 999811" d="M110.893,70.436h-65A3.009,3.009,0,0,1,42.847,66.8l7.129-43.9A4.442,4.442,0,0,1,54.2,19.272h65a3.009,3.009,0,0,1,3.042,3.631l-7.129,43.9a4.442,4.442,0,0,1-4.221,3.631" transform="translate(-13.921 -6.268)" fill="#568fcc"/>
            <path id="Trazado_999812" data-name="Trazado 999812" d="M122.244,19.272h-65A4.442,4.442,0,0,0,53.018,22.9l-.865,5.326H124.42l.865-5.326a3.009,3.009,0,0,0-3.042-3.631" transform="translate(-16.963 -6.268)" fill="#fff"/>
            <path id="Trazado_999813" data-name="Trazado 999813" d="M84.659,25.317a2.646,2.646,0,0,1-2.515,2.163,1.793,1.793,0,0,1-1.812-2.163,2.646,2.646,0,0,1,2.515-2.163,1.792,1.792,0,0,1,1.812,2.163" transform="translate(-26.12 -7.531)" fill="#cf4c95"/>
            <path id="Trazado_999814" data-name="Trazado 999814" d="M74.2,25.317a2.646,2.646,0,0,1-2.515,2.163,1.793,1.793,0,0,1-1.812-2.163,2.646,2.646,0,0,1,2.515-2.163A1.792,1.792,0,0,1,74.2,25.317" transform="translate(-22.716 -7.531)" fill="#519074"/>
            <path id="Trazado_999815" data-name="Trazado 999815" d="M63.733,25.317a2.646,2.646,0,0,1-2.515,2.163,1.793,1.793,0,0,1-1.812-2.163,2.646,2.646,0,0,1,2.515-2.163,1.792,1.792,0,0,1,1.812,2.163" transform="translate(-19.313 -7.531)" fill="#f0c52f"/>
            <path id="Trazado_999816" data-name="Trazado 999816" d="M76.926,54.364l5.337,11.791,29.519-17.644" transform="translate(-25.021 -15.779)" fill="none" stroke="#fff" stroke-linecap="round" stroke-linejoin="round" stroke-width="12"/>
            <path id="Trazado_999817" data-name="Trazado 999817" d="M271.507,28.47H245.126c-2.818,0-4.629-2.857-2.651-5.263L260.531,1.971c3.1-3.77,7.845-1.618,9.349,2.152l6.959,17.445c1.206,3.024-1.791,6.9-5.333,6.9" transform="translate(-78.597 0)" fill="#b76522"/>
            <path id="Trazado_999818" data-name="Trazado 999818" d="M271.471,27.2H244.538c-2.819,0-3.9-3.086-1.921-5.492l15.5-18.855c3.1-3.771,8.575-3.771,10.079,0l7.521,18.855c.959,2.405-1.424,5.492-4.243,5.492" transform="translate(-78.585 -0.008)" fill="#ecac3f"/>
            <path id="Trazado_999819" data-name="Trazado 999819" d="M265.061,23.888a2.433,2.433,0,0,1,2.4-1.864,1.484,1.484,0,0,1,1.616,1.864,2.5,2.5,0,0,1-2.414,1.906,1.516,1.516,0,0,1-1.607-1.906m2.795-12.921h3.9l-2.673,9.57h-2.6Z" transform="translate(-86.2 -3.567)" fill="#fff"/>
            <path id="Trazado_999820" data-name="Trazado 999820" d="M394.786,89.39l-2.329-3.9-27.9-8.569L329.019,89.938s-20.262,52.441,19.42,61.24c43.324-8.8,46.346-61.789,46.346-61.789" transform="translate(-105.334 -25.019)" fill="#3e6faf"/>
            <path id="Trazado_999821" data-name="Trazado 999821" d="M391.523,83.344,361.377,70.326,325.841,83.344s-19.646,54.375,20.035,63.173c43.324-8.8,45.648-63.173,45.648-63.173" transform="translate(-104.401 -22.874)" fill="#fff"/>
            <path id="Trazado_999822" data-name="Trazado 999822" d="M389.939,86.55,362.188,74.2,329.325,86.55s-17.31,50.456,18.445,58.613c39.132-8.158,42.17-58.613,42.17-58.613" transform="translate(-105.754 -24.136)" fill="#568fcc"/>
            <path id="Trazado_999823" data-name="Trazado 999823" d="M355.571,115.652,360.3,97.037a8.084,8.084,0,0,1,7.84-6.1,3.459,3.459,0,0,1,3.385,4.171l-1.916,8.865,6.226,1.841,1.978-9.383a9.884,9.884,0,0,0-9.672-11.919,14.5,14.5,0,0,0-14.068,10.942l-4.689,18.19Z" transform="translate(-113.639 -27.489)" fill="#fff"/>
            <path id="Trazado_999824" data-name="Trazado 999824" d="M380.1,84.8a9.894,9.894,0,0,1,6.164,11.28l-1.921,9.389,1.482.437,1.978-9.382A9.889,9.889,0,0,0,380.1,84.8" transform="translate(-123.631 -27.583)" fill="#c7f0ff"/>
            <path id="Trazado_999825" data-name="Trazado 999825" d="M385.568,113.9a.851.851,0,0,0-.248-.132,2.785,2.785,0,0,1-1.166-.781c-.87-.921-2.159-3.609-2.984-3.609s-1.86,1.955-1.86,3.04S380.7,113.9,380.7,113.9Z" transform="translate(-123.374 -35.578)" fill="#7bb6ed"/>
            <path id="Trazado_999826" data-name="Trazado 999826" d="M356.06,117.209l1.685.546,4.726-18.614a8.081,8.081,0,0,1,7.84-6.1,3.457,3.457,0,0,1,3.418,3.982c.661-3.827-1.795-5.526-3.295-5.905a8.427,8.427,0,0,0-9.3,5.748c-1.8,4.879-4.494,17.559-5.074,20.341" transform="translate(-115.812 -29.592)" fill="#c7f0ff"/>
            <path id="Trazado_999827" data-name="Trazado 999827" d="M355.545,128.482a.85.85,0,0,0-.248-.132,2.785,2.785,0,0,1-1.166-.781c-.87-.921-2.159-3.609-2.984-3.609s-1.86,1.955-1.86,3.04,1.395,1.481,1.395,1.481Z" transform="translate(-113.609 -40.32)" fill="#272626"/>
            <path id="Trazado_999828" data-name="Trazado 999828" d="M347.369,119.139a3.458,3.458,0,0,0-3.026,2.717l-4.884,21.295c-.341,1.488.46,2.683,1.79,2.671l24.221-.223a3.456,3.456,0,0,0,3.026-2.715l4.885-21.295c.341-1.49-.46-2.685-1.79-2.673Z" transform="translate(-110.387 -38.679)" fill="#ecac3f"/>
            <path id="Trazado_999829" data-name="Trazado 999829" d="M341.614,145.987l24.221-.223a3.458,3.458,0,0,0,3.026-2.715l4.884-21.295a2.606,2.606,0,0,0-.072-1.52,1.8,1.8,0,0,0-.609-.814l3.823,2.81a2.2,2.2,0,0,1,.681,2.333l-4.885,21.3a3.457,3.457,0,0,1-3.026,2.715l-24.221.223a1.881,1.881,0,0,1-.87-.194,1.715,1.715,0,0,1-.239-.146l-3.823-2.81a1.817,1.817,0,0,0,1.109.34" transform="translate(-110.753 -38.843)" fill="#ca7c2e"/>
            <path id="Trazado_999830" data-name="Trazado 999830" d="M339.361,144.155h25.463a1.12,1.12,0,0,0,.991-.885l5.057-22.384a.728.728,0,0,0-.233-.775l1.089.787a.729.729,0,0,1,.234.774L366.9,144.057a1.119,1.119,0,0,1-.991.885H340.45a.6.6,0,0,1-.358-.111L339,144.044a.6.6,0,0,0,.358.111" transform="translate(-110.264 -39.068)" fill="#f5d77b"/>
            <path id="Trazado_999831" data-name="Trazado 999831" d="M344.693,119.948a1.121,1.121,0,0,0-.991.885l-5.057,22.384a.655.655,0,0,0,.592.885H364.7a1.121,1.121,0,0,0,.991-.885l5.057-22.384a.655.655,0,0,0-.591-.885Z" transform="translate(-110.14 -39.014)" fill="#fff"/>
            <path id="Trazado_999832" data-name="Trazado 999832" d="M362.093,125.069c1.844,0,2.953,1.705,2.478,3.808a5.138,5.138,0,0,1-2.9,3.533,14.655,14.655,0,0,1,.284,8.029h-6.675a20.3,20.3,0,0,1,3.912-8.029,3.033,3.033,0,0,1-1.3-3.533,4.777,4.777,0,0,1,4.2-3.808" transform="translate(-115.559 -40.68)" fill="#ca7c2e"/>
            <path id="Trazado_999833" data-name="Trazado 999833" d="M362.655,125.412a4.777,4.777,0,0,0-4.2,3.808,3.033,3.033,0,0,0,1.3,3.533,20.393,20.393,0,0,0-3.828,7.686h-.646a20.3,20.3,0,0,1,3.912-8.029,3.032,3.032,0,0,1-1.3-3.532,4.778,4.778,0,0,1,4.2-3.808,2.48,2.48,0,0,1,1.6.555,2.6,2.6,0,0,0-1.042-.212" transform="translate(-115.559 -40.68)" fill="#ecac3f"/>
            <line id="Línea_3252" data-name="Línea 3252" y1="1.644" x2="0.38" transform="translate(258.434 40.141)" fill="none" stroke="#364d90" stroke-linecap="round" stroke-linejoin="round" stroke-width="1.5"/>
            <line id="Línea_3253" data-name="Línea 3253" y1="22.551" x2="5.216" transform="translate(259.51 14.583)" fill="none" stroke="#364d90" stroke-linecap="round" stroke-linejoin="round" stroke-width="1.5" stroke-dasharray="4.574 4.574"/>
            <path id="Trazado_999834" data-name="Trazado 999834" d="M392.223,18.593l.38-1.644h-1.687" transform="translate(-127.149 -5.513)" fill="none" stroke="#364d90" stroke-linecap="round" stroke-linejoin="round" stroke-width="1.5"/>
            <line id="Línea_3254" data-name="Línea 3254" x1="55.272" transform="translate(204.929 11.436)" fill="none" stroke="#364d90" stroke-linecap="round" stroke-linejoin="round" stroke-width="1.5" stroke-dasharray="5.285 5.285"/>
            <line id="Línea_3255" data-name="Línea 3255" x1="1.687" transform="translate(201.459 11.436)" fill="none" stroke="#364d90" stroke-linecap="round" stroke-linejoin="round" stroke-width="1.5"/>
            <path id="Trazado_999835" data-name="Trazado 999835" d="M383.981,61.3a1.9,1.9,0,1,1-1.425-2.283,1.9,1.9,0,0,1,1.425,2.283" transform="translate(-123.672 -19.18)" fill="#364d90"/>
            <path id="Trazado_999836" data-name="Trazado 999836" d="M297.8,14.129a1.9,1.9,0,1,0,1.9,1.9,1.9,1.9,0,0,0-1.9-1.9" transform="translate(-96.243 -4.596)" fill="#364d90"/>
            <line id="Línea_3256" data-name="Línea 3256" x1="0.439" y2="1.629" transform="translate(177.375 34.478)" fill="none" stroke="#364d90" stroke-linecap="round" stroke-linejoin="round" stroke-width="1.5"/>
            <line id="Línea_3257" data-name="Línea 3257" x1="2.695" y2="10.016" transform="translate(173.911 38.969)" fill="none" stroke="#364d90" stroke-linecap="round" stroke-linejoin="round" stroke-width="1.5" stroke-dasharray="4.392 4.392"/>
            <path id="Trazado_999837" data-name="Trazado 999837" d="M256.15,74.718l-.439,1.629h-1.686" transform="translate(-82.624 -24.303)" fill="none" stroke="#364d90" stroke-linecap="round" stroke-linejoin="round" stroke-width="1.5"/>
            <line id="Línea_3258" data-name="Línea 3258" x1="46.25" transform="translate(121.725 52.044)" fill="none" stroke="#364d90" stroke-linecap="round" stroke-linejoin="round" stroke-width="1.5" stroke-dasharray="5.077 5.077"/>
            <line id="Línea_3259" data-name="Línea 3259" x1="1.687" transform="translate(118.325 52.044)" fill="none" stroke="#364d90" stroke-linecap="round" stroke-linejoin="round" stroke-width="1.5"/>
            <path id="Trazado_999838" data-name="Trazado 999838" d="M260.738,49.823a1.9,1.9,0,1,1,1.343,2.332,1.9,1.9,0,0,1-1.343-2.332" transform="translate(-84.786 -15.747)" fill="#364d90"/>
            <path id="Trazado_999839" data-name="Trazado 999839" d="M174.587,74.312a1.9,1.9,0,1,0,1.9,1.9,1.9,1.9,0,0,0-1.9-1.9" transform="translate(-56.167 -24.171)" fill="#364d90"/>
            <g id="Grupo_1179767" data-name="Grupo 1179767" transform="translate(0 260.934)" opacity="0.3">
              <g id="Grupo_1179766" data-name="Grupo 1179766">
                <g id="Grupo_1179765" data-name="Grupo 1179765" clip-path="url(#clip-path-7)">
                  <path id="Trazado_999840" data-name="Trazado 999840" d="M85.446,392.845c0,3.384-19.128,6.127-42.722,6.127S0,396.229,0,392.845s19.128-6.127,42.723-6.127,42.722,2.743,42.722,6.127" transform="translate(0 -386.718)" fill="#4585e8"/>
                  <path id="Trazado_999841" data-name="Trazado 999841" d="M312.644,392.845c0,3.384-46.838,6.127-104.617,6.127s-104.617-2.743-104.617-6.127,46.838-6.127,104.617-6.127,104.617,2.743,104.617,6.127" transform="translate(-33.635 -386.718)" fill="#4585e8"/>
                </g>
              </g>
            </g>
          </g>
        </g>
      </g>
    </g>
  </g>
</svg>
