<svg xmlns="http://www.w3.org/2000/svg" xmlns:xlink="http://www.w3.org/1999/xlink" width="396" height="400" viewBox="0 0 396 400">
  <defs>
    <clipPath id="clip-path">
      <rect id="Rectángulo_457589" data-name="Rectángulo 457589" width="396" height="400" transform="translate(1017.63 3168)" fill="#fff" stroke="#707070" stroke-width="1"/>
    </clipPath>
    <clipPath id="clip-path-2">
      <rect id="Rectángulo_457584" data-name="Rectángulo 457584" width="483" height="483" fill="none"/>
    </clipPath>
  </defs>
  <g id="Enmascarar_grupo_1119185" data-name="Enmascarar grupo 1119185" transform="translate(-1017.63 -3168)" clip-path="url(#clip-path)">
    <g id="Grupo_1179806" data-name="Grupo 1179806" transform="translate(975.37 3130.74)">
      <g id="Grupo_1179805" data-name="Grupo 1179805" transform="translate(-0.74 -0.74)" clip-path="url(#clip-path-2)">
        <path id="Trazado_999955" data-name="Trazado 999955" d="M181.06,142.715a164.614,164.614,0,0,0-28.648-4.146c-10.886-.582-21.88-.441-32.635,1.491a18.568,18.568,0,0,0-4.559,1.257c-5.277-3.565-10.764-6.8-16.257-10.009-5.258-2.9-10.469-5.915-15.952-8.368q15.52,29.3,30.956,58.648c5.117,9.925,10.8,19.568,15.539,29.685l-.258.16-.038.239c-5.23-11.182-11.613-21.786-17.134-32.823-9.512-17.889-18.888-35.843-28.409-53.723a8.868,8.868,0,0,0-1.168-1.707,232.8,232.8,0,0,0-1.1,30.848,15.33,15.33,0,0,1-.408,3.246c-1.182,1.168-2.589,2.083-3.766,3.265a61.478,61.478,0,0,0-18.475,28.944c-3.607,12.476-2.308,25.989,2.059,38.095.38.962,1.28,2.669-.394,2.828q-6.135-.971-12.326-1.515c.633.736,1.285,1.463,1.871,2.242-1.14-.4-1.66-1.576-2.566-2.294A162.176,162.176,0,0,0,60,271.3c1.717,0,3.429.028,5.145.014,0,.127,0,.385,0,.516a46.364,46.364,0,0,0-4.976-.07,112.407,112.407,0,0,0,10.825,18.4c2.894,3.921,6.285,7.425,9.409,11.144-.342,1.491-.4,3.044-.769,4.536a118.061,118.061,0,0,0-1.412,35.646A74.034,74.034,0,0,0,83.4,360.926c1.294,3.377,3.34,6.379,5.145,9.484-.206.272-.619.811-.825,1.079.394.507,1.491.83,1.144,1.613-3.649.455-7.251,1.2-10.853,1.909a85.657,85.657,0,0,0-10.8,2.345c-6.116,1.374-12.411,2.96-17.579,6.674a7.089,7.089,0,0,0-3.11,4.817,9.35,9.35,0,0,0,5.521,5.685,55.862,55.862,0,0,0,7.185,3.082c4.442,1.759,9.207,2.387,13.794,3.654,5.53,1.046,11.069,2.05,16.622,2.95,3.011.694,6.135.61,9.151,1.309,3.194.286,6.332,1.013,9.535,1.2,9.324.952,18.653,1.824,28,2.509,2.6.464,5.258.084,7.861.553,1.628.249,3.283.108,4.915.361,3.213.5,6.487.07,9.709.516,3.654.5,7.373-.014,11.018.563,2.007.267,4.038.042,6.051.2,4.986.6,10.023.361,15.032.492,8.729.882,17.551-.047,26.27.84q25.539.091,51.082-.023a52.18,52.18,0,0,0,8.03-.277c7.955-.23,15.942.136,23.878-.53,2.791-.08,5.6.07,8.377-.249,3.743-.544,7.547-.019,11.3-.474a73.155,73.155,0,0,1,8.485-.31c2.355.009,4.672-.591,7.031-.478a46.266,46.266,0,0,0,6.965-.591c3.185-.53,6.445,0,9.629-.577,1.89-.361,3.832-.122,5.731-.422a68.992,68.992,0,0,1,8.625-.75c6.083-.919,12.265-1.079,18.325-2.158,6.989-.357,13.822-2.04,20.773-2.763,5.9-.929,11.632-2.687,17.518-3.71,2.7-1.069,5.628-1.477,8.171-2.913,2.772-.676,5.122-2.345,7.476-3.879a6.478,6.478,0,0,0,2.739-3.785c-.38-1.67-.99-3.522-2.509-4.489-4.794-3.349-10.511-4.911-16.064-6.468-1.074-.258-2.308-.277-3.053-1.2-1.28-18.466-2.72-36.927-4.17-55.364-.333-4.808-.628-9.625-1.243-14.4a49.643,49.643,0,0,0,8.368-1.482,3.727,3.727,0,0,0,2.026-1.144,41.936,41.936,0,0,0-.019-5.746c-1.66-1.252-3.8-1.191-5.75-1.538-3.795-.464-7.608-.769-11.43-.882a86.86,86.86,0,0,0-4.822-16.838c-.9-2.448-2.5-4.6-3.142-7.148.53-.324,1.06-.661,1.6-.976a5.111,5.111,0,0,0,2.95-2.594c.849-1.674-.033-3.607-1.257-4.826-2.664-2.922-2.894-7.026-3.818-10.67,2.448-.417,4.657,1.088,6.848,1.946,2.05.84,4.531,2.05,6.66.8a2.632,2.632,0,0,0-.2-2.983,8.215,8.215,0,0,0-8.879-3.546,10.7,10.7,0,0,0-3.837,1.918,6.343,6.343,0,0,1-.985-2.594,67.927,67.927,0,0,1-1.074-8.48c-.263-3.349.877-6.576,1.614-9.793,4.545.019,9.09,0,13.635.014a2.82,2.82,0,0,0,3.007-2.885c-.019-7.959.028-15.924.009-23.883a83.569,83.569,0,0,0,6.1-12.04,79.288,79.288,0,0,0,6.956-24.568,63.08,63.08,0,0,0-1.557-23.447,64.422,64.422,0,0,0-11.838-23.32A73.388,73.388,0,0,0,380.9,96.515a87.455,87.455,0,0,0-30.06-4.01,30.432,30.432,0,0,1-4.8.122c-.019-3.808.084-7.617.019-11.421a2.1,2.1,0,0,0-2.251-2.12q-79.951-.07-159.892,0a2.208,2.208,0,0,0-2.542,2.143M182,90.249c44.244.1,88.492,0,132.736.028,10.262.042,20.529-.1,30.787.094-.141,23.93.042,47.86-.127,71.79-7.3-.136-14.6.075-21.894-.056.066-13.677.038-27.354.042-41.031-.066-3.03.127-6.06-.145-9.081-15.712-.075-31.42-.019-47.133,0a16.267,16.267,0,0,0-4.324.244c17.077.277,34.178-.019,51.26.122q.12,24.87.014,49.745c-4.531.066-9.066-.014-13.593.108-1.365.047-2.917.962-2.945,2.467-.211,2.523-.014,5.061-.122,7.589-.084,3.213-.061,6.43.009,9.643-32.434.146-64.876-.08-97.314.122a25.682,25.682,0,0,0-3.729-16.027,16.731,16.731,0,0,1-1.656-2.683c.131-16.979,0-33.963.094-50.946,13.94-.061,27.879-.033,41.823-.047,3.316-.056,6.641.159,9.953-.089a11.748,11.748,0,0,0-3.386-.263q-24.258-.014-48.512.028a61.021,61.021,0,0,0-.178,7.176c-.042,14.685.155,29.375-.1,44.056-2.763-2.96-6.632-5.244-10.8-4.967-1.74.263-3.189-.943-4.854-1.172a27.97,27.97,0,0,0-3.912-.164c-.671-.023-1.342-.07-2.007-.108.052-22.19.094-44.384.009-66.579m77.943,19.634a8.762,8.762,0,0,0-1.67,6.778c-1.341.037-3.611-.624-3.841,1.3-.047,2.922-.056,5.849-.08,8.771a2.444,2.444,0,0,0,2.706,2.453q7.021.141,14.047-.033a2.883,2.883,0,0,0,2.139-.976l-.047-.352c.633-1.041.328-2.322.394-3.471-.1-2.186.108-4.376-.084-6.552-.68-1.384-2.294-1.177-3.579-1.14-.047-2.4-.075-5.2-2-6.937a5.6,5.6,0,0,0-7.983.159M219.83,132.194c-.3,2.974.009,5.966-.155,8.949,2.744.507,5.516-.131,8.278.038,4.057.3,8.128.094,12.195.155q11.721.021,23.437-.033c3.133.131,6.261-.338,9.395.019,11.233.009,22.476.122,33.709-.07-.113-3.039.164-6.083-.127-9.113-28.911.047-57.822,0-86.733.056m-.286,13.288c-.216,2.641-.066,5.3-.127,7.945-.089.671.131,1.679,1.037,1.543,3.283.113,6.576.066,9.864.1,25.511-.033,51.026.047,76.532-.066.141-3.185.089-6.379.009-9.568-18.475-.136-36.95-.047-55.421-.061-10.633.066-21.27-.108-31.894.108M257.672,264.71c1.895-.675,4.756-.455,5.52,1.75,1.5,3.794-2.247,8.241-6.191,7.917a3.753,3.753,0,0,1-3.883-3.672,6.655,6.655,0,0,1,4.554-5.994m-47.414,15a31.279,31.279,0,0,1,4.6,4.456l.23.436c-1.567-1.674-3.278-3.2-4.826-4.892M374.3,289.892c-.009-.811.066-1.885.929-2.256,2.819-.277,5.638.3,8.461.263,3.63-.052,7.261.028,10.886-.174.915.014,2.223-.2,2.688.84a18.826,18.826,0,0,1-.239,7,23.629,23.629,0,0,1-2.045,5.535q-9.2.253-18.4.173a21.724,21.724,0,0,1-1.665-5.474,53.2,53.2,0,0,1-.61-5.91m2.115,57.508c4.69-3.415,8.827-7.5,13.147-11.341.722,12.021,1.567,24.033,2.312,36.059-6.717-.478-13.349-1.768-20.065-2.256-3.527-.178-7.054-1.069-10.581-.483-.3-.718-.6-1.435-.858-2.158.478-3.705,1.069-7.4,1.571-11.1a83.856,83.856,0,0,0,14.474-8.724M331.4,366.48a168.979,168.979,0,0,0,24.333-7.284q-.5,4.524-.933,9.066c-4.916-.267-9.822-.586-14.732-.905-2.9-.07-5.914.23-8.668-.877" transform="translate(-0.114 -1.102)" fill="#fefefe"/>
        <path id="Trazado_999956" data-name="Trazado 999956" d="M1872.948,800.191a2.208,2.208,0,0,1,2.542-2.144q79.944-.028,159.893,0a2.1,2.1,0,0,1,2.251,2.12c.066,3.8-.038,7.613-.019,11.421-.033,23.18-.094,46.359-.047,69.543-.145,0-.437-.009-.586-.009.169-23.93-.014-47.86.126-71.789-10.257-.2-20.524-.052-30.787-.094-44.243-.033-88.492.075-132.735-.028l-.685.023c.08-3.016-.019-6.027.047-9.038m8.3,1.116c-2.359.8-1.29,5.047,1.224,4.508,1.853-.1,2.364-2.556,1.487-3.884-.563-.928-1.792-.858-2.711-.624m7.42-.033c-1.257.338-1.6,1.895-1.313,3.011a2.206,2.206,0,0,0,3.658,1.116c2.007-1.529.075-5.117-2.345-4.127m8.049.014a2.344,2.344,0,0,0-1.229,3.766c1.107,1.487,4.052.877,3.954-1.159a2.212,2.212,0,0,0-2.725-2.608" transform="translate(-1691.697 -720.058)" fill="#698cd8"/>
        <path id="Trazado_999957" data-name="Trazado 999957" d="M1947.4,830.907c.92-.234,2.148-.3,2.711.624.877,1.327.366,3.785-1.487,3.884-2.514.539-3.583-3.705-1.224-4.507" transform="translate(-1757.857 -749.658)" fill="#92b8f3"/>
        <path id="Trazado_999958" data-name="Trazado 999958" d="M2023.746,830.382c2.42-.99,4.353,2.6,2.346,4.127a2.206,2.206,0,0,1-3.658-1.116c-.291-1.116.056-2.673,1.313-3.011" transform="translate(-1826.778 -749.166)" fill="#8fb4f1"/>
        <path id="Trazado_999959" data-name="Trazado 999959" d="M2104.123,831.327a2.212,2.212,0,0,1,2.725,2.608c.1,2.036-2.847,2.645-3.954,1.159a2.344,2.344,0,0,1,1.229-3.766" transform="translate(-1899.106 -750.097)" fill="#91b7f6"/>
        <path id="Trazado_999960" data-name="Trazado 999960" d="M1870.39,914.574l.685-.023c.085,22.194.043,44.389-.01,66.579.666.037,1.337.084,2.008.108l-1.787.281c-.258.028-.769.084-1.027.117-.221-4.873-.1-9.746-.127-14.62.155-15.346.024-30.693.084-46.035a44.959,44.959,0,0,1,.174-6.407" transform="translate(-1689.186 -825.404)" fill="#b5beca"/>
        <path id="Trazado_999961" data-name="Trazado 999961" d="M864.527,937.706a30.462,30.462,0,0,0,4.8-.122,87.452,87.452,0,0,1,30.06,4.01,73.384,73.384,0,0,1,34.563,23.724,64.412,64.412,0,0,1,11.838,23.32,63.082,63.082,0,0,1,1.557,23.447,79.291,79.291,0,0,1-6.956,24.568,83.6,83.6,0,0,1-6.1,12.04c-.1-10.45.024-20.9-.056-31.345-.1-2.542.089-5.089-.038-7.631a2.666,2.666,0,0,0-2.05-2.345,23.226,23.226,0,0,0-4.156-.136c-21.172.033-42.344-.014-63.511.014-.047-23.184.014-46.364.047-69.543M599.9,999.346a259.221,259.221,0,0,0,4.339,42.4c5.558,2.007,10.947,4.451,16.482,6.529,8.438,3.391,16.984,6.524,25.375,10.033l-.319.3c-4.094-1.308-8.034-3.053-12.03-4.625-6.735-2.636-13.485-5.234-20.2-7.932-3.049-1.21-6.032-2.613-9.179-3.569a208.06,208.06,0,0,0,8.883,32.921c1.665,5.267,4.005,10.272,6.149,15.351a69.715,69.715,0,0,0-6.557-3.494c-.732,8.208-1.431,16.421-1.989,24.648a29.134,29.134,0,0,1-1.726,4.39c.211-.638.436-1.271.657-1.9a6.992,6.992,0,0,0,.38-1.951c.61-8.564,1.346-17.115,2.115-25.661-4.845-2.092-9.592-4.428-14.6-6.144a109.949,109.949,0,0,0-18.771-4.911c1.674-.16.774-1.867.394-2.828-4.367-12.106-5.666-25.618-2.059-38.094a61.48,61.48,0,0,1,18.475-28.944c1.177-1.182,2.584-2.1,3.766-3.265a15.339,15.339,0,0,0,.408-3.246M727.617,1027.7c6.595.281,13.2,0,19.807.084,25.8-.07,51.607.108,77.409-.075.262,4.428,0,8.87.244,13.3a178.818,178.818,0,0,0-31.153,24.164,11.91,11.91,0,0,0-2.481,2.725c3.912,7.824,8.443,15.333,12.411,23.137l-.342.511-.009.009c-4.08-7.856-8.508-15.539-12.673-23.358-5.037,5.455-10.018,10.966-14.507,16.885a57.558,57.558,0,0,0-5.155,7.349c-2.941-.136-5.858.446-8.8.328-1.829.127-3.8-.22-5.488.657-1.008-.169-2.42-.431-2.978.7-2.861,5.839-5.333,11.89-8.494,17.579-.1-.291-.291-.882-.389-1.173-2.861-8.245-4.892-16.754-7.734-25-1.351-3.945-2.8-7.852-4.17-11.787a17.639,17.639,0,0,0-4.371-7.34c-1.468-1.473-3.368-2.388-4.948-3.719a12.7,12.7,0,0,0,2.007-4.587c.971-4.31-.99-8.461-1.562-12.669-.835-6.154,2.181-11.829,3.377-17.715m105.738,75.57a172.083,172.083,0,0,0,3-27.875c27.1.084,54.192-.01,81.288.047-.737,3.218-1.876,6.444-1.614,9.793a67.878,67.878,0,0,0,1.074,8.48,6.345,6.345,0,0,0,.985,2.594,13.478,13.478,0,0,0-3.64,3.105c-3.6,5.511-5.933,11.8-9.85,17.1,1-6.482.427-13.034-.117-19.53a15.984,15.984,0,0,1,.024-4.634c2.326-2.392,5.741-3.7,7.439-6.7a2.237,2.237,0,0,0-.169-2.912,4.9,4.9,0,0,0-5.173.464,7.952,7.952,0,0,0-2.786,4.958,93.337,93.337,0,0,0,.343,14.019,52.546,52.546,0,0,0-8.8-10.079c-2.767-2.1-6.041-3.874-9.592-3.917a10.849,10.849,0,0,0-9.859,5.549,3.105,3.105,0,0,0,1.093,4.113,8.291,8.291,0,0,0,4.559,1.009c5.5.1,10.427-3.189,15.942-2.993,1.759.4,2.7,2.153,3.809,3.429,1.688,2.181,3.316,4.7,3.175,7.584-.056,4.128,0,8.372-1.206,12.359-1.168-3.911-2.416-8.039-5.239-11.1-1.867-1.834-4.46-3.222-7.138-2.894-1.06.084-2.28.886-2.078,2.1a5.292,5.292,0,0,0,2.073,2.247A37.193,37.193,0,0,0,899.3,1113c1.745.507,2.106,2.528,2.683,4,.479,1.754,1.566,3.466,1.135,5.342-.432,2.589-.765,5.192-1.051,7.8-2.045-3.255-2.275-7.406-4.873-10.347-2.008-2.233-4.972-4.123-8.091-3.48-.375,3.232,2.4,5.553,4.69,7.336,1.717,1.379,3.837,2.1,5.628,3.363a12.341,12.341,0,0,1,2.843,5.891c1.365-2.65,3.555-4.756,4.864-7.439.882-1.557,1.445-3.527,3.185-4.353,2.538-1.346,5.225-2.4,7.7-3.874.647,2.547,2.242,4.7,3.142,7.148a86.865,86.865,0,0,1,4.822,16.838c-3.48-.216-7-.037-10.455-.582a18.828,18.828,0,0,0,.239-7c-.464-1.036-1.773-.825-2.688-.839-3.626.2-7.256.122-10.886.174-2.824.042-5.642-.54-8.461-.263-.863.37-.938,1.445-.929,2.256a53.2,53.2,0,0,0,.61,5.91c-4.428-.019-8.846.342-13.273.417-3.466.357-6.965.385-10.38,1.121-1.262.281-2.866.192-3.626,1.445a30.615,30.615,0,0,0,.164,5.488,3.242,3.242,0,0,0,1.787,1.36,60.807,60.807,0,0,0,11.843,1.848c-.4,4.339-1,8.654-1.515,12.978-1.412,12.908-2.866,25.816-4.175,38.737a168.977,168.977,0,0,1-24.333,7.284c-8.185,1.149-16.463.136-24.671-.141-.263-.117-.779-.347-1.036-.464a41.677,41.677,0,0,0,2.73-13.588c.019-2.655.089-5.314-.108-7.959a53.619,53.619,0,0,0-8.382-23.667,52.172,52.172,0,0,0-8.926-10.548,77.639,77.639,0,0,0,9.765-11.6c4.479-6.951,7.378-14.775,9.85-22.626a164.736,164.736,0,0,0,4.184-16.974c-6.909,3.532-14.038,6.595-20.989,10.032-4.16,1.956-8.236,4.085-12.4,6.037-.075-.244-.234-.727-.31-.971.15-.028.455-.08.61-.108a8,8,0,0,0,1.867-.6q8.168-4.059,16.407-7.978c4.948-2.387,10.028-4.55,14.868-7.129m54.093,49.834c6.327-.038,12.65.319,18.972.131.164,4.057.366,8.114.676,12.167.314,5.244.581,10.492.961,15.731-4.32,3.846-8.457,7.927-13.147,11.341a83.847,83.847,0,0,1-14.474,8.724c1.576-11.857,3.433-23.677,5.169-35.515.6-4.193,1.369-8.368,1.843-12.58" transform="translate(-518.609 -846.181)" fill="#d2e8e5"/>
        <path id="Trazado_999962" data-name="Trazado 999962" d="M2675,1102.43a5.6,5.6,0,0,1,7.983-.16c1.928,1.74,1.956,4.536,2,6.937,1.285-.037,2.9-.244,3.578,1.14.192,2.176-.019,4.367.084,6.552-.066,1.149.239,2.43-.394,3.471-.511-3.128-.15-6.294-.281-9.442-.67-.07-1.337-.141-2-.206-.023-.183-.07-.544-.093-.722-.892-.258-1.777-.516-2.678-.718-.141-1.735-.066-3.673-1.205-5.117-1.07-1.454-3.368-2.3-4.874-.98-1.872,1.4-1.923,3.94-1.914,6.065-.628-.01-1.257-.019-1.881-.042a8.762,8.762,0,0,1,1.67-6.778" transform="translate(-2415.17 -993.649)" fill="#7b8fd6"/>
        <path id="Trazado_999963" data-name="Trazado 999963" d="M2695.559,1120.635c1.506-1.318,3.8-.474,4.873.98,1.14,1.445,1.065,3.382,1.206,5.117-2.664-.1-5.328-.056-7.993-.033-.009-2.125.042-4.667,1.914-6.065" transform="translate(-2433.602 -1011.099)" fill="#f9fcff"/>
        <path id="Trazado_999964" data-name="Trazado 999964" d="M1562.618,1140.689q24.251-.078,48.512-.028a11.747,11.747,0,0,1,3.386.262c-3.312.249-6.637.033-9.953.089-13.945.014-27.884-.014-41.823.047-.1,16.983.037,33.967-.094,50.946a16.7,16.7,0,0,0,1.656,2.683,25.683,25.683,0,0,1,3.729,16.027l-.131.591c-1.2,5.886-4.212,11.561-3.377,17.715.573,4.207,2.533,8.358,1.562,12.669a12.708,12.708,0,0,1-2.007,4.587c-.708-.267-1.417-.535-2.12-.8a12.323,12.323,0,0,0,.694-9.329,21.437,21.437,0,0,0-3.776-6.327c.23-.741.427-1.5.68-2.228a37.222,37.222,0,0,0,2.111-15.215,7.778,7.778,0,0,0,.507-3.762l-.211-.042a40.209,40.209,0,0,0-4.31-.417c.15-.436.3-.868.464-1.294a18,18,0,0,1,3.3-.066c-.685-5.67-4.456-10.666-9.113-13.8a30.444,30.444,0,0,1-5.009,14.08l.666.009a10.62,10.62,0,0,1-3.232,1.159,34.178,34.178,0,0,1-10.356,6.58c-.877-.821-1.735-1.825-2.988-2.026-1.276-.028-2.2.961-3.011,1.815-.122-.244-.366-.741-.488-.99,1.276-3.049,4.273-4.765,6.881-6.543,5.2-3.747,9.948-8.611,12.087-14.77-1.44,1.674-2.078,3.851-3.438,5.582a39.312,39.312,0,0,1-9.536,9.259,18.157,18.157,0,0,0-5.868,5.281,17.781,17.781,0,0,0-1.923,5.192,16.612,16.612,0,0,1-4.657,8.011c-3.781,3.372-8.128,6.341-10.858,10.7-1.267,2.627-2.636,5.807-1.478,8.7a14.193,14.193,0,0,1,4.465-11.815c3.522-4.005,8.691-6.449,11.3-11.252,1.35-2.232,1.679-4.869,2.6-7.27.291,2.012.446,4.133,1.51,5.924-.225,4.071-3.044,7.439-6.454,9.418-3.659,2.139-7.172,4.967-8.8,9a9.414,9.414,0,0,0-.521,4.254,14.4,14.4,0,0,0-8.245,8.3c-.145-4.226-.554-8.522.366-12.692.328-1.764.929-3.452,1.36-5.183l.3-.131c.905-.112,1.149-1.018.962-1.791,1.881-4.667,7-6.74,10.065-10.478,2.289-3.142,2.382-7.181,2.777-10.9.366-6.909,2.889-13.911,8.049-18.682a23.834,23.834,0,0,1,11.135-5.727c.258-.033.769-.089,1.027-.117a7.648,7.648,0,0,0,5.7-.117c1.665.23,3.114,1.435,4.854,1.173,4.165-.277,8.035,2.007,10.8,4.967.253-14.681.056-29.371.1-44.056a60.956,60.956,0,0,1,.178-7.176m-16.378,56.382a29.763,29.763,0,0,1-10.3,12.167c-.994.8-2.265,1.327-2.974,2.439a31.9,31.9,0,0,0,12.988-13.1,2.256,2.256,0,0,0,.291-1.511M1610.4,1410.56c.188.056.568.169.755.221-.361,2.87.652,5.624,1.111,8.419a13.482,13.482,0,0,0,1.158,3.987c1.613,1.74,4.231.868,6.308,1.4a22.689,22.689,0,0,1-4.85.192c-1.191-.1-1.792-1.215-2.439-2.05-.117-.159-.352-.478-.464-.638-.178-3.888-1.435-7.626-1.581-11.529" transform="translate(-1358.891 -1029.783)" fill="#435486"/>
        <path id="Trazado_999965" data-name="Trazado 999965" d="M1747.958,1140.8a16.272,16.272,0,0,1,4.325-.244c15.713-.019,31.42-.075,47.133,0,.272,3.021.08,6.051.145,9.081,0,13.677.024,27.354-.042,41.031h-.286q.134-24.87-.014-49.745c-17.082-.141-34.183.155-51.26-.122m-52.114,19.957c28.911-.056,57.822-.009,86.733-.056.291,3.03.014,6.074.126,9.113-11.233.193-22.476.08-33.709.071-3.133-.356-6.261.112-9.394-.019q-11.714.07-23.437.033c-4.067-.061-8.138.15-12.195-.155-2.763-.169-5.535.469-8.278-.037.164-2.983-.15-5.976.155-8.949m.357,8.837c3.372-.07,6.749-.188,10.122-.061,25.365,0,50.73-.037,76.1.037-.028-2.819.047-5.638,0-8.457-28.733-.122-57.47.089-86.2-.07-.525,2.824,0,5.7-.009,8.551m-49.431,50.571c1.294.614,2.7.962,3.986,1.59a11.976,11.976,0,0,0,.253,2.12,13.681,13.681,0,0,1-4.094,5.643c-3.56,3.011-8.288,3.705-12.491,5.389,1.886-2.941,5.507-3.832,7.941-6.172a12.5,12.5,0,0,0,4.4-8.569m235.814,12.556c.183.047.549.145.736.192a30.888,30.888,0,0,1,.113,6.28c0,.572-.46.985-.731,1.449l.141-.5c.478-2.4.863-5.155-.258-7.42" transform="translate(-1476.127 -1029.669)" fill="#45558a"/>
        <path id="Trazado_999966" data-name="Trazado 999966" d="M2633.294,1190.045c.229-1.923,2.5-1.261,3.841-1.3.624.023,1.253.033,1.881.042,2.664-.023,5.328-.07,7.992.033.9.2,1.787.46,2.678.718.024.178.07.539.094.722.661.066,1.327.136,2,.207.131,3.147-.23,6.313.281,9.442l.047.352a2.882,2.882,0,0,1-2.139.976q-7.021.169-14.047.033a2.443,2.443,0,0,1-2.706-2.453c.023-2.922.033-5.849.08-8.771m8.053,2.631c-.526,1.215.928,1.815,1.243,2.781.07,1.252.014,2.509.183,3.757,1.848-.685.258-3.147,1.262-4.423.375-.643,1.248-1.243.886-2.087-.174-1.7-3.316-1.684-3.574-.028" transform="translate(-2378.973 -1073.188)" fill="#6d8edb"/>
        <path id="Trazado_999967" data-name="Trazado 999967" d="M2716.854,1218.718c.258-1.656,3.4-1.67,3.574.028.361.844-.511,1.445-.886,2.087-1,1.276.586,3.738-1.262,4.423-.168-1.248-.113-2.5-.183-3.757-.314-.966-1.768-1.567-1.243-2.781" transform="translate(-2454.479 -1099.229)" fill="#f3fbff"/>
        <path id="Trazado_999968" data-name="Trazado 999968" d="M849.463,1254.883c5.483,2.453,10.694,5.469,15.952,8.368,5.493,3.212,10.98,6.444,16.257,10.009,4.249,2.95,8.625,5.731,12.7,8.93a243.916,243.916,0,0,1,21.8,18.752q-5.171,14.725-10.45,29.417c-1.041,2.838-2.1,5.68-2.884,8.6-2.561.952-4.54,2.9-6.876,4.254-4.742-10.117-10.422-19.76-15.539-29.685q-15.373-29.379-30.956-58.647" transform="translate(-766.568 -1133.044)" fill="#65928d"/>
        <path id="Trazado_999969" data-name="Trazado 999969" d="M832.934,1259.863a8.871,8.871,0,0,1,1.168,1.707c9.521,17.88,18.9,35.834,28.409,53.723,5.521,11.037,11.9,21.641,17.134,32.823-.544.516-1.074,1.036-1.614,1.552-8.391-3.508-16.937-6.641-25.374-10.032-5.534-2.078-10.924-4.521-16.482-6.529a259.234,259.234,0,0,1-4.339-42.4,232.844,232.844,0,0,1,1.1-30.848" transform="translate(-750.55 -1137.546)" fill="#65948e"/>
        <path id="Trazado_999970" data-name="Trazado 999970" d="M2275.437,1362.75c.015-2.847-.515-5.727.01-8.55,28.733.159,57.47-.052,86.2.07.051,2.819-.024,5.638,0,8.456-25.365-.075-50.73-.042-76.1-.037-3.373-.126-6.75-.009-10.122.061" transform="translate(-2055.364 -1222.821)" fill="#fbfdfe"/>
        <path id="Trazado_999971" data-name="Trazado 999971" d="M718.065,1416.233c10.755-1.932,21.749-2.073,32.635-1.492a164.585,164.585,0,0,1,28.648,4.146c.028,4.873-.094,9.746.127,14.62a23.829,23.829,0,0,0-11.135,5.727c-5.159,4.77-7.683,11.773-8.049,18.682-3.879-4.081-7.561-8.382-11.834-12.068-4.343,12.1-8.761,24.183-12.912,36.354-.085.216-.253.647-.333.868l-.544.122c.788-2.922,1.843-5.764,2.885-8.6q5.249-14.7,10.45-29.417a243.883,243.883,0,0,0-21.8-18.752c-4.071-3.2-8.447-5.981-12.7-8.93a18.563,18.563,0,0,1,4.559-1.257m-54.633,131.258c6.5.155,13,.338,19.5.61-.22.122-.657.366-.872.488-6.21-.136-12.42-.347-18.63-.582,0-.131,0-.389,0-.516m197.959,26.242a13.727,13.727,0,0,1,3.55-.82c0,.066.009.192.014.258a9.484,9.484,0,0,0-3.748.938c-2.523,1.328-5.206,2.941-6.543,5.563-.033-.188-.094-.563-.127-.75a19.2,19.2,0,0,1,6.853-5.188" transform="translate(-598.403 -1277.275)" fill="#d0e8e5"/>
        <path id="Trazado_999972" data-name="Trazado 999972" d="M2269.486,1488.387c10.624-.216,21.262-.042,31.895-.108,18.47.014,36.946-.075,55.421.061.079,3.19.131,6.384-.01,9.568-25.506.113-51.021.033-76.532.066-3.288-.032-6.58.014-9.863-.1-.905.136-1.126-.872-1.037-1.543.061-2.65-.089-5.3.126-7.945m.586.614c-.023,2.72.028,5.441-.009,8.166,4.948.155,9.9.057,14.854.141,23.756-.047,47.517.085,71.274-.047-.014-2.767-.037-5.534-.023-8.3q-43.05-.035-86.1.042" transform="translate(-2050.056 -1344.006)" fill="#9aa1bd"/>
        <path id="Trazado_999973" data-name="Trazado 999973" d="M2276.865,1495.476q43.05-.049,86.1-.042c-.014,2.767.01,5.534.023,8.3-23.756.131-47.517,0-71.273.047-4.953-.084-9.906.014-14.855-.141.038-2.725-.014-5.445.01-8.166" transform="translate(-2056.848 -1350.481)" fill="#fcfdff"/>
        <path id="Trazado_999974" data-name="Trazado 999974" d="M1882.227,1609l1.787-.281a27.86,27.86,0,0,1,3.912.164,7.65,7.65,0,0,1-5.7.117" transform="translate(-1700.127 -1452.887)" fill="#354468"/>
        <path id="Trazado_999975" data-name="Trazado 999975" d="M3176.831,1665.172c.027-1.506,1.58-2.42,2.945-2.467,4.527-.122,9.062-.043,13.593-.108h.286c7.3.132,14.6-.08,21.894.057.151,0,.441,0,.587.009,21.167-.028,42.34.019,63.511-.014a23.232,23.232,0,0,1,4.156.136,2.666,2.666,0,0,1,2.05,2.345c.126,2.542-.062,5.089.037,7.631l-.637.047c-23.616.056-47.232.028-70.847.047-12.369.032-24.741.093-37.11-.015l-.586-.08c.108-2.528-.089-5.066.122-7.589m5.323-.3c-1.05.263-2.12,1.4-1.239,2.439.7,1.229,2.247.488,2.973-.319-.329-.872-.712-1.909-1.735-2.12m4.217.361c-.159.619-.676,1.308-.263,1.942.455,1.472,3.1.506,2.331-.953-.122-1.055-1.28-.994-2.068-.989" transform="translate(-2870.264 -1501.594)" fill="#6b8cd4"/>
        <path id="Trazado_999976" data-name="Trazado 999976" d="M1580.35,1684.048c1.361-1.731,2-3.907,3.438-5.582-2.139,6.158-6.89,11.022-12.087,14.77-2.608,1.777-5.6,3.494-6.881,6.543-.108.272-.319.807-.427,1.078-.919,2.4-1.248,5.037-2.6,7.27-2.608,4.8-7.777,7.247-11.3,11.252a14.193,14.193,0,0,0-4.465,11.815c-1.158-2.894.211-6.073,1.478-8.7,2.73-4.362,7.078-7.331,10.858-10.7a16.609,16.609,0,0,0,4.657-8.011,17.8,17.8,0,0,1,1.923-5.192,18.155,18.155,0,0,1,5.868-5.281,39.306,39.306,0,0,0,9.535-9.259m2.829-.821a2.256,2.256,0,0,1-.291,1.51,31.9,31.9,0,0,1-12.988,13.1c.708-1.112,1.979-1.637,2.974-2.439a29.769,29.769,0,0,0,10.3-12.167m169.882,17.354c-.492-2.308.253-5.642,2.861-6.341a4.612,4.612,0,0,1,5.521,2.261,26.445,26.445,0,0,1,.943,4.254c.947-.033,2.5-.356,2.772.929.108,2.6.141,5.225.024,7.828.028.98-.849,1.454-1.647,1.735-.207-.122-.624-.371-.83-.5.675-.605,1.614-1.154,1.614-2.186a43.535,43.535,0,0,0,.135-6.5c-1.064-.553-2.167-1.018-3.222-1.571-.107.089-.319.267-.422.356-.2-1.51-.164-3.194-1.144-4.461a3.206,3.206,0,0,0-3.9-.633c-1.407,1.238-1.388,3.255-1.557,4.971l-1.144-.15m-187.157,6.2.568-.342a12.5,12.5,0,0,1-4.4,8.569c-2.434,2.34-6.055,3.232-7.941,6.172a11.022,11.022,0,0,0-3.6,8.082l-.4.192a9.416,9.416,0,0,1,.521-4.254c1.627-4.034,5.141-6.862,8.8-9,3.41-1.979,6.229-5.347,6.454-9.418m203.808,13.114a2.357,2.357,0,0,1,2.622-1.656c8.147.023,16.289-.094,24.436,0a28.991,28.991,0,0,1,5.708.215l-.192.544c-.609-.113-1.214-.188-1.815-.24-9.212-.018-18.428.043-27.64.033-.943.028-2.373.061-2.561,1.252a35.55,35.55,0,0,0-.014,5.286c.113,1.271,1.623,1.215,2.58,1.266,7.345.023,14.69.056,22.035.037a52.366,52.366,0,0,0,7.673-.216l-.141.5a3.866,3.866,0,0,1-1.426.286c-9.544-.033-19.089,0-28.634-.014a2.735,2.735,0,0,1-2.856-1.688,48.655,48.655,0,0,1,.225-5.6" transform="translate(-1395.83 -1515.939)" fill="#7991c5"/>
        <path id="Trazado_999977" data-name="Trazado 999977" d="M1773.984,1685.6c4.657,3.133,8.428,8.128,9.113,13.8a18,18,0,0,0-3.3.065c-.164.427-.314.858-.464,1.295a40.163,40.163,0,0,1,4.31.417c.019.933.033,1.867.056,2.8a13.034,13.034,0,0,0-6.745,1.083c.535-.075,1.07-.155,1.609-.239a25.554,25.554,0,0,0,1.342,2.43c1.618.746,2.7-.929,2.542-2.4.225.033.676.094.9.127a37.225,37.225,0,0,1-2.111,15.215c-.45.816-.83,1.665-1.2,2.523a8.775,8.775,0,0,1-1.374,2.1c-.141.122-.418.371-.558.5a7.111,7.111,0,0,1-6.145,1.829c-.5-.131-.99-.253-1.482-.37-5.333-.356-9.353-4.339-12.383-8.377-.638-.52-1.229-2.181-2.12-1.074l-.521-.727a11.927,11.927,0,0,1-.253-2.12c-.028-.624-.042-1.243-.047-1.867a3.744,3.744,0,0,1-4.925-2.233,7.4,7.4,0,0,1-.178-3.161c.807-.854,1.735-1.844,3.011-1.815,1.252.2,2.111,1.205,2.988,2.026a34.182,34.182,0,0,0,10.356-6.58c1.684.628,3.508.2,5.258.2-.071-.338-.206-1.013-.272-1.351-.587-.028-1.173-.033-1.755-.009l-.666-.01a30.445,30.445,0,0,0,5.009-14.08m-5.333,18.4a39.683,39.683,0,0,0-4.864,1.009c1.552.689,3.161-.357,4.737-.483a12.753,12.753,0,0,0-.262,2.866,9.943,9.943,0,0,0,1.824-.131c.821-.947.971-2.261,1.4-3.4-.947.042-1.894.1-2.838.141m7.012,1.177c-.028,2.444.981,4.723,1.97,6.9.361.825.516,2.185-.492,2.617-1.032.694-1.848-.774-2.711-1.158.258,1.121,1.272,2.359,2.552,2.035a3.223,3.223,0,0,0,1.773-2.425c-.314-1.505-1.214-2.8-1.716-4.245-.732-1.651-.446-3.489-.563-5.235a1.783,1.783,0,0,0-.812,1.506m-24.272,3.368a5.636,5.636,0,0,1,2.017-.619,6.43,6.43,0,0,1,1.2,1.961,2.625,2.625,0,0,0-1.055,1.309c.685-.117,1.365-.263,2.05-.4a5.2,5.2,0,0,0-1.519-2.9c-.845-.675-2.4-.558-2.688.652m18.466,8.316c1.356,2.4,4.512,1.29,6.745,1.515-.094,1.06-1.393.793-2.1,1.22a6.7,6.7,0,0,0,2.557.173,3.934,3.934,0,0,0,.023-1.993c-2.444-.056-5,.333-7.228-.915" transform="translate(-1580.576 -1522.383)" fill="#e99880"/>
        <path id="Trazado_999978" data-name="Trazado 999978" d="M3218.671,1686.231c1.023.211,1.407,1.248,1.736,2.12-.727.807-2.275,1.548-2.974.319-.882-1.036.188-2.176,1.238-2.439" transform="translate(-2906.781 -1522.958)" fill="#90b4e6"/>
        <path id="Trazado_999979" data-name="Trazado 999979" d="M3273.35,1689.97c.788,0,1.947-.066,2.069.99.769,1.459-1.877,2.425-2.331.952-.413-.634.1-1.323.262-1.942" transform="translate(-2957.244 -1526.336)" fill="#9fbcf3"/>
        <path id="Trazado_999980" data-name="Trazado 999980" d="M1427.122,1741.407c4.273,3.686,7.955,7.987,11.833,12.068-.394,3.715-.487,7.753-2.776,10.9-3.068,3.738-8.185,5.812-10.065,10.479l-.23-.1-1.205-.507c-3.724.338-6.914,2.561-10.469,3.522,4.151-12.171,8.569-24.253,12.913-36.354" transform="translate(-1277.066 -1572.833)" fill="#64928d"/>
        <path id="Trazado_999981" data-name="Trazado 999981" d="M2259.79,1768.408l.586.08c.122,5.108-.019,10.216.033,15.323-.046,3.049.141,6.107-.132,9.151-.112-.225-.346-.671-.464-.891-.239-4.428.018-8.869-.244-13.3-25.8.183-51.608,0-77.409.075-6.6-.084-13.212.2-19.807-.084l.132-.591c32.438-.2,64.88.024,97.314-.122-.07-3.213-.094-6.431-.009-9.643" transform="translate(-1953.346 -1597.241)" fill="#9ba8c5"/>
        <path id="Trazado_999982" data-name="Trazado 999982" d="M2986.443,1768.929c12.369.108,24.741.047,37.11.015,23.616-.019,47.231.009,70.847-.047-.075,18.4-.019,36.819.056,55.219a2.088,2.088,0,0,1-1.773,2.069c-4.122-.258-8.25-.056-12.373-.089q-39.617-.035-79.224,0c-4.319.094-8.653-.366-12.954.1a3.071,3.071,0,0,1-1.824-2.626c-.113-8.006.065-16.013-.015-24.019-.23.352-.7,1.046-.933,1.4-5.9,13.259-12.472,26.209-18.865,39.235a6.663,6.663,0,0,1-.919,1.257c1.97-4.958,4.718-9.578,6.951-14.427q6.564-13.445,12.884-27.016c1.389-1.937.807-4.376.933-6.59.273-3.044.085-6.1.131-9.151-.051-5.108.09-10.216-.032-15.324m50.2,13.4a10.423,10.423,0,0,0-3.307.446,73.844,73.844,0,0,0-.155,7.552c-.108,1.22.675,2.748,2.069,2.668,3.954.146,7.913.16,11.866,0,.8-.281,1.675-.755,1.646-1.735.117-2.6.084-5.225-.023-7.828-.272-1.285-1.825-.962-2.772-.928a26.539,26.539,0,0,0-.942-4.254,4.611,4.611,0,0,0-5.521-2.261c-2.608.7-3.354,4.033-2.861,6.341m-40.092-5.379c-1.14.553-1.2,1.989-1.21,3.091.052,4.535,0,9.066.014,13.6a2.678,2.678,0,0,0,2.875,2.889q42.929-.028,85.865-.028a2.526,2.526,0,0,0,2.875-2.42c.089-4.686.052-9.371.075-14.052a3.48,3.48,0,0,0-.778-2.608c-.807-.849-2.073-.675-3.124-.731-11.646-.033-23.3-.061-34.943.047.211.98,1.4.46,2.1.628,11.411,0,22.828.024,34.244-.024,1.187-.108,1.918,1.145,1.82,2.21.019,4.84-.009,9.685-.023,14.531a1.754,1.754,0,0,1-1.811,1.754c-5.469.009-10.942-.028-16.412,0-23.292.15-46.579-.1-69.871.108a1.993,1.993,0,0,1-2.208-2.293c.037-4.836.013-9.672.037-14.507-.052-.9.629-1.933,1.628-1.8,11.28.042,22.56-.061,33.841.047.684-.173,2.011.436,2.1-.67-11-.08-22.011.018-33.015-.057a12.867,12.867,0,0,0-4.071.291m1.017,23.146a2.476,2.476,0,0,0-1.876,2.917c.229,1.993-.8,5.066,1.806,5.839,9.784.136,19.578.01,29.361.028a2.787,2.787,0,0,0,2.594-1.341c.145-1.956.037-3.931-.005-5.891-.159-1.426-1.9-1.684-3.058-1.623-9.605.089-19.225-.131-28.822.071m36.106-.037a5.943,5.943,0,0,0-1.369,1.107,29.523,29.523,0,0,0-.019,6.341c.723,1.224,2.27,1.032,3.485,1.065,4.639-.07,9.277.014,13.916-.066.375-.539,1.027-1.013.925-1.759a49.028,49.028,0,0,0-.132-5.75,2.883,2.883,0,0,0-2.514-.966c-4.765.023-9.526,0-14.292.028m19.62,1.585a48.388,48.388,0,0,0-.225,5.6,2.734,2.734,0,0,0,2.856,1.689c9.545.009,19.089-.019,28.634.014a3.871,3.871,0,0,0,1.426-.286c.272-.464.732-.877.732-1.449a30.88,30.88,0,0,0-.113-6.281c-.188-.047-.553-.145-.736-.192l.192-.544a29.04,29.04,0,0,0-5.708-.216c-8.147-.089-16.289.028-24.437,0a2.358,2.358,0,0,0-2.622,1.656m-20.727,11.82c-3.156.867-3.077,6.6.366,6.909,4.681.183,9.376-.019,14.067.065,1.628-.052,3.771.216,4.742-1.44,1.613-1.923.408-5.9-2.4-5.6-3.274-.239-6.557.206-9.831-.1a40.719,40.719,0,0,0-6.942.164m.962-12.917c4.32-.3,8.677,0,13.015-.15,1.177.052,2.6-.281,3.509.694a38.219,38.219,0,0,1,.122,6.13c-.226,1.051-1.374,1.1-2.238,1.1q-6.318-.028-12.631-.023c-.948-.061-2.425,0-2.673-1.187a16.255,16.255,0,0,1-.127-5.023c.164-.558.235-1.529,1.022-1.538" transform="translate(-2679.412 -1597.682)" fill="#fdfefe"/>
        <path id="Trazado_999983" data-name="Trazado 999983" d="M3391.579,1768.454l.638-.047c.079,10.446-.043,20.9.057,31.345.018,7.959-.028,15.923-.01,23.883a2.82,2.82,0,0,1-3.006,2.884c-4.545-.018-9.09,0-13.635-.014-27.1-.056-54.192.038-81.288-.046l.047-.413c11.129-.221,22.26-.075,33.4-.117,17.977.043,35.956-.01,53.934.028,2.715-.146,5.459.23,8.151-.216a2.088,2.088,0,0,0,1.773-2.069c-.075-18.4-.132-36.814-.057-55.219" transform="translate(-2976.592 -1597.241)" fill="#94a0bf"/>
        <path id="Trazado_999984" data-name="Trazado 999984" d="M1924.326,1832.134c.581-.024,1.168-.019,1.754.01.066.338.2,1.013.272,1.351-1.75-.005-3.574.427-5.258-.2a10.624,10.624,0,0,0,3.231-1.159" transform="translate(-1735.261 -1654.833)" fill="#3a406a"/>
        <path id="Trazado_999985" data-name="Trazado 999985" d="M2037.6,1847.753l.212.043a7.78,7.78,0,0,1-.507,3.762c-.225-.033-.675-.094-.9-.127.155,1.473-.924,3.147-2.542,2.4.122-.924.244-1.844.375-2.767q-.859.19-1.717.338c-.539.084-1.074.164-1.609.24a13.023,13.023,0,0,1,6.745-1.083c-.024-.938-.038-1.872-.057-2.805" transform="translate(-1834.526 -1668.965)" fill="#242f48"/>
        <path id="Trazado_999986" data-name="Trazado 999986" d="M3276.65,1849.766a12.861,12.861,0,0,1,4.071-.291c11,.075,22.011-.023,33.015.056-.085,1.107-1.412.5-2.1.67-11.281-.108-22.561,0-33.841-.046-1-.132-1.679.9-1.628,1.8-.024,4.835,0,9.671-.037,14.507a1.994,1.994,0,0,0,2.208,2.293c23.292-.206,46.58.042,69.871-.107,5.469-.024,10.943.014,16.412,0a1.753,1.753,0,0,0,1.811-1.755c.014-4.845.042-9.69.024-14.531.1-1.065-.634-2.317-1.82-2.209-11.416.047-22.833.019-34.243.024-.7-.169-1.886.352-2.1-.628,11.645-.108,23.3-.08,34.942-.047,1.05.056,2.317-.117,3.124.731a3.479,3.479,0,0,1,.778,2.608c-.024,4.681.014,9.367-.075,14.052a2.526,2.526,0,0,1-2.876,2.42q-42.929,0-85.865.028a2.679,2.679,0,0,1-2.876-2.889c-.014-4.535.038-9.066-.014-13.6.01-1.1.071-2.538,1.211-3.091" transform="translate(-2959.511 -1670.504)" fill="#929cb9"/>
        <path id="Trazado_999987" data-name="Trazado 999987" d="M3718.892,1854.613a3.206,3.206,0,0,1,3.9.633c.98,1.267.948,2.95,1.145,4.461-2.205-.019-4.414.084-6.6-.122.169-1.717.15-3.734,1.558-4.972" transform="translate(-3358.959 -1674.792)" fill="#f9fdff"/>
        <path id="Trazado_999988" data-name="Trazado 999988" d="M1940.771,1875.824c.943-.037,1.89-.1,2.838-.141-.431,1.14-.581,2.453-1.4,3.4a9.945,9.945,0,0,1-1.825.131,12.782,12.782,0,0,1,.263-2.866Z" transform="translate(-1752.695 -1694.212)" fill="#1a355f"/>
        <path id="Trazado_999989" data-name="Trazado 999989" d="M2005.823,1875.236a1.78,1.78,0,0,1,.812-1.506c.117,1.745-.169,3.583.563,5.234.5,1.44,1.4,2.739,1.717,4.245a3.225,3.225,0,0,1-1.773,2.425c-1.281.323-2.293-.915-2.551-2.036.863.385,1.679,1.853,2.711,1.159,1.008-.432.854-1.792.492-2.617-.99-2.181-2-4.46-1.97-6.9" transform="translate(-1810.736 -1692.446)" fill="#9e5a51"/>
        <path id="Trazado_999990" data-name="Trazado 999990" d="M1812.63,1878.156a39.751,39.751,0,0,1,4.864-1.008l-.127.525c-1.576.127-3.185,1.173-4.737.483m14.32,20.309.375-.3c.915,1.407,2.111,2.81,2.078,4.592.126,2.4-.211,5.3-2.43,6.707l-.99-.3c-.3-.094-.9-.281-1.2-.37-.319-.108-.638-.216-.948-.324-1.44-.68-3.325-1.036-4.169-2.5-.192-1.923,0-3.86-.075-5.788.3.028.91.089,1.215.117a7.112,7.112,0,0,0,6.145-1.829m7.786,122.084c3.461-.4,6.609-2.392,10.136-2.275-.168.1-.511.3-.685.394-2.373.8-4.807,1.412-7.237,2.017-.155.037-.464.117-.619.155-3.2.769-6.463,1.205-9.723,1.66-3.344.145-6.689.131-10.033.16a82.491,82.491,0,0,1-10.647-1.745c-.638-.253-1.281-.5-1.923-.717a8.247,8.247,0,0,1,2.627.173c6.524,1.9,13.405,1.872,20.13,1.5a78.777,78.777,0,0,1,7.974-1.318" transform="translate(-1629.418 -1695.536)" fill="#11171c"/>
        <path id="Trazado_999991" data-name="Trazado 999991" d="M2047.656,1882.564q.859-.148,1.717-.338c-.131.924-.253,1.843-.375,2.767a25.549,25.549,0,0,1-1.341-2.429" transform="translate(-1849.665 -1700.126)" fill="#d4a49b"/>
        <path id="Trazado_999992" data-name="Trazado 999992" d="M1741.309,1901.421l.427-1.078c.122.248.366.746.488.99a7.4,7.4,0,0,0,.178,3.161,3.745,3.745,0,0,0,4.925,2.233c0,.624.019,1.243.047,1.866-1.29-.628-2.692-.976-3.987-1.59l-.568.342c-1.065-1.792-1.22-3.912-1.51-5.924" transform="translate(-1572.745 -1716.502)" fill="#615773"/>
        <path id="Trazado_999993" data-name="Trazado 999993" d="M3680.822,1907.812c1.055.553,2.157,1.018,3.222,1.571a43.642,43.642,0,0,1-.136,6.5c0,1.032-.938,1.58-1.614,2.186.207.126.624.375.831.5-3.954.16-7.913.146-11.867,0-1.393.08-2.176-1.449-2.069-2.669a73.767,73.767,0,0,1,.155-7.551,10.424,10.424,0,0,1,3.307-.446l1.144.15c2.191.206,4.4.1,6.6.122.1-.089.314-.267.422-.357m-5.038,2.716a2.467,2.467,0,0,0,.783,3.04,17.128,17.128,0,0,0,.258,3.246c.769-.732.464-1.914.717-2.852.075-.971,1.515-1.688.8-2.7-.366-1.149-1.68-.69-2.562-.732" transform="translate(-3315.419 -1723.255)" fill="#6f92dc"/>
        <path id="Trazado_999994" data-name="Trazado 999994" d="M1764.746,1914.462c.291-1.211,1.843-1.328,2.688-.652a5.2,5.2,0,0,1,1.519,2.9c-.685.141-1.365.286-2.05.4a2.622,2.622,0,0,1,1.055-1.308,6.422,6.422,0,0,0-1.2-1.961,5.631,5.631,0,0,0-2.017.619" transform="translate(-1593.931 -1728.304)" fill="#b06b5e"/>
        <path id="Trazado_999995" data-name="Trazado 999995" d="M3736.162,1935.556c.883.042,2.2-.417,2.562.731.712,1.014-.727,1.731-.8,2.7-.253.938.052,2.12-.717,2.852a17.113,17.113,0,0,1-.259-3.246,2.468,2.468,0,0,1-.783-3.039" transform="translate(-3375.797 -1748.283)" fill="#f5fcff"/>
        <path id="Trazado_999996" data-name="Trazado 999996" d="M1613.061,2013.944a13.678,13.678,0,0,0,4.095-5.643c-.16,4.085-.1,8.269-1.388,12.195a8.926,8.926,0,0,1-3.34,4.24c-.586.206-1.177.4-1.777.577-.446.1-1.332.3-1.778.4.915,2.889,3.091,5.074,4.9,7.415a30.083,30.083,0,0,1-2.988-3.523c-.919-1.262-1.468-2.8-2.655-3.86-3.663.892-7.509.652-11.159,1.665a11.021,11.021,0,0,1,3.6-8.081c4.2-1.684,8.93-2.378,12.49-5.389m36.875,76.968.629-.038c.609.61,1.229,1.224,1.853,1.83,1.548,1.693,3.259,3.217,4.826,4.892a9.986,9.986,0,0,1,.394,2.19c-1.21-.019-2.41.07-3.616.122-.258-.112-.77-.342-1.027-.455a6.722,6.722,0,0,0-3.593-1.1,1.76,1.76,0,0,0,1.6,1.149h-1.173c-.882-1.848-2.776-2.824-4.446-3.842-1.59-1.069-3.546-.492-5.314-.492,1.041-.178,2.083-.343,3.133-.47a19.666,19.666,0,0,1-2.8-2.574l.08-.01c1.3,1.121,2.481,2.5,4.17,3.049s2.988,1.806,4.469,2.734a12.639,12.639,0,0,1,4.386,1.464c.67.469,1.656.291,1.66-.657a8.656,8.656,0,0,1-3.508-2.35,31.668,31.668,0,0,0,5.642,3.119,2.2,2.2,0,0,0-.633-2.045c-1.224-1.346-2.7-2.444-3.865-3.837a9.491,9.491,0,0,0-2.871-2.683" transform="translate(-1442.274 -1814.091)" fill="#151a22"/>
        <path id="Trazado_999997" data-name="Trazado 999997" d="M1755.66,2008.3c.131.183.389.544.521.727a71.054,71.054,0,0,0,11.683,13.138,8.207,8.207,0,0,0,2.8,1.857c.056-1.852-.2-3.7.019-5.544.492.117.985.239,1.482.371-.3-.028-.91-.09-1.214-.117.075,1.927-.117,3.864.075,5.787.845,1.468,2.73,1.824,4.17,2.5a9.177,9.177,0,0,1-1.309,5.994,8.368,8.368,0,0,1-7.462,3.438c-3.415-.488-6.993-1.322-9.625-3.691-1.29-1.233-2.884-2.12-4.015-3.518a30.023,30.023,0,0,1-2.589-3.729c.183-.2.553-.586.736-.783a8.922,8.922,0,0,0,3.339-4.24c1.285-3.925,1.229-8.109,1.389-12.195" transform="translate(-1580.778 -1814.091)" fill="#eb9a80"/>
        <path id="Trazado_999998" data-name="Trazado 999998" d="M1812.5,2012.36c.891-1.106,1.482.554,2.12,1.074,3.03,4.038,7.049,8.02,12.382,8.377-.22,1.843.038,3.691-.019,5.544a8.223,8.223,0,0,1-2.8-1.857,71.034,71.034,0,0,1-11.683-13.138m28.967,83.089a7.2,7.2,0,0,1,3.4,2.364l.37-.028.089.69c-1.3-.99-2.833-1.721-3.855-3.025" transform="translate(-1637.098 -1817.423)" fill="#b36850"/>
        <path id="Trazado_999999" data-name="Trazado 999999" d="M1956.982,2011.035c2.232,1.248,4.784.858,7.227.915a3.936,3.936,0,0,1-.023,1.993,6.7,6.7,0,0,1-2.556-.173c.7-.427,2-.16,2.1-1.22-2.232-.225-5.389.886-6.744-1.515" transform="translate(-1767.702 -1816.562)" fill="#985144"/>
        <path id="Trazado_1000000" data-name="Trazado 1000000" d="M706.744,2038.91a178.829,178.829,0,0,1,31.153-24.164c.117.22.352.666.464.891-.127,2.213.455,4.653-.933,6.59q-6.3,13.572-12.884,27.016c-2.232,4.85-4.981,9.47-6.951,14.427a6.671,6.671,0,0,0,.919-1.257c6.393-13.025,12.959-25.975,18.864-39.235.235-.352.7-1.046.933-1.4.08,8.006-.1,16.013.014,24.019a3.072,3.072,0,0,0,1.825,2.627,52.832,52.832,0,0,0,9.071.3l-.047.412a172.1,172.1,0,0,1-3,27.875c-4.84,2.58-9.92,4.742-14.868,7.129q-8.239,3.918-16.407,7.978a7.98,7.98,0,0,1-1.867.6c2.763-4.165,4.606-8.86,6.984-13.25,2.153-4.118,4.357-8.2,6.571-12.289a11.336,11.336,0,0,0,.694-2.022c-3.227-.722-6.52.366-9.761-.108-.056-.2-.174-.6-.23-.8l-.619.526c-3.968-7.805-8.5-15.314-12.411-23.138a11.9,11.9,0,0,1,2.481-2.725m-17.6,19.911c4.489-5.919,9.47-11.43,14.507-16.885,4.165,7.819,8.593,15.5,12.673,23.358-7.3.159-14.606.483-21.908.629-3.476.056-6.946.422-10.427.248a57.611,57.611,0,0,1,5.155-7.349m-210.43-10.928c.905.718,1.426,1.89,2.566,2.293-.586-.778-1.238-1.506-1.871-2.241q6.184.549,12.326,1.515a109.971,109.971,0,0,1,18.771,4.911c5,1.717,9.751,4.052,14.6,6.145-.769,8.545-1.506,17.1-2.115,25.66a6.992,6.992,0,0,1-.38,1.951c-.174.188-.53.567-.708.755-.187.694-.37,1.388-.567,2.087-12.054-11.866-23.592-24.249-35.426-36.331-1.623-1.524-2.978-3.359-4.883-4.549,1.618,2.406,3.954,4.2,5.882,6.346,11.018,11.571,22.185,23,33.325,34.455-1.426-.056-2.847-.126-4.268-.145-6.5-.272-13-.455-19.5-.61-1.717.014-3.429-.019-5.145-.014a162.175,162.175,0,0,1-12.6-42.227m12.767,42.687a46.348,46.348,0,0,1,4.976.07c6.21.235,12.42.445,18.63.582,1.956.066,3.907.131,5.863.071-.919,2.8-2.228,5.464-3.335,8.2-.985,3.176-2.359,6.224-3,9.5-1.426,3.584-1.937,7.411-2.9,11.121-3.124-3.719-6.515-7.223-9.409-11.144a112.409,112.409,0,0,1-10.825-18.4" transform="translate(-431.429 -1819.917)" fill="#64938d"/>
        <path id="Trazado_1000001" data-name="Trazado 1000001" d="M879.248,2029.98c3.147.956,6.13,2.359,9.179,3.569,6.712,2.7,13.461,5.3,20.2,7.931,4,1.571,7.936,3.316,12.031,4.625a71.687,71.687,0,0,0-10.6,11.482c-3.053,3.368-5.023,7.495-7.584,11.21-4.784,9.089-9.836,18.038-14.629,27.124a18.411,18.411,0,0,1-2.106,3.485c.558-8.227,1.257-16.439,1.989-24.647a69.76,69.76,0,0,1,6.557,3.494c-2.143-5.079-4.484-10.084-6.149-15.351a208.022,208.022,0,0,1-8.883-32.921" transform="translate(-793.492 -1833.687)" fill="#65938d"/>
        <path id="Trazado_1000002" data-name="Trazado 1000002" d="M1501.886,2048.275c.37-.859.75-1.707,1.2-2.524-.253.732-.45,1.487-.68,2.228a21.445,21.445,0,0,1,3.776,6.327,12.323,12.323,0,0,1-.694,9.33c.7.268,1.412.535,2.12.8,1.58,1.332,3.48,2.247,4.948,3.719a17.638,17.638,0,0,1,4.371,7.34c1.365,3.936,2.819,7.843,4.17,11.787,2.842,8.25,4.873,16.759,7.734,25a6.722,6.722,0,0,1-1.9,4.282,18.893,18.893,0,0,0-4.77,7.181c-2.157-2.477-3.321-5.62-4.474-8.649a18.331,18.331,0,0,1-.451-11.14c.849-3.48,2.153-7.115,1.187-10.712-1.013-3.517-3.176-6.533-4.775-9.784-1.036-1.811-1.721-3.832-3.058-5.45,1.688,5.164,4.245,10.107,4.939,15.553.417,3.565-.661,7.017-1.59,10.408-.849,3.766-1.9,7.575-1.773,11.468-.014.173-.047.52-.061.694a36.082,36.082,0,0,0-.333,6.163,15.561,15.561,0,0,0-.83,1.848c-2.974-.624-5.9.361-8.823.788-2.195.329-4.357.863-6.566,1.084-1.979.207-3.93-.272-5.9-.394-5.863-1.393-11.81-2.481-17.551-4.358-1.726-.6-3.874-.966-4.77-2.767a23.139,23.139,0,0,1-2.5-8.94c-.971-7.035-.075-14.131.544-21.153-2.228,7.786-3.058,15.89-4.526,23.841a19.219,19.219,0,0,0-.844,6.613c-3.021.779-6.158,2.313-7.6,5.239,2.58-2.547,6.112-4.545,9.855-4.03,8.958,1.239,17.359,5.033,26.364,6.032a14.17,14.17,0,0,0,.741,9.765c-3.133.112-6.262.243-9.39.422-7.716-.019-15.436.009-23.151.023-3.837-.347-8.067.465-11.468-1.81-2.434-1.886-3.021-5.174-3.058-8.072-.066-5.854-.07-11.712.141-17.565.6-1.9.558-3.926.99-5.863.624-3.021-.108-6.164.732-9.151.685-2.181.516-4.484.52-6.735.45-2.045.694-4.123.966-6.2a100.265,100.265,0,0,1,2.828-11.167,14.4,14.4,0,0,1,8.246-8.3l.4-.193c3.649-1.013,7.5-.774,11.158-1.665,1.187,1.06,1.735,2.6,2.655,3.86a30.171,30.171,0,0,0,2.988,3.523c-1.811-2.34-3.987-4.526-4.9-7.415.446-.1,1.332-.3,1.778-.4,1.824,2.693,3.635,5.479,6.214,7.519,3.8,2.838,8.583,4.634,13.377,4.085a8,8,0,0,0,5.671-3.359c1.309-1.81,1.172-4.141,1.726-6.21.3.09.9.277,1.2.371.549,3.316-.248,6.97-2.866,9.244-1.919,2.092-4.869,2.763-7.608,2.712a22.193,22.193,0,0,1-8.466-2.36c-2.153-1.027-3.818-2.781-5.821-4.038,2.58,3.307,6.566,5.248,10.563,6.262,3.869.853,8.447.825,11.557-1.979a10.912,10.912,0,0,0,3.109-9.123c.131-.107.389-.318.521-.422,2.218-1.412,2.556-4.306,2.43-6.708.033-1.782-1.163-3.185-2.078-4.591l-.375.3c.141-.126.418-.375.558-.5a16.662,16.662,0,0,1,2.129,3.185,10.3,10.3,0,0,1-1.994,8.663q2.224.675,4.446,1.37c2.289-3.673,1.7-8.574-.6-12.1-.75-1.144-1.267-2.631-2.6-3.218m-29.366,58.591c.774,1.262,2.228,1.829,3.513,2.43a21.979,21.979,0,0,0,15.4.408c-1.782-.239-3.475.634-5.258.568a28.578,28.578,0,0,1-6.787-.473,23.775,23.775,0,0,1-6.866-2.932m14.211,27.7c.16-1.173-.863-1.975-1.079-3.045-.389-1.473.427-2.865.6-4.305-2.284,1.895-1.585,5.582.483,7.35" transform="translate(-1302.422 -1847.943)" fill="#83a8f4"/>
        <path id="Trazado_1000003" data-name="Trazado 1000003" d="M2050.056,2072.021c1.337.586,1.853,2.073,2.6,3.217,2.307,3.527,2.894,8.428.6,12.1q-2.223-.7-4.447-1.37a10.3,10.3,0,0,0,1.994-8.663,16.638,16.638,0,0,0-2.129-3.185,8.768,8.768,0,0,0,1.374-2.1" transform="translate(-1850.593 -1871.69)" fill="#435589"/>
        <path id="Trazado_1000004" data-name="Trazado 1000004" d="M1411.075,2086.725c3.555-.961,6.745-3.185,10.469-3.522l1.205.507a3.447,3.447,0,0,0-.732,1.894l-.3.132c-.056-.263-.178-.783-.239-1.046-.042-.169-.127-.516-.169-.69-3.832.038-6.927,2.777-10.563,3.593.08-.22.249-.652.333-.868" transform="translate(-1273.932 -1881.798)" fill="#a99d4d"/>
        <path id="Trazado_1000005" data-name="Trazado 1000005" d="M1366.7,2095.1c3.635-.816,6.73-3.555,10.562-3.593.042.174.127.521.169.69-.957,3.255-2.275,6.5-2.162,9.948-.2,2.814.1,5.633.033,8.442-.877,3.748-2.313,7.383-2.8,11.229-.159,1.4-.53,2.777-.718,4.179.136,3.349-1.135,6.543-.99,9.888a59.8,59.8,0,0,1-.736,6.58,47.185,47.185,0,0,0-.15,7.767c-.211,5.853-.207,11.712-.141,17.565.038,2.9.624,6.187,3.058,8.072,3.4,2.275,7.631,1.463,11.468,1.81-.258,2.35-1.144,4.62-1.032,7.017-.206,1.154-.436,2.3-.661,3.451-.9,2.538-.427,5.22-.239,7.828l-.488.976c-2.608-1.6-3.841-4.469-5.746-6.726a94.809,94.809,0,0,1-6.36-8.583,45.7,45.7,0,0,0-6.524-6.636c-1.6-7.721-1.276-15.652-.971-23.48a193.273,193.273,0,0,1,4.723-32.194,45.5,45.5,0,0,0,.882-15.825c-.343-2.589-1-5.122-1.59-7.659-.033-.155-.1-.469-.131-.624Z" transform="translate(-1229.894 -1889.301)" fill="#e0a406"/>
        <path id="Trazado_1000006" data-name="Trazado 1000006" d="M1528.857,2088.476l.23.1c.188.774-.056,1.679-.962,1.792a3.453,3.453,0,0,1,.732-1.9" transform="translate(-1380.039 -1886.564)" fill="#584a54"/>
        <path id="Trazado_1000007" data-name="Trazado 1000007" d="M2677.866,2092.823c9.6-.2,19.216.019,28.822-.071,1.158-.061,2.9.2,3.058,1.624.042,1.96.15,3.935.005,5.891a2.786,2.786,0,0,1-2.594,1.341c-9.784-.018-19.577.109-29.361-.028-2.6-.774-1.576-3.846-1.806-5.839a2.476,2.476,0,0,1,1.876-2.918m-1.421,1.407c.108,1.9-.051,3.814.164,5.709a2.043,2.043,0,0,0,1.975,1.247c9.517-.01,19.033.009,28.554-.033.854.052,2.139-.272,2.19-1.318.076-1.783.085-3.574.014-5.356-.089-1.046-1.336-1.388-2.213-1.3-9.517.061-19.033,0-28.55.018-.858-.066-1.472.62-2.134,1.036m-51.03,168.05a68.773,68.773,0,0,0,16.088,10.089,75.3,75.3,0,0,0,7.007,3.222c2.627,1.116,5.361,2.208,7.51,4.15.708.648.192,1.764-.178,2.477a15.327,15.327,0,0,1-7.345,6.3c-3.9,1.458-8.179.849-12.157.056-5.286-1.008-10.314-3.424-15.783-3.358-2.078-.53-4.695.343-6.309-1.4a13.472,13.472,0,0,1-1.158-3.987c-.46-2.8-1.472-5.548-1.112-8.419,3.317.9,7.388,1.131,10.113-1.336,2.167-1.933,3.888-4.78,3.326-7.8" transform="translate(-2359.711 -1890.415)" fill="#5c70ad"/>
        <path id="Trazado_1000008" data-name="Trazado 1000008" d="M2200.085,2092.917c4.765-.023,9.526,0,14.292-.027a2.881,2.881,0,0,1,2.514.966,48.983,48.983,0,0,1,.132,5.751c.1.745-.549,1.219-.924,1.759-4.638.079-9.277-.005-13.916.065-1.215-.033-2.762.16-3.485-1.064a29.551,29.551,0,0,1,.019-6.341,5.955,5.955,0,0,1,1.37-1.107m-.145.489c-.788.009-.858.98-1.022,1.538a16.236,16.236,0,0,0,.126,5.023c.248,1.187,1.726,1.126,2.673,1.187q6.318,0,12.631.023c.863,0,2.012-.047,2.237-1.1a38.154,38.154,0,0,0-.121-6.13c-.91-.976-2.331-.643-3.509-.695-4.339.155-8.7-.145-13.015.151m-145.822,136.829c3.157-.619,6.581-2.415,9.728-.858a10.1,10.1,0,0,0,1.561,10.464,4.245,4.245,0,0,1-2.8-3.715c-.061-1.726,0-3.452-.146-5.173a28.386,28.386,0,0,0-10.055,1.717c-2.411,1.008-4.658,3.18-4.855,5.909-.483,3.171-.572,6.384-.858,9.578-.759,4.841-1.552,9.761-1.182,14.676.38,5.75,4.554,10.385,9.151,13.438-.4-.038-1.215-.117-1.618-.16a10.768,10.768,0,0,1-3.256-1.608c-.145-.108-.431-.328-.577-.436q-.077-1.006-1.013-.7a30.939,30.939,0,0,1-2.186-2.261c-.558-2.4-2.561-4.263-2.566-6.81a24.448,24.448,0,0,1,.657-7.546,61.679,61.679,0,0,0,1.9-12.683c.1-3.246-1.777-6.956.342-9.859,2.153-2,5.07-2.941,7.767-3.969" transform="translate(-1845.823 -1890.546)" fill="#465c95"/>
        <path id="Trazado_1000009" data-name="Trazado 1000009" d="M1467.157,2108.631c-.113-3.453,1.205-6.693,2.162-9.948.061.263.183.783.239,1.046-.432,1.731-1.032,3.419-1.36,5.183-.919,4.17-.511,8.466-.366,12.692a100.315,100.315,0,0,0-2.828,11.168c-.272,2.073-.516,4.151-.966,6.2-.117-.831-.267-1.656-.366-2.487.188-1.4.558-2.776.718-4.179.488-3.846,1.923-7.481,2.8-11.229.07-2.809-.23-5.628-.033-8.442" transform="translate(-1321.777 -1895.79)" fill="#c7a449"/>
        <path id="Trazado_1000010" data-name="Trazado 1000010" d="M3283.838,2098.255c.662-.417,1.276-1.1,2.134-1.036,9.517-.014,19.034.042,28.55-.019.878-.085,2.125.258,2.214,1.3.071,1.783.062,3.574-.014,5.356-.051,1.046-1.336,1.37-2.19,1.318-9.521.042-19.038.024-28.554.033a2.041,2.041,0,0,1-1.974-1.248c-.216-1.894-.056-3.808-.165-5.708" transform="translate(-2967.103 -1894.439)" fill="#fdfdfe"/>
        <path id="Trazado_1000011" data-name="Trazado 1000011" d="M3883.577,2099.151c.188-1.191,1.618-1.224,2.56-1.252,9.213.009,18.429-.051,27.641-.033.6.052,1.2.126,1.815.239,1.12,2.266.736,5.019.258,7.42a52.411,52.411,0,0,1-7.673.216c-7.346.019-14.69-.014-22.036-.038-.956-.051-2.467.005-2.579-1.266a35.408,35.408,0,0,1,.014-5.286m31.335,102.6c.174,0,.521.019.694.024.052.23.155.689.206.919.521,3.865,1.046,7.729,1.52,11.6q3.314,27.635,6.224,55.317c-3.189.474-6.2-.848-9.291-1.318-2.791-.459-5.559-1.036-8.368-1.345-.338-6.271-.243-12.561-.375-18.837-.029-9.469-.408-18.93-.329-28.4,1.811-1.383,2.668-3.55,3.837-5.431,2.261-4.038,3.686-8.466,5.881-12.537" transform="translate(-3509.137 -1895.049)" fill="#fdfdfd"/>
        <path id="Trazado_1000012" data-name="Trazado 1000012" d="M1329.568,2134.43c2.336-1.351,4.315-3.3,6.876-4.254.033.155.1.469.131.624a17.2,17.2,0,0,0-4.465,2.8,9.407,9.407,0,0,1-2.96,1.979c.033-.187.089-.558.122-.745l.038-.239Z" transform="translate(-1200.177 -1924.259)" fill="#beab45"/>
        <path id="Trazado_1000013" data-name="Trazado 1000013" d="M900.43,2139.466a17.211,17.211,0,0,1,4.465-2.8c.591,2.537,1.248,5.07,1.59,7.659a45.5,45.5,0,0,1-.882,15.825,193.266,193.266,0,0,0-4.723,32.194c-.3,7.828-.633,15.759.971,23.479-3.893-3.03-7.716-6.219-12.105-8.518,1.721,2.275,4.47,3.387,6.688,5.085,1.82,1.454,3.832,2.776,5.136,4.765a91.627,91.627,0,0,0,3.429,11.1c.9,2.355,2.453,4.432,3.039,6.914-3.574.211-7.064-.694-10.623-.6.061.234.183.7.249.942,3.888.52,7.819.638,11.7,1.21,3.471,4.934,7.467,9.648,12.462,13.1a60.719,60.719,0,0,0,9.836,6.078,78.486,78.486,0,0,0,12.124,4.315,103.339,103.339,0,0,0,31.918,2.266c2.706-.02,5.525-.929,8.166-.155a9.232,9.232,0,0,1,.474,4.695c-5.272.769-10.6,2.082-15.093,5.065-1.5.919-1.862,2.8-3.053,4.01.253.578.521,1.158.755,1.759a12.3,12.3,0,0,0-4.5,4.4,54.288,54.288,0,0,0-12.645-9.47c1.266,1.623,3.063,2.688,4.479,4.17,2.786,2.828,6,5.333,8.091,8.766,1.313,1.961.108,4.306-.23,6.379-1.473,6.271.572,12.589,2.617,18.47a16.722,16.722,0,0,1,1.013,7.214c-8.851,1.178-17.847.492-26.7-.4a118.217,118.217,0,0,1-23.1-4.953,90.516,90.516,0,0,1-25.243-12.27,85.926,85.926,0,0,1-21.421-20.346c-2.786-3.978-5.769-7.866-7.9-12.251-6.285-11.717-9.193-25.009-9.784-38.221-.192-3.386.511-6.759.047-10.131.642-3.279,2.017-6.327,3-9.5,1.107-2.735,2.416-5.395,3.335-8.2.094-.084.281-.249.38-.333.2-.7.38-1.393.567-2.087.178-.188.535-.568.708-.755-.221.629-.446,1.262-.657,1.9a29.075,29.075,0,0,0,1.726-4.39,18.42,18.42,0,0,0,2.106-3.484c4.793-9.085,9.845-18.035,14.629-27.125,2.561-3.715,4.531-7.843,7.584-11.21a71.7,71.7,0,0,1,10.6-11.482l.319-.3c.539-.516,1.069-1.036,1.614-1.552-.033.187-.089.558-.122.745a9.41,9.41,0,0,0,2.96-1.979m146.647,112.421c1.1-1.125,1.914-2.566,3.232-3.461,1.506-.145,2.857.831,4.142,1.5,4.367,3.026,6.946,7.993,8.175,13.058,1.792,6.829.352,14.16-2.777,20.379-4.071,7.828-10.713,14-18.062,18.729-2.659-2.4-3.072-6.2-4.358-9.362-1.88-6.539-2.565-13.344-3.874-20-.3-1.666-.821-3.293-.966-4.977a23.991,23.991,0,0,1,4.338-5.423c3.222-3.635,6.8-6.932,10.15-10.441" transform="translate(-768.497 -1930.129)" fill="#fcb908"/>
        <path id="Trazado_1000014" data-name="Trazado 1000014" d="M1739.356,2179.971c.6-.173,1.192-.37,1.778-.577-.183.2-.554.586-.737.783a30.077,30.077,0,0,0,2.589,3.729c1.13,1.4,2.725,2.284,4.015,3.518,2.631,2.369,6.21,3.2,9.625,3.691a8.368,8.368,0,0,0,7.463-3.438,9.185,9.185,0,0,0,1.308-5.994c.31.108.628.216.947.323-.553,2.069-.418,4.4-1.726,6.21a8,8,0,0,1-5.67,3.358c-4.794.549-9.573-1.248-13.377-4.085-2.58-2.04-4.391-4.826-6.215-7.519" transform="translate(-1570.98 -1968.749)" fill="#9f94ae"/>
        <path id="Trazado_1000015" data-name="Trazado 1000015" d="M1594.48,2210.449c.248.075.741.22.99.3-.131.1-.389.314-.521.422a10.91,10.91,0,0,1-3.11,9.122c-3.11,2.8-7.687,2.833-11.557,1.979-4-1.013-7.983-2.955-10.563-6.262,2,1.257,3.668,3.012,5.821,4.039a22.2,22.2,0,0,0,8.466,2.359c2.739.052,5.689-.62,7.608-2.711,2.617-2.275,3.414-5.929,2.866-9.245m-38.137,50.678c1.468-7.95,2.3-16.055,4.526-23.841-.619,7.021-1.515,14.118-.544,21.154a23.133,23.133,0,0,0,2.5,8.939c.9,1.8,3.044,2.171,4.77,2.768,5.741,1.876,11.688,2.964,17.551,4.357-.192.084-.572.253-.764.342l-.267.136c-9.005-1-17.406-4.793-26.364-6.032-3.743-.516-7.275,1.482-9.854,4.029,1.44-2.927,4.578-4.46,7.6-5.239.507.126,1.013.239,1.529.352-.042-2.332.16-4.742-.685-6.965" transform="translate(-1397.915 -1996.821)" fill="#5675b8"/>
        <path id="Trazado_1000016" data-name="Trazado 1000016" d="M3641.4,2230.628a40.8,40.8,0,0,1,6.942-.164c3.274.309,6.557-.137,9.831.1,2.81-.3,4.015,3.673,2.4,5.6-.972,1.655-3.115,1.388-4.742,1.44-4.69-.084-9.385.117-14.066-.066-3.442-.31-3.522-6.041-.365-6.909m.516.9a2.848,2.848,0,0,0-1.688,3.617c.019,1.5,1.8,1.7,2.941,1.9,3.273.215,6.566.056,9.844.107a14.867,14.867,0,0,0,6.294-.9c1.469-1.115,1.412-4.324-.661-4.737-3.24-.568-6.543-.089-9.807-.239-2.3.065-4.671-.3-6.923.244" transform="translate(-3288.24 -2014.852)" fill="#7586ba"/>
        <path id="Trazado_1000017" data-name="Trazado 1000017" d="M3651.323,2239.279c2.252-.544,4.62-.178,6.923-.244,3.265.15,6.567-.328,9.808.239,2.073.413,2.129,3.621.661,4.737a14.864,14.864,0,0,1-6.294.9c-3.279-.052-6.571.108-9.845-.108-1.145-.2-2.922-.4-2.941-1.9a2.848,2.848,0,0,1,1.688-3.616m6.122,2.279c-.02.183-.057.553-.076.736,1.468-.066,2.941-.094,4.414-.061,0-.229-.01-.685-.013-.914-1.436.122-2.941-.188-4.325.239" transform="translate(-3297.652 -2022.607)" fill="#6e8fdb"/>
        <path id="Trazado_1000018" data-name="Trazado 1000018" d="M3731.374,2263.618c1.383-.427,2.889-.117,4.324-.239,0,.23.01.685.014.915-1.473-.033-2.946-.005-4.414.061.019-.183.056-.553.075-.736" transform="translate(-3371.582 -2044.666)" fill="#b8d8ff"/>
        <path id="Trazado_1000019" data-name="Trazado 1000019" d="M3200.391,2363.361c4.3-.469,8.635-.01,12.955-.1q39.609,0,79.224,0c4.123.033,8.25-.168,12.373.089-2.692.446-5.435.071-8.151.215-17.978-.037-35.956.014-53.934-.028-11.135.042-22.266-.1-33.4.117a52.766,52.766,0,0,1-9.072-.3" transform="translate(-2891.672 -2134.85)" fill="#c9d4f5"/>
        <path id="Trazado_1000020" data-name="Trazado 1000020" d="M2153.613,2381.641c1.337,1.618,2.021,3.64,3.058,5.45,1.6,3.25,3.762,6.266,4.775,9.784.967,3.6-.338,7.233-1.187,10.713a18.327,18.327,0,0,0,.451,11.139c1.153,3.03,2.316,6.172,4.474,8.648a18.9,18.9,0,0,1,4.77-7.18,6.715,6.715,0,0,0,1.9-4.282c.1.291.291.882.389,1.173-.867,1.895-1.482,3.9-2.467,5.736-1.829,3.49-3.325,7.139-5.094,10.661,0-.4-.009-1.2-.009-1.594a22.2,22.2,0,0,1-6.351-7.458,8.877,8.877,0,0,1-1.547-3.325c.127-1.051-.971-1.45-1.586-2.036-.122-3.893.924-7.7,1.773-11.468.929-3.39,2.007-6.843,1.59-10.407-.694-5.445-3.25-10.389-4.939-15.553" transform="translate(-1945.444 -2151.569)" fill="#5875b7"/>
        <path id="Trazado_1000021" data-name="Trazado 1000021" d="M502.734,2382.666c1.9,1.191,3.26,3.025,4.883,4.55,11.834,12.082,23.372,24.465,35.426,36.331-.1.084-.286.249-.38.333-1.956.061-3.907,0-5.863-.07.216-.122.652-.366.872-.488,1.421.019,2.842.089,4.268.146-11.14-11.454-22.307-22.884-33.325-34.455-1.928-2.148-4.263-3.94-5.882-6.346m346.3,24.511a8.275,8.275,0,0,1,2.988-2.688c.924,3.645,1.154,7.749,3.818,10.671,1.224,1.219,2.106,3.152,1.257,4.826a5.11,5.11,0,0,1-2.95,2.594c.056-1.06.366-2.477-.825-3.039a6.044,6.044,0,0,0-6.754,1.641,16.03,16.03,0,0,0-3.621,6.131c-1.393,3.372-2.842,6.941-5.623,9.427.253-3.194.689-6.369,1.177-9.535.347-2.9,2.2-5.272,3.55-7.767,2.444-4.02,4.268-8.4,6.984-12.261" transform="translate(-453.145 -2152.496)" fill="#d1eae4"/>
        <path id="Trazado_1000022" data-name="Trazado 1000022" d="M3733.22,2444.463a4.9,4.9,0,0,1,5.174-.464,2.236,2.236,0,0,1,.168,2.913c-1.7,3.006-5.112,4.31-7.438,6.7a16,16,0,0,0-.023,4.634c.544,6.5,1.121,13.048.117,19.531,3.917-5.3,6.248-11.585,9.85-17.1a13.475,13.475,0,0,1,3.64-3.1,10.7,10.7,0,0,1,3.836-1.918,8.215,8.215,0,0,1,8.879,3.546,2.633,2.633,0,0,1,.2,2.983c-2.13,1.247-4.611.038-6.661-.8-2.19-.858-4.4-2.364-6.848-1.947a8.278,8.278,0,0,0-2.988,2.688c-2.715,3.86-4.54,8.24-6.983,12.26-1.355,2.5-3.2,4.864-3.551,7.768-.487,3.166-.923,6.341-1.177,9.535,2.781-2.486,4.231-6.055,5.624-9.427a16.03,16.03,0,0,1,3.621-6.13,6.043,6.043,0,0,1,6.753-1.641c1.192.563.882,1.979.827,3.039-.545.315-1.075.652-1.6.976-2.472,1.473-5.16,2.528-7.7,3.874-1.74.826-2.3,2.8-3.184,4.353-1.309,2.683-3.5,4.789-4.865,7.439a12.343,12.343,0,0,0-2.842-5.891c-1.792-1.262-3.913-1.985-5.629-3.363-2.293-1.783-5.065-4.1-4.691-7.336,3.12-.643,6.084,1.247,8.091,3.48,2.6,2.941,2.829,7.092,4.873,10.347.287-2.608.619-5.211,1.051-7.8.431-1.877-.656-3.588-1.135-5.343-.577-1.473-.938-3.494-2.683-4a37.153,37.153,0,0,1-8.4-3.424,5.3,5.3,0,0,1-2.074-2.247c-.2-1.21,1.018-2.012,2.079-2.1,2.678-.329,5.271,1.06,7.139,2.894,2.823,3.063,4.071,7.19,5.238,11.1,1.206-3.987,1.15-8.232,1.206-12.359.141-2.884-1.487-5.4-3.175-7.584-1.107-1.276-2.05-3.03-3.809-3.429-5.516-.2-10.441,3.091-15.943,2.992a8.284,8.284,0,0,1-4.559-1.008,3.105,3.105,0,0,1-1.093-4.113,10.85,10.85,0,0,1,9.859-5.549c3.55.042,6.824,1.82,9.591,3.917a52.57,52.57,0,0,1,8.8,10.08,93.3,93.3,0,0,1-.343-14.02,7.951,7.951,0,0,1,2.786-4.958" transform="translate(-3345.23 -2207.444)" fill="#65938e"/>
        <path id="Trazado_1000023" data-name="Trazado 1000023" d="M1444.222,2460.425c-.145-3.344,1.126-6.538.99-9.887.1.83.249,1.655.366,2.486,0,2.251.164,4.554-.521,6.735-.839,2.987-.108,6.13-.732,9.15-.431,1.938-.394,3.959-.989,5.863a47.179,47.179,0,0,1,.15-7.767,59.806,59.806,0,0,0,.736-6.581" transform="translate(-1303.317 -2213.847)" fill="#aea394"/>
        <path id="Trazado_1000024" data-name="Trazado 1000024" d="M2330.441,2530.6l.619-.526c.057.2.174.6.23.8,3.241.474,6.534-.614,9.76.108a11.326,11.326,0,0,1-.694,2.022c-2.215,4.085-4.419,8.17-6.571,12.289-2.379,4.39-4.222,9.085-6.984,13.25l-.609.107c.075.244.235.728.31.971-1.027,2.12-1.975,4.277-3.016,6.393-.99,1.811-1.923,3.649-2.823,5.5-2.2.094-4.4.206-6.591.361-6.491.446-13,.577-19.483,1.036-3.016.24-6.055-.094-9.066.263-7.219.291-14.362,1.449-21.557,2.021.685-3.7,2.927-6.815,4.259-10.276,5.286-10.549,9.953-21.393,15.243-31.936,1.689-.877,3.659-.53,5.488-.657,2.94.117,5.858-.464,8.8-.328,3.48.173,6.951-.192,10.427-.249,7.3-.145,14.606-.469,21.908-.628l.01-.01c.084-.126.258-.384.342-.511m-27.687,18.752a6.656,6.656,0,0,0-4.554,5.995,3.753,3.753,0,0,0,3.883,3.672c3.945.324,7.688-4.123,6.191-7.917-.765-2.2-3.626-2.425-5.521-1.75" transform="translate(-2045.196 -2285.747)" fill="#d7d7d7"/>
        <path id="Trazado_1000025" data-name="Trazado 1000025" d="M2261.906,2559.615c.558-1.131,1.97-.867,2.978-.7-5.291,10.543-9.958,21.388-15.243,31.936-1.332,3.461-3.574,6.575-4.259,10.276-.151.01-.451.029-.6.034-.465-.765-.905-1.539-1.375-2.3q.035-.7.084-1.393a13.172,13.172,0,0,0,2.359-3.879c1.769-3.523,3.265-7.172,5.094-10.661.985-1.838,1.6-3.842,2.467-5.736,3.162-5.689,5.633-11.74,8.494-17.58" transform="translate(-2026.614 -2311.677)" fill="#fbfefe"/>
        <path id="Trazado_1000026" data-name="Trazado 1000026" d="M2899.011,2680.394c6.951-3.438,14.08-6.5,20.989-10.033a164.8,164.8,0,0,1-4.183,16.974c-2.472,7.852-5.371,15.675-9.85,22.626a77.7,77.7,0,0,1-9.766,11.6,15.7,15.7,0,0,0-3.428-2.885c3.265-4.46,6.112-9.723,5.825-15.422-.131-3.109-.718-6.656-3.273-8.733-3.391-2.445-7.81-1.834-11.731-1.7,1.042-2.116,1.989-4.273,3.016-6.394,4.165-1.951,8.241-4.08,12.4-6.036" transform="translate(-2605.306 -2412.555)" fill="#64938e"/>
        <path id="Trazado_1000027" data-name="Trazado 1000027" d="M1599.788,2681.982a23.765,23.765,0,0,0,6.867,2.931,28.577,28.577,0,0,0,6.787.474c1.782.066,3.475-.807,5.258-.567a21.983,21.983,0,0,1-15.4-.409c-1.285-.6-2.739-1.168-3.513-2.429m-15.694,29.45c7.715-.014,15.436-.042,23.151-.024,3.368-.079,6.735-.248,10.108-.154-3.621.848-7.378.586-11.036,1.158-.422.047-.839.094-1.252.136-4.7.221-9.414.235-14.109.488-.525.089-1.328.047-1.492.708-.839,2.148-.741,4.508-.928,6.768a46.9,46.9,0,0,1-5.352-1.384l-.122-.68c-.113-2.4.774-4.667,1.032-7.017" transform="translate(-1429.691 -2423.059)" fill="#5577c2"/>
        <path id="Trazado_1000028" data-name="Trazado 1000028" d="M1627,2744.65a19.207,19.207,0,0,1,.845-6.613c.844,2.223.642,4.634.684,6.965-.516-.113-1.022-.225-1.529-.352m18.925,54.459a82.409,82.409,0,0,0,10.647,1.745c3.063.628,6.205,0,9.3.375a54.66,54.66,0,0,1-12.194-.323c-2.613-.375-5.422-.409-7.749-1.8" transform="translate(-1469.413 -2473.73)" fill="#d1a96e"/>
        <path id="Trazado_1000029" data-name="Trazado 1000029" d="M2156.337,2771.29c.615.586,1.712.985,1.586,2.036a8.882,8.882,0,0,0,1.548,3.325,22.2,22.2,0,0,0,6.351,7.458c0,.4.01,1.2.01,1.595a13.2,13.2,0,0,1-2.359,3.879c-.507-.047-1.013-.076-1.515-.1a10.043,10.043,0,0,0-.394-2.191l-.23-.436a31.278,31.278,0,0,0-4.6-4.456c-.624-.6-1.243-1.219-1.853-1.829l.231-.577a15.584,15.584,0,0,1,.829-1.848c.109-.187.324-.558.427-.746.169-1.262.206-2.533.277-3.794.319.028.957.093,1.276.122a5.837,5.837,0,0,0-1.646-1.745c.014-.174.047-.521.061-.694" transform="translate(-1946.592 -2503.789)" fill="#dea60b"/>
        <path id="Trazado_1000030" data-name="Trazado 1000030" d="M2166.252,2778.516a5.848,5.848,0,0,1,1.646,1.745c-.319-.028-.957-.094-1.276-.122-.071,1.261-.107,2.532-.277,3.794-.1.188-.319.558-.427.746a36.132,36.132,0,0,1,.333-6.163" transform="translate(-1956.568 -2510.321)" fill="#ceaf4b"/>
        <path id="Trazado_1000031" data-name="Trazado 1000031" d="M1939.858,2860.807c2.922-.427,5.849-1.412,8.823-.788l-.23.577-.628.038c-3.166.168-6.407.22-9.451,1.2l-.08.009c-2.467.188-4.86,1.154-7.359.877a17.215,17.215,0,0,0-4.418-.094c.033-.2.089-.6.117-.792.193-.089.573-.258.765-.343a35.456,35.456,0,0,0,5.9.394c2.209-.22,4.371-.755,6.567-1.083" transform="translate(-1740.16 -2583.812)" fill="#aa8fa4"/>
        <path id="Trazado_1000032" data-name="Trazado 1000032" d="M1248.731,2872.07c4.39,2.3,8.213,5.488,12.106,8.518a45.725,45.725,0,0,1,6.524,6.636,94.763,94.763,0,0,0,6.36,8.584c1.9,2.256,3.138,5.122,5.746,6.726l.488-.976c-.188-2.607-.657-5.291.239-7.828-.22,4.169-.5,8.743,1.89,12.4a27.134,27.134,0,0,0,1.726,2.345c-1.745-.892-2.293-2.81-3.274-4.348a49.463,49.463,0,0,0-10.628-2.5l.267-.75a71.4,71.4,0,0,1,7.673,1.491c-1.627-1.759-3.133-3.621-4.756-5.375-2.767-4.071-5.225-8.419-8.715-11.937-1.173-1.158-2.143-2.678-3.823-3.133-1.3-1.989-3.316-3.311-5.136-4.765-2.218-1.7-4.967-2.81-6.688-5.084" transform="translate(-1127.483 -2594.889)" fill="#fccb77"/>
        <path id="Trazado_1000033" data-name="Trazado 1000033" d="M2049.951,2869.516c3.044-.985,6.285-1.037,9.451-1.206a9.491,9.491,0,0,1,2.87,2.684c1.168,1.392,2.641,2.49,3.865,3.836a2.205,2.205,0,0,1,.633,2.045,31.638,31.638,0,0,1-5.642-3.119,8.655,8.655,0,0,0,3.508,2.349c0,.948-.99,1.125-1.66.657a12.651,12.651,0,0,0-4.385-1.463c-1.482-.929-2.777-2.181-4.47-2.734s-2.866-1.928-4.17-3.049m6.158,0c1.023,1.3,2.551,2.035,3.855,3.025l-.089-.69-.371.028a7.2,7.2,0,0,0-3.4-2.364" transform="translate(-1851.74 -2591.49)" fill="#e89c83"/>
        <path id="Trazado_1000034" data-name="Trazado 1000034" d="M1843.561,2881l.267-.136c-.028.2-.085.6-.117.793a17.34,17.34,0,0,0,.366,6.576c.615,1.67,2.659,1.989,4.207,1.7-.033.206-.1.623-.136.829l-.028.164c-1.037.019-2.069.047-3.1.109-3.372-.094-6.74.075-10.107.154,3.128-.178,6.257-.309,9.39-.422a14.172,14.172,0,0,1-.741-9.765" transform="translate(-1657.358 -2602.833)" fill="#272743"/>
        <path id="Trazado_1000035" data-name="Trazado 1000035" d="M1929.646,2881.834c2.5.277,4.892-.689,7.359-.877a19.7,19.7,0,0,0,2.8,2.575c-1.051.127-2.092.291-3.133.469,1.768,0,3.724-.577,5.314.493,1.67,1.018,3.565,1.994,4.446,3.841a15.424,15.424,0,0,1-3.729-.835,27.6,27.6,0,0,1-3.1-.657c-.042-.249-.122-.737-.159-.98a28.875,28.875,0,0,0-4.09,2.251c-1.8.8-3.743,1.154-5.558,1.9-1.548.291-3.593-.028-4.207-1.7a3.834,3.834,0,1,1,4.052-6.482" transform="translate(-1738.875 -2602.922)" fill="#e69d84"/>
        <path id="Trazado_1000036" data-name="Trazado 1000036" d="M1887.313,2901.149c-2.068-1.768-2.767-5.454-.483-7.349-.168,1.44-.985,2.833-.6,4.305.215,1.07,1.238,1.871,1.079,3.044" transform="translate(-1703.004 -2614.531)" fill="#6e90da"/>
        <path id="Trazado_1000037" data-name="Trazado 1000037" d="M1757.217,2908.164c.9-1.852,1.834-3.691,2.824-5.5,3.921-.131,8.339-.741,11.73,1.7,2.556,2.077,3.142,5.624,3.274,8.733.286,5.7-2.561,10.961-5.825,15.421-.333.427-.666.858-1,1.285-.938,1.093-1.82,2.233-2.659,3.41-1.083,1.215-2.068,2.518-3.166,3.724-1.487.323-2.247,1.717-3.2,2.753a3.387,3.387,0,0,0-.788,1.867c-1.294,1.464-2.627,2.9-4.048,4.245-3.5,1.562-5.333,5.357-8.63,7.251-2.5-7.242-3.138-15-3.025-22.612a48.213,48.213,0,0,1,1.857-11.214,9.479,9.479,0,0,1,3.747-.938c0-.066-.01-.192-.014-.258a13.716,13.716,0,0,0-3.551.821c.812-4.01,3.663-7.05,5.887-10.328,2.195-.155,4.39-.268,6.59-.361m-11.139,8.823a42.863,42.863,0,0,0,4.188-2.7c.01-.174.023-.511.028-.68a9.36,9.36,0,0,0-4.216,3.382m-45.557-5.141c7.195-.572,14.338-1.73,21.557-2.021,2.936.7,6.074-.3,8.925.694,4.147,3.2,5.994,8.527,6.885,13.522.033.188.094.563.126.751a191.623,191.623,0,0,1,3.26,19.844c.642,5.563,1.651,11.14,1.294,16.759-.132,2.716.882,5.3.943,8.011a30.4,30.4,0,0,0,.943,5.938c-4.5,3.195-9.826,4.874-15.094,6.3a23.131,23.131,0,0,1-6.187,1c-1.144-1.032-1.548-2.617-2.247-3.944-3.743-7.7-6.59-15.792-9.508-23.831a72.431,72.431,0,0,1-2.068-7.735c-.661-2.767-.732-5.633-1.491-8.377-.066.333-.192.994-.258,1.328l-.178.309a20.235,20.235,0,0,0-.68-4.723,6.736,6.736,0,0,0-1.341-.731c-.066-1.717-.061-3.433-.188-5.141-1,2.017-.651,4.31-.446,6.464a4.941,4.941,0,0,0-2.2.328,117.642,117.642,0,0,1-15.5,4.221c-10.385,2.026-21.364,2.439-31.552-.8-4.109-1.444-8.288-3.334-11.163-6.73-3.157-3.644-4.057-8.738-3.6-13.419,6.1.717,12.162-.634,17.978-2.345,3.663-1.023,7.308-2.144,11.041-2.9,10-1.346,20.112-1.651,30.145-2.744.15,0,.45-.023.6-.033" transform="translate(-1481.751 -2622.395)" fill="#324c65"/>
        <path id="Trazado_1000038" data-name="Trazado 1000038" d="M2031.983,2934.283a28.849,28.849,0,0,1,4.09-2.251c.037.244.117.731.159.98-1.177.605-2.369,1.191-3.583,1.717Z" transform="translate(-1835.498 -2649.091)" fill="#936876"/>
        <path id="Trazado_1000039" data-name="Trazado 1000039" d="M1978.8,2943.953c1.214-.526,2.406-1.111,3.583-1.717a27.457,27.457,0,0,0,3.1.657c.5.469,1,.952,1.5,1.435-.107.211-.323.629-.436.839-4.7.536-9.418.924-14.132,1.233l.028-.164c2.368.085,4.264-1.44,6.36-2.284" transform="translate(-1781.649 -2658.315)" fill="#7b93eb"/>
        <path id="Trazado_1000040" data-name="Trazado 1000040" d="M2108.447,2949.072a15.454,15.454,0,0,0,3.729.835h1.173c.662-.018,1.323-.037,1.989-.052.258.113.77.343,1.028.455-2.172.859-4.583.605-6.853,1.037.113-.211.329-.628.437-.84-.5-.482-1-.966-1.5-1.435" transform="translate(-1904.617 -2664.494)" fill="#867e98"/>
        <path id="Trazado_1000041" data-name="Trazado 1000041" d="M2142.774,2945.724a6.718,6.718,0,0,1,3.593,1.1c-.666.014-1.327.033-1.989.051a1.759,1.759,0,0,1-1.6-1.148m187.739,15.736a23.632,23.632,0,0,0,2.045-5.535c3.457.544,6.974.366,10.454.582,3.823.113,7.636.417,11.43.882,1.951.347,4.09.286,5.75,1.538-6.162,1.768-12.612,1.717-18.934,2.35-3.583.113-7.162.216-10.746.183" transform="translate(-1935.646 -2661.46)" fill="#dcbcb3"/>
        <path id="Trazado_1000042" data-name="Trazado 1000042" d="M1972.841,2957.369c1.815-.746,3.762-1.1,5.558-1.9l.666.446c-2.1.844-3.992,2.368-6.36,2.284.033-.207.1-.624.136-.83" transform="translate(-1781.914 -2670.276)" fill="#8988b2"/>
        <path id="Trazado_1000043" data-name="Trazado 1000043" d="M1860.365,2960.792c1.205-.052,2.406-.141,3.616-.122.5.024,1.008.052,1.515.1q-.049.69-.085,1.393c.47.76.91,1.534,1.374,2.3-10.033,1.092-20.145,1.4-30.145,2.743-2.369.146-4.756-.028-7.115.314a13.67,13.67,0,0,1-3.733.23c-.7-.971-.409-2.3-.549-3.419,3.658-.572,7.416-.31,11.037-1.158,1.032-.061,2.064-.089,3.1-.107,4.713-.31,9.432-.7,14.132-1.234,2.27-.431,4.681-.178,6.852-1.036" transform="translate(-1648.617 -2674.975)" fill="#dbdfe5"/>
        <path id="Trazado_1000044" data-name="Trazado 1000044" d="M2497.446,2966.271c6.487-.46,12.992-.591,19.483-1.036-2.223,3.278-5.075,6.317-5.886,10.328a19.192,19.192,0,0,0-6.853,5.188c-.891-5-2.739-10.324-6.885-13.522-2.852-.99-5.99.009-8.926-.694,3.011-.357,6.051-.024,9.067-.263" transform="translate(-2248.054 -2679.103)" fill="#213041"/>
        <path id="Trazado_1000045" data-name="Trazado 1000045" d="M1371.826,2974.609c1.679.456,2.65,1.975,3.823,3.133,3.49,3.518,5.947,7.866,8.715,11.937,1.623,1.754,3.128,3.616,4.756,5.375a71.293,71.293,0,0,0-7.673-1.491,9.678,9.678,0,0,1-3.152-.938c-.586-2.481-2.139-4.558-3.039-6.913a91.791,91.791,0,0,1-3.429-11.1" transform="translate(-1238.754 -2687.578)" fill="#e2a409"/>
        <path id="Trazado_1000046" data-name="Trazado 1000046" d="M794.58,3007.117c.962-3.71,1.473-7.537,2.9-11.121.464,3.373-.239,6.745-.047,10.131.591,13.213,3.5,26.5,9.784,38.221,2.129,4.385,5.112,8.273,7.9,12.251a85.925,85.925,0,0,0,21.421,20.346,90.539,90.539,0,0,0,25.243,12.271,118.262,118.262,0,0,0,23.1,4.952c8.851.891,17.847,1.576,26.7.4a16.721,16.721,0,0,0-1.013-7.214c-2.045-5.881-4.09-12.2-2.617-18.47.338-2.073,1.543-4.418.23-6.379-2.092-3.433-5.3-5.938-8.091-8.766-1.416-1.482-3.213-2.547-4.479-4.17a54.287,54.287,0,0,1,12.645,9.469,12.3,12.3,0,0,1,4.5-4.4c.4,3.588.807,7.261.127,10.849-.553,3.522-1.552,6.96-1.923,10.515a12.743,12.743,0,0,0,5.722,14.132c.183.1.549.3.732.408-.258.966.783,1.562,1.632,1.355a8.221,8.221,0,0,0-.778-1.036,10.763,10.763,0,0,0,3.255,1.609c-.408.01-1.224.033-1.632.042a7.376,7.376,0,0,0,8.2-1.173c1.45-1.482,2.791-3.4,2.669-5.567a38.58,38.58,0,0,0-.211-3.9,27.12,27.12,0,0,1-.225-5.943,37.7,37.7,0,0,1,1.979-6.82c1.135-2.261,2.856-4.133,4.146-6.295a24.155,24.155,0,0,1,1.782-2.008l.432-.394a86.405,86.405,0,0,1,5.83-6.4c2.308,3.123,2.791,7.209,5,10.407.023-.253.066-.755.084-1.008.507,1.229,1.065,2.444,1.576,3.682a11.571,11.571,0,0,0,1.637,3.349c1.149,1.107,2.894.962,4.371.98-.094.155-.277.474-.37.634.779-.029,1.7-.5,2.4-.047a59.615,59.615,0,0,0,3.64,7.668c1.609,2.678,1.928,5.886,2.059,8.945-.019.995.76,1.774.835,2.754-.108,2.791,1.426,5.333.995,8.156-3.706.488-7.453.4-11.158.873-4.006.113-8.021.08-12.007.492q-18.285.367-36.57.258c-7.514-.141-15.046.052-22.542-.562-4.38.028-8.742-.45-13.123-.5-14.746-1.013-29.558-2.049-44.07-5.028-2.476-.605-5.07-.957-7.359-2.135a52.077,52.077,0,0,1-17.148-16.721c-1.806-3.1-3.851-6.107-5.145-9.483A74.037,74.037,0,0,1,792.4,3047.3a118.071,118.071,0,0,1,1.412-35.646c.371-1.491.427-3.044.769-4.535m147.365,70.945a10.192,10.192,0,0,0-5.605,5.671c-1.463,3.536-3.33,7.016-3.63,10.9a90.723,90.723,0,0,0,21.059-3.368c-2.978-3.935-6.51-7.42-9.329-11.491-.647-.727-1.285-2.293-2.5-1.712" transform="translate(-714.297 -2706.91)" fill="#e2a308"/>
        <path id="Trazado_1000047" data-name="Trazado 1000047" d="M1812.208,2998.915c.412-.042.83-.089,1.252-.136.141,1.121-.154,2.448.549,3.419a13.67,13.67,0,0,0,3.733-.23c2.359-.342,4.746-.168,7.115-.314-3.734.755-7.378,1.876-11.041,2.9-.014-2.017-1.571-3.593-1.608-5.638" transform="translate(-1636.834 -2709.426)" fill="#8ea5e2"/>
        <path id="Trazado_1000048" data-name="Trazado 1000048" d="M1641.066,3001.391c.164-.661.966-.619,1.491-.708,4.7-.253,9.409-.267,14.109-.487.037,2.045,1.595,3.621,1.609,5.638-5.816,1.712-11.88,3.062-17.978,2.345l-.16-.019c.188-2.261.089-4.62.928-6.769" transform="translate(-1481.292 -2710.706)" fill="#81a5f4"/>
        <path id="Trazado_1000049" data-name="Trazado 1000049" d="M2738.233,3021.5a9.36,9.36,0,0,1,4.217-3.382c-.005.169-.02.507-.028.68a42.912,42.912,0,0,1-4.188,2.7" transform="translate(-2473.907 -2726.905)" fill="#516a86"/>
        <path id="Trazado_1000050" data-name="Trazado 1000050" d="M3607.924,3055.975c3.414-.737,6.914-.765,10.379-1.121,4.428-.076,8.846-.437,13.273-.417a21.769,21.769,0,0,0,1.666,5.473,198.832,198.832,0,0,1-24.333-1.445,25.367,25.367,0,0,1-4.611-1.045c.76-1.253,2.364-1.164,3.626-1.445" transform="translate(-3256.78 -2759.737)" fill="#dcbeb6"/>
        <path id="Trazado_1000051" data-name="Trazado 1000051" d="M1574.942,3065.073c.225-1.153.455-2.3.661-3.452l.122.681c.164,1.754-.15,3.541.282,5.276.23,1.754-.478,3.508-.1,5.272.141,1.589,1.351,2.969.929,4.625-2.392-3.659-2.111-8.232-1.891-12.4" transform="translate(-1422.231 -2766.231)" fill="#353418"/>
        <path id="Trazado_1000052" data-name="Trazado 1000052" d="M1584.424,3068.7a46.871,46.871,0,0,0,5.352,1.384l.159.019c-.455,4.681.446,9.775,3.6,13.419,2.875,3.4,7.054,5.286,11.163,6.73,10.188,3.237,21.167,2.824,31.552.8a117.543,117.543,0,0,0,15.5-4.221,4.94,4.94,0,0,1,2.2-.329,44.247,44.247,0,0,0,.868,5.647c-.437.145-.868.309-1.29.488-1.543.666-3.1,1.3-4.648,1.951a1.261,1.261,0,0,0-2.138.756l-.357.029c-3.527-.118-6.674,1.871-10.136,2.274a78.938,78.938,0,0,0-7.973,1.318c-6.726.375-13.606.4-20.131-1.5a8.234,8.234,0,0,0-2.627-.174c-.089-.028-.262-.079-.352-.107a5.089,5.089,0,0,0-4.751-1.768,46.779,46.779,0,0,1-10.534-6.524l.014-.22a1.28,1.28,0,0,0-1.5-1.482l-.211,0c-.3-.329-.615-.657-.924-.975a27.268,27.268,0,0,1-1.726-2.345c.422-1.656-.788-3.035-.928-4.625-.375-1.764.333-3.518.1-5.272-.431-1.735-.117-3.522-.281-5.277" transform="translate(-1430.931 -2772.632)" fill="#223243"/>
        <path id="Trazado_1000053" data-name="Trazado 1000053" d="M2654.3,3082.223c1.337-2.622,4.02-4.235,6.543-5.563a48.252,48.252,0,0,0-1.857,11.215c-.113,7.617.521,15.37,3.025,22.612,3.3-1.9,5.126-5.689,8.63-7.251-3.747,3.7-7.364,7.551-11.393,10.943a37.079,37.079,0,0,0,.215,5.582c.7,4.864,1.211,9.75,1.891,14.615a5.093,5.093,0,0,0-.089,1.623c-.089.23-.258.695-.347.924a15.306,15.306,0,0,1-2.786,2.3,18.679,18.679,0,0,1,2.416-3.04,19.861,19.861,0,0,0,.179-2.472c0-.234.009-.7.014-.937a30.4,30.4,0,0,1-.943-5.938c-.061-2.706-1.074-5.3-.943-8.01.356-5.619-.652-11.2-1.294-16.759a191.458,191.458,0,0,0-3.26-19.845" transform="translate(-2398.035 -2779.826)" fill="#213242"/>
        <path id="Trazado_1000054" data-name="Trazado 1000054" d="M3603.91,3083.469a25.4,25.4,0,0,0,4.612,1.046,198.917,198.917,0,0,0,24.333,1.444q9.2.092,18.4-.173c3.583.033,7.162-.07,10.746-.183,6.323-.634,12.772-.582,18.935-2.35a41.979,41.979,0,0,1,.019,5.746,3.723,3.723,0,0,1-2.026,1.145,49.618,49.618,0,0,1-8.367,1.482c-2.374.4-4.775.535-7.167.755-.084.263-.249.784-.329,1.046-.051-.229-.154-.689-.206-.919-.173,0-.52-.019-.694-.023-3.25.018-6.5.155-9.746.29-.047.094-.146.272-.193.361-2.635-.615-5.351-.168-8.025-.29-6.323.188-12.645-.169-18.971-.132a51.9,51.9,0,0,1-7.529-.549,60.777,60.777,0,0,1-11.842-1.848,3.238,3.238,0,0,1-1.787-1.36,30.687,30.687,0,0,1-.165-5.487m12.28,21.673c2.4-.019,4.8,0,7.2.151-1.736,11.838-3.593,23.658-5.169,35.515-.5,3.7-1.093,7.392-1.571,11.1-.567,4.887-1.407,9.742-1.923,14.634a11.066,11.066,0,0,1-.637,3.179,2.806,2.806,0,0,1-3.987-.079c-.741-.695-.456-1.8-.427-2.678.525-4.667.919-9.343,1.407-14.014q.436-4.538.934-9.067c1.309-12.922,2.762-25.829,4.174-38.737" transform="translate(-3256.393 -2785.785)" fill="#bf8f86"/>
        <path id="Trazado_1000055" data-name="Trazado 1000055" d="M1328.565,3155.8c3.56-.088,7.049.817,10.623.6a9.689,9.689,0,0,0,3.152.938l-.268.75c-.389-.032-1.168-.1-1.557-.14-3.883-.572-7.814-.689-11.7-1.21-.066-.239-.187-.708-.248-.943m28.334,10.122.211,0a2.741,2.741,0,0,0,1.5,1.482l-.014.22a1.274,1.274,0,0,1-1.7-1.7m66.635,4.953c.136.01.408.028.544.043-.23,1.923.647,3.818.328,5.75-.511.849-1.037,1.7-1.543,2.557.882-2.363,1.665-4.887.7-7.369-.328-.126-.994-.37-1.323-.492.422-.178.854-.342,1.29-.488m-16.355,5.633c2.43-.605,4.864-1.215,7.237-2.017a2.519,2.519,0,0,1-1.506,1.032c-1.895.417-3.757,1.15-5.731.985m-10.342,1.815c3.26-.456,6.524-.891,9.723-1.66a3.875,3.875,0,0,1-1.562.825c-2.678.586-5.4,1.258-8.161.835" transform="translate(-1199.648 -2851.359)" fill="#ffcd51"/>
        <path id="Trazado_1000056" data-name="Trazado 1000056" d="M4220.5,3171.166c2.393-.221,4.794-.356,7.167-.755.615,4.78.909,9.6,1.242,14.4a8.025,8.025,0,0,0-.948-.966,47.278,47.278,0,0,0-6.271-.033c-.474-3.874-1-7.739-1.519-11.6.08-.263.245-.783.329-1.046" transform="translate(-3813.49 -2864.572)" fill="#a4736c"/>
        <path id="Trazado_1000057" data-name="Trazado 1000057" d="M3733.645,3176.025a51.841,51.841,0,0,0,7.528.548c-.475,4.212-1.243,8.387-1.844,12.58-2.4-.151-4.8-.169-7.2-.151.516-4.324,1.112-8.639,1.515-12.978" transform="translate(-3372.333 -2869.647)" fill="#a3736b"/>
        <path id="Trazado_1000058" data-name="Trazado 1000058" d="M1452.979,3178.271c.389.038,1.168.108,1.557.141a49.392,49.392,0,0,1,10.628,2.5c.98,1.539,1.529,3.456,3.274,4.348.31.318.619.647.924.975a1.274,1.274,0,0,0,1.7,1.7,46.811,46.811,0,0,0,10.534,6.524,23.011,23.011,0,0,0,4.751,1.768c.089.029.263.08.352.108.643.22,1.285.465,1.923.718,2.327,1.388,5.136,1.421,7.749,1.8a54.663,54.663,0,0,0,12.195.324c-3.091-.375-6.233.253-9.3-.375,3.344-.029,6.688-.014,10.032-.16,2.758.422,5.483-.248,8.161-.834a3.877,3.877,0,0,0,1.562-.827c.155-.037.464-.116.619-.154,1.975.165,3.837-.567,5.731-.985a2.516,2.516,0,0,0,1.506-1.032c.174-.1.516-.3.685-.394l.357-.027a4.675,4.675,0,0,0,2.139-.756c1.548-.652,3.1-1.285,4.648-1.951.329.122.995.365,1.323.492.962,2.481.178,5-.7,7.368a26.19,26.19,0,0,1-2.763,4.17c-.614.74-1.557,1.557-1.28,2.635.417.8,1.543,1.76.455,2.552-1.261-.132-2.519-.292-3.78-.324a9.229,9.229,0,0,0-.473-4.695c-2.641-.774-5.46.136-8.166.155a103.336,103.336,0,0,1-31.918-2.265,78.416,78.416,0,0,1-12.124-4.315,60.721,60.721,0,0,1-9.836-6.078c-5-3.457-8.991-8.171-12.462-13.105" transform="translate(-1312.112 -2871.677)" fill="#e2a508"/>
        <path id="Trazado_1000059" data-name="Trazado 1000059" d="M2730.884,3174.675c.338-.427.671-.859,1-1.286a15.718,15.718,0,0,1,3.428,2.885,52.142,52.142,0,0,1,8.926,10.549,53.628,53.628,0,0,1,8.382,23.666c.2,2.646.126,5.306.108,7.96a41.68,41.68,0,0,1-2.729,13.588q-.394,1.125-.732,2.27c-.089-.267-.173-.526-.249-.778a8.4,8.4,0,0,1-1.4,3.9,43.758,43.758,0,0,1-8.987,11.27,6.942,6.942,0,0,1-2.3,1.365.949.949,0,0,1,.441.436c-1.168.676-2.336,1.351-3.551,1.942a74.95,74.95,0,0,1-7.007-3.222c-1.027-1.852-3.377-2.129-5.009-3.255-3.359-2.27-7.058-4.1-9.962-6.98a5.6,5.6,0,0,0-1.543-.9c-2.1-3.443-2.828-7.42-3.973-11.229a5.925,5.925,0,0,0,1.576-2.5c.089-.229.259-.694.347-.924a.821.821,0,0,0,.089-1.622c-.679-4.864-1.187-9.751-1.89-14.615a37.021,37.021,0,0,1-.216-5.582c4.029-3.391,7.646-7.246,11.393-10.943,1.421-1.341,2.753-2.781,4.048-4.244a36.669,36.669,0,0,0,3.987-4.621c1.1-1.2,2.082-2.509,3.166-3.723,1.356-.652,2.88-1.68,2.659-3.41M2723,3189.021c-3.353,3.509-6.927,6.806-10.15,10.441a24.029,24.029,0,0,0-4.339,5.422c.145,1.685.666,3.311.966,4.977,1.309,6.661,1.993,13.465,3.874,20,1.285,3.167,1.7,6.961,4.357,9.362,7.35-4.733,13.991-10.9,18.062-18.728,3.129-6.219,4.568-13.551,2.777-20.38-1.229-5.065-3.808-10.033-8.175-13.058-1.285-.67-2.636-1.646-4.142-1.5-1.318.9-2.129,2.336-3.231,3.461" transform="translate(-2444.42 -2867.263)" fill="#e2a408"/>
        <path id="Trazado_1000060" data-name="Trazado 1000060" d="M4107.189,3179.637c3.247-.135,6.5-.272,9.747-.291-2.195,4.071-3.62,8.5-5.881,12.537-1.167,1.881-2.026,4.048-3.837,5.431-.07-2.763-.052-5.53-.168-8.288,0-3.011-.154-6.021-.052-9.029.047-.089.145-.267.192-.361" transform="translate(-3711.161 -2872.649)" fill="#d1e9e5"/>
        <path id="Trazado_1000061" data-name="Trazado 1000061" d="M4023.781,3182.7c2.673.122,5.389-.324,8.025.291-.1,3.008.056,6.018.051,9.029-.051.905-.126,1.82-.2,2.73a43.451,43.451,0,0,0-7.205.117c-.31-4.053-.511-8.11-.675-12.167" transform="translate(-3635.969 -2875.639)" fill="#a4746a"/>
        <path id="Trazado_1000062" data-name="Trazado 1000062" d="M2306.039,3193.183c-.206-2.153-.553-4.447.446-6.463.126,1.708.122,3.423.188,5.14.018,2.359.638,4.658.778,7.012-.136-.014-.408-.032-.544-.042a44.262,44.262,0,0,1-.868-5.647" transform="translate(-2083.021 -2879.313)" fill="#59687d"/>
        <path id="Trazado_1000063" data-name="Trazado 1000063" d="M2941.016,3190.178c.839-1.178,1.721-2.317,2.659-3.411.22,1.732-1.3,2.758-2.659,3.411" transform="translate(-2657.211 -2879.357)" fill="#c3a23d"/>
        <path id="Trazado_1000064" data-name="Trazado 1000064" d="M2314.8,3240.234a6.779,6.779,0,0,1,1.341.731,20.216,20.216,0,0,1,.68,4.723c-.375.544-.831,1.032-1.243,1.558-.141-2.355-.76-4.653-.778-7.012" transform="translate(-2091.144 -2927.688)" fill="#132533"/>
        <path id="Trazado_1000065" data-name="Trazado 1000065" d="M1625.732,3260.924a1.279,1.279,0,0,1,1.5,1.482,2.742,2.742,0,0,1-1.5-1.482" transform="translate(-1468.27 -2946.365)" fill="#4e3f08"/>
        <path id="Trazado_1000066" data-name="Trazado 1000066" d="M2867.342,3263.789c.952-1.037,1.712-2.431,3.2-2.754a36.689,36.689,0,0,1-3.987,4.62,3.384,3.384,0,0,1,.788-1.866" transform="translate(-2589.901 -2946.49)" fill="#4a4c31"/>
        <path id="Trazado_1000067" data-name="Trazado 1000067" d="M2337.953,3279.98c.76,2.744.83,5.611,1.492,8.377a72.233,72.233,0,0,0,2.068,7.734c2.917,8.039,5.764,16.13,9.507,23.831.7,1.327,1.1,2.913,2.247,3.944a23.15,23.15,0,0,0,6.186-1c5.268-1.431,10.6-3.11,15.094-6.3-.005.234-.009.7-.014.938a53.611,53.611,0,0,1-21.139,7.092,29.4,29.4,0,0,1,1,2.772,6.7,6.7,0,0,1-1.689-2.683q-1.505-.12-3-.179c-.094-.168-.282-.5-.38-.67,1.009.019,2.017.046,3.025.1-4.31-7.941-7.359-16.473-10.469-24.929a69.018,69.018,0,0,1-4.184-17.7c.066-.333.193-.994.258-1.328" transform="translate(-2111.844 -2963.616)" fill="#59718b"/>
        <path id="Trazado_1000068" data-name="Trazado 1000068" d="M4038.212,3280.127c.117,2.758.1,5.525.169,8.287-.08,9.466.3,18.926.329,28.4.131,6.275.037,12.566.374,18.836,0,1.154.244,2.407-.272,3.49-.885,1.689-3.907,1.567-4.432-.351a24.132,24.132,0,0,1-.3-4.02c-.745-12.026-1.59-24.038-2.312-36.06-.38-5.238-.647-10.487-.961-15.731a43.468,43.468,0,0,1,7.2-.116c.071-.91.146-1.825.2-2.73" transform="translate(-3642.323 -2963.749)" fill="#bf8d83"/>
        <path id="Trazado_1000069" data-name="Trazado 1000069" d="M2323.777,3294.108l.178-.31a68.968,68.968,0,0,0,4.184,17.7c3.109,8.457,6.158,16.989,10.469,24.929-1.009-.057-2.017-.084-3.025-.1l-.628-.028c-.512-1.239-1.07-2.453-1.576-3.682-1.323-3.265-2.852-6.445-4.1-9.737v0c-1.036-4.9-3.142-9.5-4.179-14.4a74.838,74.838,0,0,1-1.572-8.493c-.221.473-.446.952-.666,1.435.319-1.933-.559-3.828-.328-5.75.412-.526.868-1.013,1.243-1.558" transform="translate(-2098.105 -2976.106)" fill="#324d65"/>
        <path id="Trazado_1000070" data-name="Trazado 1000070" d="M4235.986,3309.074a47.266,47.266,0,0,1,6.271.033,7.946,7.946,0,0,1,.947.966c1.45,18.437,2.89,36.9,4.171,55.364a64.662,64.662,0,0,1,.463,7.058c-.113,2.28-4.057,2.66-4.587.456-.426-2.843-.633-5.718-1.041-8.56q-2.885-27.685-6.224-55.317" transform="translate(-3827.79 -2989.83)" fill="#be8e85"/>
        <path id="Trazado_1000071" data-name="Trazado 1000071" d="M2233.155,3335.815a1.261,1.261,0,0,1,2.139-.756,4.677,4.677,0,0,1-2.139.756" transform="translate(-2017.346 -3013.105)" fill="#413f16"/>
        <path id="Trazado_1000072" data-name="Trazado 1000072" d="M1750.879,3346.168a5.09,5.09,0,0,1,4.752,1.769,22.955,22.955,0,0,1-4.752-1.769" transform="translate(-1581.396 -3023.383)" fill="#413920"/>
        <path id="Trazado_1000073" data-name="Trazado 1000073" d="M2278.3,3358.155a74.951,74.951,0,0,0,1.571,8.494c1.037,4.9,3.143,9.5,4.179,14.4a2.441,2.441,0,0,1-1.853-.84c-1.205-1.44-2.312-2.959-3.635-4.3-1.947-2.312-3.931-4.592-6.064-6.731-.01-.259-.029-.769-.038-1.027.272-.624.559-1.239.867-1.839a26.137,26.137,0,0,0,2.763-4.169c.507-.858,1.033-1.707,1.543-2.557.221-.483.446-.961.666-1.435" transform="translate(-2052.876 -3034.281)" fill="#233a4e"/>
        <path id="Trazado_1000074" data-name="Trazado 1000074" d="M2249.937,3445.752c-.277-1.079.666-1.9,1.28-2.636-.309.6-.6,1.215-.867,1.838-.582.362-.573.7.038,1.027,2.133,2.139,4.118,4.418,6.064,6.731-.783,3.912-.685,7.936-1.323,11.875l-.431.395c.117-.24.356-.718.478-.957a44.6,44.6,0,0,1-4.826-3.648,10.1,10.1,0,0,1-1.562-10.464c.188-.24.568-.723.755-.966.281-.221.563-.437.849-.643,1.088-.792-.037-1.75-.455-2.551" transform="translate(-2030.765 -3111.081)" fill="#e69f92"/>
        <path id="Trazado_1000075" data-name="Trazado 1000075" d="M2268.47,3463.283c-.61-.324-.619-.666-.038-1.028.01.259.028.769.038,1.028" transform="translate(-2048.847 -3128.382)" fill="#4c2b0c"/>
        <path id="Trazado_1000076" data-name="Trazado 1000076" d="M2033.717,3498.815c4.489-2.983,9.822-4.3,15.094-5.066,1.262.033,2.519.193,3.781.325-.286.206-.568.421-.849.642a6,6,0,0,0-3.114-.394c-4.93.8-9.934,2.026-14.2,4.728a4.2,4.2,0,0,0-2.345,3.377c-.216,3.274.558,6.539.281,9.818-.136,6.439-3.006,12.593-2.247,19.08a10.429,10.429,0,0,0,3.035,6.083,31.113,31.113,0,0,0,2.185,2.261l0,.413a12.744,12.744,0,0,1-5.722-14.133c.371-3.555,1.37-6.993,1.923-10.516.68-3.588.272-7.26-.127-10.848-.234-.6-.5-1.183-.755-1.759,1.191-1.215,1.552-3.091,3.053-4.01" transform="translate(-1832.964 -3156.851)" fill="#d1a73b"/>
        <path id="Trazado_1000077" data-name="Trazado 1000077" d="M2042.073,3503.649c4.264-2.7,9.268-3.926,14.2-4.728a6.018,6.018,0,0,1,3.115.394c-.188.244-.568.727-.756.967-3.147-1.558-6.571.239-9.728.858-2.7,1.027-5.614,1.97-7.766,3.969-2.12,2.9-.24,6.613-.342,9.858a61.721,61.721,0,0,1-1.9,12.683,24.451,24.451,0,0,0-.657,7.547c0,2.546,2.007,4.409,2.565,6.81a10.433,10.433,0,0,1-3.034-6.084c-.76-6.486,2.111-12.64,2.247-19.08.276-3.279-.5-6.543-.281-9.818a4.2,4.2,0,0,1,2.345-3.377" transform="translate(-1840.607 -3161.45)" fill="#68605b"/>
        <path id="Trazado_1000078" data-name="Trazado 1000078" d="M2071.341,3531.889a28.4,28.4,0,0,1,10.056-1.717c.15,1.721.084,3.448.146,5.173a4.245,4.245,0,0,0,2.8,3.716,44.6,44.6,0,0,0,4.826,3.649c-.122.24-.361.718-.479.957a24.028,24.028,0,0,0-1.782,2.006c-1.6.831-2.556,2.388-3.729,3.683a7.583,7.583,0,0,0-1.449,3.5c-.727,2.4-1.942,4.738-1.717,7.326-.221,3.344.886,6.613.572,9.952-1.337,2.735-3.71,5.339-6.989,5.352-4.6-3.053-8.771-7.687-9.151-13.438-.37-4.915.422-9.836,1.182-14.676.286-3.193.375-6.407.858-9.577.2-2.729,2.444-4.9,4.854-5.91" transform="translate(-1864.758 -3189.766)" fill="#5e73b2"/>
        <path id="Trazado_1000079" data-name="Trazado 1000079" d="M2323.54,3543.017c1.323,1.337,2.43,2.856,3.635,4.3a2.438,2.438,0,0,0,1.853.84v0l-.98.337a86.443,86.443,0,0,0-5.83,6.4c.638-3.94.54-7.964,1.323-11.876" transform="translate(-2097.853 -3201.386)" fill="#c67e35"/>
        <path id="Trazado_1000080" data-name="Trazado 1000080" d="M2382.91,3596.871c.244-.084.737-.253.98-.338,1.248,3.293,2.777,6.472,4.1,9.737-.019.253-.061.755-.084,1.008-2.2-3.2-2.688-7.284-5-10.407" transform="translate(-2152.716 -3249.761)" fill="#c6a13d"/>
        <path id="Trazado_1000081" data-name="Trazado 1000081" d="M2466.387,3677.7a53.607,53.607,0,0,0,21.139-7.091,19.956,19.956,0,0,1-.178,2.471,18.666,18.666,0,0,0-2.416,3.04,32.838,32.838,0,0,1-4.01,2.1c-3.317.657-6.4,2.223-9.784,2.575-1.768-.381-3.555-.01-5.333-.071-1.529-.328-2.458-1.806-3.11-3.114q1.5.057,3,.179a6.688,6.688,0,0,0,1.689,2.683c-.3-.943-.615-1.872-1-2.773" transform="translate(-2224.837 -3316.719)" fill="#324c68"/>
        <path id="Trazado_1000082" data-name="Trazado 1000082" d="M2726.633,3677.49a.822.822,0,0,1-.088,1.623,5.092,5.092,0,0,1,.088-1.623" transform="translate(-2463.316 -3322.942)" fill="#e1b036"/>
        <path id="Trazado_1000083" data-name="Trazado 1000083" d="M2246.714,3695.333c1.172-1.294,2.134-2.852,3.729-3.683-1.29,2.163-3.011,4.035-4.146,6.3-.258.225-.774.67-1.032.891a7.584,7.584,0,0,1,1.45-3.5" transform="translate(-2028.292 -3335.742)" fill="#747777"/>
        <path id="Trazado_1000084" data-name="Trazado 1000084" d="M2565.44,3706.307a15.311,15.311,0,0,0,2.785-2.3,5.932,5.932,0,0,1-1.576,2.5c1.144,3.808,1.876,7.785,3.973,11.229.1.258.319.783.427,1.041.563,3.016-1.158,5.863-3.326,7.8-2.725,2.467-6.8,2.237-10.112,1.336-.187-.051-.568-.164-.755-.219a45.984,45.984,0,0,0-2.008-8.092,24.253,24.253,0,0,0-3.091-6.412c3.1-1.866,6.707-2.7,9.671-4.774a33.017,33.017,0,0,0,4.01-2.1" transform="translate(-2305.344 -3346.909)" fill="#e69a83"/>
        <path id="Trazado_1000085" data-name="Trazado 1000085" d="M2452.2,3736.23l.628.029c.1.168.286.5.38.67.652,1.309,1.58,2.786,3.109,3.114,1.778.061,3.565-.31,5.333.07l-1.168.188c-.759.1-1.515.192-2.275.259-1.477-.019-3.222.126-4.371-.981a11.552,11.552,0,0,1-1.637-3.348" transform="translate(-2215.347 -3376.04)" fill="#4f4f3f"/>
        <path id="Trazado_1000086" data-name="Trazado 1000086" d="M2539.6,3752.428c3.386-.351,6.468-1.917,9.784-2.574-2.965,2.078-6.576,2.908-9.671,4.775q-.648-1.007-1.281-2.013l1.168-.187" transform="translate(-2293.295 -3388.354)" fill="#b97056"/>
        <path id="Trazado_1000087" data-name="Trazado 1000087" d="M2228.834,3758.07c.258-.22.774-.667,1.032-.891a37.674,37.674,0,0,0-1.979,6.819,27.091,27.091,0,0,0,.225,5.943c-.169,1.8.075,3.649-.422,5.408.314-3.34-.793-6.609-.572-9.953-.225-2.589.99-4.924,1.716-7.325" transform="translate(-2011.862 -3394.976)" fill="#be9f50"/>
        <path id="Trazado_1000088" data-name="Trazado 1000088" d="M2511.26,3778.872c.76-.066,1.516-.156,2.275-.259q.633,1.007,1.281,2.012a24.248,24.248,0,0,1,3.091,6.412,45.958,45.958,0,0,1,2.007,8.091c.145,3.9,1.4,7.64,1.581,11.529l-.68.323c.432-2.823-1.1-5.366-.995-8.156-.075-.981-.854-1.759-.834-2.754-.132-3.059-.451-6.267-2.06-8.945a59.642,59.642,0,0,1-3.639-7.668c-.7-.451-1.618.018-2.4.046.094-.159.277-.478.371-.632" transform="translate(-2268.401 -3414.352)" fill="#e09f49"/>
        <path id="Trazado_1000089" data-name="Trazado 1000089" d="M728.846,3783.936c.258.117.774.347,1.036.465,8.208.276,16.486,1.29,24.671.14,2.753,1.107,5.769.807,8.668.877,4.911.319,9.817.638,14.732.905-.488,4.672-.882,9.348-1.407,14.014-.028.882-.314,1.984.427,2.679a2.807,2.807,0,0,0,3.987.08,11.083,11.083,0,0,0,.638-3.18c.516-4.892,1.355-9.747,1.923-14.634.258.722.558,1.439.858,2.157,3.527-.586,7.054.3,10.581.483,6.716.488,13.349,1.777,20.065,2.256a24,24,0,0,0,.3,4.02c.525,1.919,3.546,2.041,4.432.352.516-1.083.272-2.336.272-3.49,2.81.31,5.577.886,8.367,1.346,3.1.47,6.1,1.792,9.292,1.319.408,2.842.614,5.717,1.041,8.559.53,2.2,4.475,1.825,4.587-.455a64.66,64.66,0,0,0-.464-7.058c.746.924,1.979.943,3.053,1.2,5.553,1.557,11.271,3.119,16.064,6.468,1.52.966,2.129,2.818,2.509,4.488a6.478,6.478,0,0,1-2.739,3.786c-2.355,1.534-4.7,3.2-7.476,3.879-2.542,1.436-5.473,1.844-8.171,2.913-5.886,1.023-11.618,2.782-17.518,3.71-6.951.722-13.785,2.406-20.773,2.763-6.06,1.078-12.242,1.238-18.325,2.157a69.218,69.218,0,0,0-8.625.75c-1.9.3-3.841.062-5.732.423-3.185.577-6.444.046-9.629.577a46.332,46.332,0,0,1-6.965.591c-2.359-.113-4.676.488-7.031.478a73.083,73.083,0,0,0-8.485.31c-3.752.455-7.556-.07-11.3.473-2.781.319-5.586.169-8.377.248-7.936.667-15.924.3-23.878.531a52.168,52.168,0,0,1-8.03.276q-25.546.128-51.082.024c-8.719-.885-17.542.042-26.27-.839-5.009-.132-10.047.1-15.032-.492-2.012-.155-4.043.07-6.051-.2-3.644-.577-7.364-.065-11.017-.562-3.222-.445-6.5-.014-9.709-.516-1.632-.253-3.288-.112-4.915-.361-2.6-.469-5.262-.089-7.861-.553-9.343-.685-18.672-1.558-28-2.509-3.2-.183-6.341-.91-9.536-1.2-3.016-.7-6.14-.614-9.151-1.309-5.553-.9-11.093-1.9-16.622-2.949-4.587-1.267-9.352-1.895-13.794-3.654a55.785,55.785,0,0,1-7.185-3.081,9.35,9.35,0,0,1-5.521-5.684,7.088,7.088,0,0,1,3.11-4.817c5.169-3.715,11.463-5.3,17.579-6.674a85.55,85.55,0,0,1,10.8-2.346c3.6-.713,7.2-1.453,10.853-1.909.347-.783-.751-1.107-1.144-1.614.206-.267.619-.807.825-1.079a52.08,52.08,0,0,0,17.148,16.721c2.289,1.178,4.883,1.529,7.359,2.135,14.512,2.978,29.324,4.015,44.07,5.027,4.381.047,8.743.526,13.123.5,7.5.615,15.028.421,22.542.563q18.285.092,36.57-.258c3.987-.413,8-.38,12.007-.492a90.917,90.917,0,0,0,9.1.188,7.387,7.387,0,0,0,3.2-.746c.647.835,1.248,1.951,2.439,2.049a22.719,22.719,0,0,0,4.85-.191c5.469-.066,10.5,2.349,15.783,3.358,3.977.792,8.26,1.4,12.157-.056a15.331,15.331,0,0,0,7.345-6.3c.371-.713.886-1.829.178-2.477-2.148-1.942-4.883-3.035-7.509-4.151,1.215-.59,2.383-1.266,3.551-1.941a.946.946,0,0,0-.441-.437,6.927,6.927,0,0,0,2.3-1.365,43.773,43.773,0,0,0,8.987-11.271,8.407,8.407,0,0,0,1.4-3.9c.075.253.159.511.249.778.225-.764.469-1.519.732-2.27" transform="translate(-423.264 -3419.163)" fill="#f2f2f2"/>
        <path id="Trazado_1000090" data-name="Trazado 1000090" d="M2269.49,3849.149c1.21-.581,1.847.985,2.495,1.712,2.819,4.071,6.351,7.556,9.329,11.492a90.714,90.714,0,0,1-21.059,3.367c.3-3.883,2.167-7.363,3.631-10.9a10.192,10.192,0,0,1,5.605-5.671" transform="translate(-2041.842 -3477.997)" fill="#fcb909"/>
        <path id="Trazado_1000091" data-name="Trazado 1000091" d="M2748.145,3846.924a5.627,5.627,0,0,1,1.543.9c2.9,2.88,6.6,4.71,9.963,6.98,1.633,1.126,3.982,1.4,5.009,3.255a68.782,68.782,0,0,1-16.087-10.089c-.108-.259-.324-.783-.427-1.042" transform="translate(-2482.867 -3476.1)" fill="#c39f45"/>
        <path id="Trazado_1000092" data-name="Trazado 1000092" d="M2137.418,3890.039a38.54,38.54,0,0,1,.211,3.9c.122,2.167-1.219,4.085-2.668,5.567a7.376,7.376,0,0,1-8.2,1.173c.408-.01,1.224-.033,1.632-.042.4.042,1.215.122,1.618.16,3.279-.014,5.652-2.617,6.989-5.352.5-1.758.253-3.612.422-5.408" transform="translate(-1921.168 -3515.074)" fill="#c49f43"/>
        <path id="Trazado_1000093" data-name="Trazado 1000093" d="M2093.311,3971.12q.935-.3,1.013.7l-.277.117c-.183-.1-.549-.306-.732-.408Z" transform="translate(-1890.935 -3588.303)" fill="#555255"/>
        <path id="Trazado_1000094" data-name="Trazado 1000094" d="M2100.6,3979.219l.277-.117c.145.107.432.328.577.436a8.255,8.255,0,0,1,.778,1.037c-.849.207-1.891-.389-1.632-1.355" transform="translate(-1897.488 -3595.582)" fill="#cda94d"/>
        <path id="Trazado_1000095" data-name="Trazado 1000095" d="M2498.047,4071.753c3.706-.469,7.453-.385,11.158-.872l.68-.324c.113.159.346.478.464.638a7.379,7.379,0,0,1-3.2.745,90.334,90.334,0,0,1-9.1-.187" transform="translate(-2256.793 -3678.252)" fill="#ffeeb9"/>
      </g>
    </g>
  </g>
</svg>
