<svg xmlns="http://www.w3.org/2000/svg" width="84" height="84" viewBox="0 0 84 84">
  <g id="Grupo_1179843" data-name="Grupo 1179843" transform="translate(-740 -3675.92)">
    <rect id="Rectángulo_402006" data-name="Rectángulo 402006" width="84" height="84" rx="5" transform="translate(740 3675.92)" fill="#371b57"/>
    <g id="Grupo_1179713" data-name="Grupo 1179713" transform="translate(748.87 3685.29)">
      <path id="Trazado_999622" data-name="Trazado 999622" d="M296.3,297.757l1.749-1.749,9.9,9.9-1.749,1.749Zm0,0" transform="translate(-255.588 -255.763)" fill="#a7bccf"/>
      <path id="Trazado_999623" data-name="Trazado 999623" d="M298.676,108.725l9.708-9.71,1.525,1.525L300.2,110.25Zm0,0" transform="translate(-257.636 -85.554)" fill="#a7bccf"/>
      <path id="Trazado_999624" data-name="Trazado 999624" d="M369.9,8.7A8.7,8.7,0,1,1,361.2,0,8.7,8.7,0,0,1,369.9,8.7Zm0,0" transform="translate(-304.143)" fill="#cfcfcf"/>
      <path id="Trazado_999625" data-name="Trazado 999625" d="M396.659,56h-2.175a2.175,2.175,0,0,0-2.175,2.175v3.263h6.526V58.175A2.175,2.175,0,0,0,396.659,56Zm0,0" transform="translate(-338.539 -48.386)" fill="#495867"/>
      <path id="Trazado_999626" data-name="Trazado 999626" d="M404.659,26.175A2.175,2.175,0,1,1,402.484,24,2.175,2.175,0,0,1,404.659,26.175Zm0,0" transform="translate(-345.452 -20.737)" fill="#495867"/>
      <path id="Trazado_999627" data-name="Trazado 999627" d="M369.9,360.7a8.7,8.7,0,1,1-8.7-8.7A8.7,8.7,0,0,1,369.9,360.7Zm0,0" transform="translate(-304.143 -304.143)" fill="#cfcfcf"/>
      <path id="Trazado_999628" data-name="Trazado 999628" d="M396.659,408h-2.175a2.175,2.175,0,0,0-2.175,2.175v3.263h6.526v-3.263A2.175,2.175,0,0,0,396.659,408Zm0,0" transform="translate(-338.539 -352.529)" fill="#495867"/>
      <path id="Trazado_999629" data-name="Trazado 999629" d="M404.659,378.175A2.175,2.175,0,1,1,402.484,376,2.175,2.175,0,0,1,404.659,378.175Zm0,0" transform="translate(-345.452 -324.88)" fill="#495867"/>
      <g id="Grupo_1179712" data-name="Grupo 1179712" transform="translate(12.438 11.964)">
        <path id="Trazado_999630" data-name="Trazado 999630" d="M100.2,100.688l1.648-1.648,9.324,9.324-1.648,1.648Zm0,0" transform="translate(-98.583 -97.538)" fill="#a7bccf"/>
        <path id="Trazado_999631" data-name="Trazado 999631" d="M98.648,308.129l9.789-9.789,1.538,1.539-9.789,9.789Zm0,0" transform="translate(-97.243 -269.742)" fill="#a7bccf"/>
        <path id="Trazado_999632" data-name="Trazado 999632" d="M232.309,88h2.175v8.7h-2.175Zm0,0" transform="translate(-212.731 -88)" fill="#a7bccf"/>
        <path id="Trazado_999633" data-name="Trazado 999633" d="M232.309,328h2.175v8.7h-2.175Zm0,0" transform="translate(-212.731 -295.37)" fill="#a7bccf"/>
        <path id="Trazado_999634" data-name="Trazado 999634" d="M328.309,232h8.7v2.175h-8.7Zm0,0" transform="translate(-295.679 -212.422)" fill="#a7bccf"/>
        <path id="Trazado_999635" data-name="Trazado 999635" d="M88.309,232h8.7v2.175h-8.7Zm0,0" transform="translate(-88.309 -212.422)" fill="#a7bccf"/>
      </g>
      <path id="Trazado_999636" data-name="Trazado 999636" d="M17.9,8.7A8.7,8.7,0,1,1,9.2,0,8.7,8.7,0,0,1,17.9,8.7Zm0,0" fill="#cfcfcf"/>
      <path id="Trazado_999637" data-name="Trazado 999637" d="M44.659,56H42.484a2.175,2.175,0,0,0-2.175,2.175v3.263h6.526V58.175A2.175,2.175,0,0,0,44.659,56Zm0,0" transform="translate(-34.396 -48.386)" fill="#495867"/>
      <path id="Trazado_999638" data-name="Trazado 999638" d="M52.659,26.175A2.175,2.175,0,1,1,50.484,24,2.175,2.175,0,0,1,52.659,26.175Zm0,0" transform="translate(-41.309 -20.737)" fill="#495867"/>
      <path id="Trazado_999639" data-name="Trazado 999639" d="M17.9,360.7A8.7,8.7,0,1,1,9.2,352,8.7,8.7,0,0,1,17.9,360.7Zm0,0" transform="translate(0 -304.143)" fill="#cfcfcf"/>
      <path id="Trazado_999640" data-name="Trazado 999640" d="M44.659,408H42.484a2.175,2.175,0,0,0-2.175,2.175v3.263h6.526v-3.263A2.175,2.175,0,0,0,44.659,408Zm0,0" transform="translate(-34.396 -352.529)" fill="#495867"/>
      <path id="Trazado_999641" data-name="Trazado 999641" d="M52.659,378.175A2.175,2.175,0,1,1,50.484,376,2.175,2.175,0,0,1,52.659,378.175Zm0,0" transform="translate(-41.309 -324.88)" fill="#495867"/>
      <path id="Trazado_999642" data-name="Trazado 999642" d="M211.185,29.438A5.438,5.438,0,1,1,205.747,24,5.439,5.439,0,0,1,211.185,29.438Zm0,0" transform="translate(-172.643 -20.737)" fill="#bdd5ea"/>
      <path id="Trazado_999643" data-name="Trazado 999643" d="M395.185,205.438A5.438,5.438,0,1,1,389.747,200,5.439,5.439,0,0,1,395.185,205.438Zm0,0" transform="translate(-331.627 -172.808)" fill="#bdd5ea"/>
      <path id="Trazado_999644" data-name="Trazado 999644" d="M35.185,205.438A5.438,5.438,0,1,1,29.747,200,5.439,5.439,0,0,1,35.185,205.438Zm0,0" transform="translate(-20.572 -172.808)" fill="#bdd5ea"/>
      <path id="Trazado_999645" data-name="Trazado 999645" d="M211.185,389.438A5.438,5.438,0,1,1,205.747,384,5.439,5.439,0,0,1,211.185,389.438Zm0,0" transform="translate(-172.643 -331.792)" fill="#bdd5ea"/>
      <path id="Trazado_999646" data-name="Trazado 999646" d="M166.757,160.4a1.543,1.543,0,0,1,1.448-1.04h2.207v-4.607h-2.207a1.544,1.544,0,0,1-1.448-1.04,9.7,9.7,0,0,0-.388-.933,1.544,1.544,0,0,1,.288-1.763l1.561-1.561-3.258-3.258-1.561,1.561a1.543,1.543,0,0,1-1.763.287,10,10,0,0,0-.934-.387,1.542,1.542,0,0,1-1.039-1.449V144h-4.607v2.207a1.544,1.544,0,0,1-1.04,1.449,9.825,9.825,0,0,0-.933.387,1.545,1.545,0,0,1-1.763-.287l-1.561-1.561-3.257,3.258,1.561,1.561a1.543,1.543,0,0,1,.288,1.763,9.993,9.993,0,0,0-.387.933,1.542,1.542,0,0,1-1.449,1.04h-2.208v4.607h2.207a1.544,1.544,0,0,1,1.449,1.04,9.83,9.83,0,0,0,.387.933,1.545,1.545,0,0,1-.287,1.763l-1.561,1.56,3.257,3.258,1.561-1.561a1.544,1.544,0,0,1,1.763-.287,9.993,9.993,0,0,0,.933.387,1.543,1.543,0,0,1,1.04,1.449V170.1h4.607V167.9a1.544,1.544,0,0,1,1.039-1.449,9.84,9.84,0,0,0,.934-.387,1.544,1.544,0,0,1,1.763.287l1.561,1.561,3.258-3.258-1.561-1.561a1.542,1.542,0,0,1-.287-1.763Q166.585,160.874,166.757,160.4Zm-9.4,2.095a5.438,5.438,0,1,1,5.438-5.438A5.439,5.439,0,0,1,157.361,162.49Zm0,0" transform="translate(-124.257 -124.422)" fill="#495867"/>
    </g>
  </g>
</svg>
