<svg xmlns="http://www.w3.org/2000/svg" width="90" height="91" viewBox="0 0 90 91">
  <g id="Grupo_1179853" data-name="Grupo 1179853" transform="translate(13523 11848)">
    <g id="Grupo_1179830" data-name="Grupo 1179830" transform="translate(-14287.833 -12363)">
      <g id="Rectángulo_455828" data-name="Rectángulo 455828" transform="translate(764.833 515)" fill="#fff" stroke="#e5edf3" stroke-width="5">
        <rect width="90" height="91" rx="20" stroke="none"/>
        <rect x="2.5" y="2.5" width="85" height="86" rx="17.5" fill="none"/>
      </g>
      <g id="Grupo_1179824" data-name="Grupo 1179824" transform="translate(779.468 530.168)">
        <path id="Trazado_1000157" data-name="Trazado 1000157" d="M184.176,416.316h16.969v7.572H184.176Zm0,0" transform="translate(-162.329 -366.934)" fill="#5a5a5a"/>
        <path id="Trazado_1000158" data-name="Trazado 1000158" d="M57.548,50.531H3.114A3.114,3.114,0,0,1,0,47.417V3.114A3.114,3.114,0,0,1,3.114,0H57.548a3.114,3.114,0,0,1,3.114,3.114v44.3A3.114,3.114,0,0,1,57.548,50.531Zm0,0" fill="#c9f0ff"/>
        <path id="Trazado_1000159" data-name="Trazado 1000159" d="M460,3.118v44.3a3.114,3.114,0,0,1-3.115,3.114h-3.8A3.114,3.114,0,0,0,456.2,47.42V3.118A3.114,3.114,0,0,0,453.086,0h3.8A3.114,3.114,0,0,1,460,3.118Zm0,0" transform="translate(-399.342 -0.003)" fill="#9ae7fd"/>
        <path id="Trazado_1000160" data-name="Trazado 1000160" d="M60.662,362.75H0v4.389a3.114,3.114,0,0,0,3.114,3.114H57.548a3.114,3.114,0,0,0,3.114-3.114Zm0,0" transform="translate(0 -319.722)" fill="#838383"/>
        <path id="Trazado_1000161" data-name="Trazado 1000161" d="M460,362.75v4.389a3.114,3.114,0,0,1-3.115,3.114h-3.8a3.114,3.114,0,0,0,3.115-3.114V362.75Zm0,0" transform="translate(-399.342 -319.722)" fill="#5a5a5a"/>
        <path id="Trazado_1000162" data-name="Trazado 1000162" d="M61.234,10.624H.57V3.114A3.114,3.114,0,0,1,3.684,0H58.12a3.114,3.114,0,0,1,3.114,3.114v7.509Zm0,0" transform="translate(-0.503)" fill="#acacac"/>
        <path id="Trazado_1000163" data-name="Trazado 1000163" d="M460.074,3.117v7.51H456.2V3.117A3.114,3.114,0,0,0,453.086,0h3.874A3.114,3.114,0,0,1,460.074,3.117Zm0,0" transform="translate(-399.342 -0.003)" fill="#9c9c9c"/>
        <path id="Trazado_1000164" data-name="Trazado 1000164" d="M37.817,31.4a1.772,1.772,0,1,1-1.771-1.771A1.771,1.771,0,0,1,37.817,31.4Zm0,0" transform="translate(-30.208 -26.114)" fill="#ff5770"/>
        <path id="Trazado_1000165" data-name="Trazado 1000165" d="M95.492,31.4a1.771,1.771,0,1,1-1.771-1.771A1.771,1.771,0,0,1,95.492,31.4Zm0,0" transform="translate(-81.043 -26.114)" fill="#ffd86e"/>
        <path id="Trazado_1000166" data-name="Trazado 1000166" d="M153.168,31.4a1.771,1.771,0,1,1-1.771-1.771A1.771,1.771,0,0,1,153.168,31.4Zm0,0" transform="translate(-131.877 -26.114)" fill="#80e0dc"/>
        <path id="Trazado_1000167" data-name="Trazado 1000167" d="M41.9,31.4a1.77,1.77,0,0,1-2.992,1.281,1.769,1.769,0,0,0,1.181-3.051h.042A1.77,1.77,0,0,1,41.9,31.4Zm0,0" transform="translate(-34.295 -26.118)" fill="#ff435f"/>
        <path id="Trazado_1000168" data-name="Trazado 1000168" d="M99.571,31.4a1.771,1.771,0,0,1-2.993,1.281,1.77,1.77,0,0,0,1.182-3.051h.04A1.77,1.77,0,0,1,99.571,31.4Zm0,0" transform="translate(-85.122 -26.118)" fill="#ffb509"/>
        <path id="Trazado_1000169" data-name="Trazado 1000169" d="M157.248,31.4a1.771,1.771,0,0,1-2.994,1.281,1.769,1.769,0,0,0,1.181-3.051h.042A1.771,1.771,0,0,1,157.248,31.4Zm0,0" transform="translate(-135.957 -26.118)" fill="#00a8b0"/>
        <path id="Trazado_1000170" data-name="Trazado 1000170" d="M161.249,474.146H133.282a.61.61,0,0,1-.61-.61v-1.978a2.429,2.429,0,0,1,2.429-2.429h24.33a2.429,2.429,0,0,1,2.429,2.429v1.978A.61.61,0,0,1,161.249,474.146Zm0,0" transform="translate(-116.935 -413.482)" fill="#838383"/>
        <g id="Grupo_1179823" data-name="Grupo 1179823" transform="translate(3.194 13.994)">
          <path id="Trazado_1000171" data-name="Trazado 1000171" d="M340.15,471.557v1.978a.611.611,0,0,1-.611.611h-2.155v-2.59a2.428,2.428,0,0,0-2.428-2.428h2.765A2.429,2.429,0,0,1,340.15,471.557Zm0,0" transform="translate(-298.419 -427.476)" fill="#5a5a5a"/>
          <path id="Trazado_1000172" data-name="Trazado 1000172" d="M30.251,119.752H27.815a.89.89,0,0,1,0-1.779h2.435a.89.89,0,0,1,0,1.779Zm0,0" transform="translate(-26.926 -117.973)" fill="#5a5a5a"/>
          <path id="Trazado_1000173" data-name="Trazado 1000173" d="M89.283,119.752H74.425a.89.89,0,1,1,0-1.779H89.284a.89.89,0,1,1,0,1.779Zm0,0" transform="translate(-68.007 -117.973)" fill="#5a5a5a"/>
          <path id="Trazado_1000174" data-name="Trazado 1000174" d="M146.017,153.717H140a.89.89,0,0,1,0-1.779h6.018a.89.89,0,1,1,0,1.779Zm0,0" transform="translate(-125.803 -147.909)" fill="#5a5a5a"/>
          <path id="Trazado_1000175" data-name="Trazado 1000175" d="M99.869,153.717H97.8a.89.89,0,1,1,0-1.779h2.069a.89.89,0,1,1,0,1.779Zm0,0" transform="translate(-88.609 -147.909)" fill="#5a5a5a"/>
          <path id="Trazado_1000176" data-name="Trazado 1000176" d="M32.884,153.717H27.815a.89.89,0,0,1,0-1.779h5.069a.89.89,0,1,1,0,1.779Zm0,0" transform="translate(-26.926 -147.909)" fill="#5a5a5a"/>
        </g>
        <path id="Trazado_1000177" data-name="Trazado 1000177" d="M412.228,227.363h-7.884V213.65a.693.693,0,0,1,.693-.693h6.5a.693.693,0,0,1,.693.693Zm0,0" transform="translate(-356.382 -187.697)" fill="#ffd86e"/>
        <path id="Trazado_1000178" data-name="Trazado 1000178" d="M134.939,263.648h-7.884v-8.83a.693.693,0,0,1,.693-.693h6.5a.693.693,0,0,1,.693.693Zm0,0" transform="translate(-111.984 -223.982)" fill="#0396fd"/>
        <path id="Trazado_1000179" data-name="Trazado 1000179" d="M227.368,202.87h-7.884V185.861a.693.693,0,0,1,.693-.693h6.5a.693.693,0,0,1,.693.693Zm0,0" transform="translate(-193.45 -163.204)" fill="#80e0dc"/>
        <path id="Trazado_1000180" data-name="Trazado 1000180" d="M319.8,149.35h-7.884V125.138a.693.693,0,0,1,.693-.693h6.5a.693.693,0,0,1,.693.693Zm0,0" transform="translate(-274.916 -109.684)" fill="#ff5770"/>
        <path id="Trazado_1000181" data-name="Trazado 1000181" d="M451.529,227.363h-2.6V212.957h1.9a.693.693,0,0,1,.693.693Zm0,0" transform="translate(-395.683 -187.697)" fill="#ffb509"/>
        <path id="Trazado_1000182" data-name="Trazado 1000182" d="M174.236,263.648h-2.6v-9.523h1.9a.693.693,0,0,1,.693.693Zm0,0" transform="translate(-151.281 -223.982)" fill="#0077f0"/>
        <path id="Trazado_1000183" data-name="Trazado 1000183" d="M266.665,202.87h-2.6v-17.7h1.9a.693.693,0,0,1,.693.693Zm0,0" transform="translate(-232.747 -163.204)" fill="#00a8b0"/>
        <path id="Trazado_1000184" data-name="Trazado 1000184" d="M359.4,149.35h-2.554v-24.9h1.861a.693.693,0,0,1,.693.693Zm0,0" transform="translate(-314.516 -109.684)" fill="#ff435f"/>
        <path id="Trazado_1000185" data-name="Trazado 1000185" d="M163.217,328.685H122.71a.89.89,0,1,1,0-1.779h40.507a.89.89,0,1,1,0,1.779Zm0,0" transform="translate(-107.37 -288.13)" fill="#838383"/>
      </g>
    </g>
  </g>
</svg>
