<svg xmlns="http://www.w3.org/2000/svg" xmlns:xlink="http://www.w3.org/1999/xlink" width="123" height="130" viewBox="0 0 123 130">
  <defs>
    <linearGradient id="linear-gradient" x1="0.231" y1="0.127" x2="0.794" y2="0.907" gradientUnits="objectBoundingBox">
      <stop offset="0" stop-color="#edf5ff"/>
      <stop offset="1" stop-color="#d5e8fe"/>
    </linearGradient>
    <linearGradient id="linear-gradient-2" x1="0.493" y1="-0.073" x2="0.508" y2="1.452" gradientUnits="objectBoundingBox">
      <stop offset="0" stop-color="#b5dbff"/>
      <stop offset="1" stop-color="#48b2e3"/>
    </linearGradient>
    <linearGradient id="linear-gradient-3" x1="0.389" y1="0.415" x2="0.846" y2="0.763" gradientUnits="objectBoundingBox">
      <stop offset="0" stop-color="#ff637b"/>
      <stop offset="1" stop-color="#e63950"/>
    </linearGradient>
    <linearGradient id="linear-gradient-4" x1="0.389" y1="0.415" x2="0.846" y2="0.763" gradientUnits="objectBoundingBox">
      <stop offset="0" stop-color="#ffda2d"/>
      <stop offset="1" stop-color="#fdbf00"/>
    </linearGradient>
    <linearGradient id="linear-gradient-5" x1="0.257" y1="0.257" x2="1.34" y2="1.34" gradientUnits="objectBoundingBox">
      <stop offset="0" stop-color="#b9dd39"/>
      <stop offset="1" stop-color="#0b799d"/>
    </linearGradient>
    <linearGradient id="linear-gradient-6" x1="0.5" y1="0.477" x2="0.5" y2="1.583" gradientUnits="objectBoundingBox">
      <stop offset="0" stop-color="#b5dbff" stop-opacity="0"/>
      <stop offset="0.243" stop-color="#93cef6" stop-opacity="0.243"/>
      <stop offset="0.576" stop-color="#6abfec" stop-opacity="0.576"/>
      <stop offset="0.84" stop-color="#51b5e5" stop-opacity="0.839"/>
      <stop offset="1" stop-color="#48b2e3"/>
    </linearGradient>
    <linearGradient id="linear-gradient-7" x1="0.899" y1="1.009" x2="0.588" y2="0.753" gradientUnits="objectBoundingBox">
      <stop offset="0" stop-color="#b5dbff" stop-opacity="0"/>
      <stop offset="0.173" stop-color="#8fc5e9" stop-opacity="0.173"/>
      <stop offset="0.454" stop-color="#56a4c8" stop-opacity="0.455"/>
      <stop offset="0.696" stop-color="#2d8db1" stop-opacity="0.694"/>
      <stop offset="0.885" stop-color="#147ea2" stop-opacity="0.886"/>
      <stop offset="1" stop-color="#0b799d"/>
    </linearGradient>
    <linearGradient id="linear-gradient-8" x1="0.081" y1="0.047" x2="0.943" y2="0.801" gradientUnits="objectBoundingBox">
      <stop offset="0" stop-color="#76e2f8"/>
      <stop offset="1" stop-color="#48b2e3"/>
    </linearGradient>
    <linearGradient id="linear-gradient-9" x1="1.18" y1="0.968" x2="0.258" y2="0.199" xlink:href="#linear-gradient-6"/>
    <linearGradient id="linear-gradient-10" x1="0.305" y1="0.238" x2="0.748" y2="0.607" xlink:href="#linear-gradient"/>
    <linearGradient id="linear-gradient-11" x1="0.208" y1="0.517" x2="-1.169" y2="0.228" xlink:href="#linear-gradient-7"/>
    <linearGradient id="linear-gradient-12" x1="0.815" y1="0.58" x2="0.484" y2="0.325" xlink:href="#linear-gradient-7"/>
    <linearGradient id="linear-gradient-13" x1="0.809" y1="0.751" x2="0.296" y2="0.274" xlink:href="#linear-gradient-7"/>
    <linearGradient id="linear-gradient-14" x1="0.267" y1="0.267" x2="0.749" y2="0.749" gradientUnits="objectBoundingBox">
      <stop offset="0" stop-color="#b9dd39"/>
      <stop offset="1" stop-color="#90cc1c"/>
    </linearGradient>
    <linearGradient id="linear-gradient-15" x1="0.947" y1="0.751" x2="0.738" y2="0.522" gradientUnits="objectBoundingBox">
      <stop offset="0" stop-color="#6b0" stop-opacity="0"/>
      <stop offset="1" stop-color="#6b0"/>
    </linearGradient>
    <linearGradient id="linear-gradient-16" x1="0.31" y1="0.075" x2="0.8" y2="0.78" gradientUnits="objectBoundingBox">
      <stop offset="0" stop-color="#0b799d"/>
      <stop offset="1" stop-color="#07485e"/>
    </linearGradient>
  </defs>
  <g id="Grupo_1179852" data-name="Grupo 1179852" transform="translate(13755 12075)">
    <g id="Grupo_1179831" data-name="Grupo 1179831" transform="translate(-14585.833 -12294)">
      <g id="Rectángulo_455829" data-name="Rectángulo 455829" transform="translate(830.833 219)" fill="#fff" stroke="#e5edf3" stroke-width="5">
        <rect width="123" height="130" rx="20" stroke="none"/>
        <rect x="2.5" y="2.5" width="118" height="125" rx="17.5" fill="none"/>
      </g>
      <g id="Grupo_1179818" data-name="Grupo 1179818" transform="translate(840.855 236.855)">
        <g id="Grupo_1179815" data-name="Grupo 1179815" transform="translate(0 0)">
          <g id="Grupo_1179809" data-name="Grupo 1179809" transform="translate(0 0)">
            <path id="Trazado_1000118" data-name="Trazado 1000118" d="M90.7,68.038H3.589A3.589,3.589,0,0,1,0,64.449V3.589A3.589,3.589,0,0,1,3.589,0H90.7A3.589,3.589,0,0,1,94.29,3.589v60.86A3.589,3.589,0,0,1,90.7,68.038Z" transform="translate(0 0)" fill="url(#linear-gradient)"/>
            <path id="Trazado_1000119" data-name="Trazado 1000119" d="M94.29,14.527H0V3.589A3.589,3.589,0,0,1,3.589,0H90.7A3.589,3.589,0,0,1,94.29,3.589Z" transform="translate(0 0)" fill="url(#linear-gradient-2)"/>
            <g id="Grupo_1179808" data-name="Grupo 1179808" transform="translate(3.698 4.354)">
              <path id="Trazado_1000120" data-name="Trazado 1000120" d="M23.856,29.368H21.965A1.964,1.964,0,0,1,20,27.4V25.513a1.964,1.964,0,0,1,1.964-1.964h1.891a1.964,1.964,0,0,1,1.964,1.964V27.4A1.964,1.964,0,0,1,23.856,29.368Z" transform="translate(-20.001 -23.549)" fill="url(#linear-gradient-3)"/>
              <path id="Trazado_1000121" data-name="Trazado 1000121" d="M63.986,29.368H62.1A1.964,1.964,0,0,1,60.131,27.4V25.513A1.964,1.964,0,0,1,62.1,23.549h1.891a1.964,1.964,0,0,1,1.964,1.964V27.4A1.964,1.964,0,0,1,63.986,29.368Z" transform="translate(-52.712 -23.549)" fill="url(#linear-gradient-4)"/>
              <path id="Trazado_1000122" data-name="Trazado 1000122" d="M104.118,29.368h-1.891a1.964,1.964,0,0,1-1.964-1.964V25.513a1.964,1.964,0,0,1,1.964-1.964h1.891a1.964,1.964,0,0,1,1.964,1.964V27.4A1.964,1.964,0,0,1,104.118,29.368Z" transform="translate(-85.424 -23.549)" fill="url(#linear-gradient-5)"/>
            </g>
            <path id="Trazado_1000123" data-name="Trazado 1000123" d="M0,278.495v12.96a3.589,3.589,0,0,0,3.589,3.589H90.7a3.589,3.589,0,0,0,3.589-3.589v-12.96Z" transform="translate(0 -227.006)" fill="url(#linear-gradient-6)"/>
          </g>
          <g id="Grupo_1179814" data-name="Grupo 1179814" transform="translate(8.983 24.573)">
            <path id="Trazado_1000124" data-name="Trazado 1000124" d="M70.314,161.1h-19.3a2.428,2.428,0,0,1-2.428-2.428V135.34a2.428,2.428,0,0,1,2.428-2.428h19.3a2.428,2.428,0,0,1,2.428,2.428v23.333A2.427,2.427,0,0,1,70.314,161.1Z" transform="translate(-48.585 -132.912)" fill="#b5dbff"/>
            <g id="Grupo_1179813" data-name="Grupo 1179813" transform="translate(28.995)">
              <g id="Grupo_1179810" data-name="Grupo 1179810" transform="translate(0)">
                <path id="Trazado_1000125" data-name="Trazado 1000125" d="M220.409,139.937H207.171a1.756,1.756,0,0,1-1.756-1.756v-3.513a1.756,1.756,0,0,1,1.756-1.756h13.237a1.756,1.756,0,0,1,1.756,1.756v3.513A1.756,1.756,0,0,1,220.409,139.937Z" transform="translate(-205.415 -132.911)" fill="#b5dbff"/>
                <path id="Trazado_1000126" data-name="Trazado 1000126" d="M342.282,139.937h-23.11a1.756,1.756,0,0,1-1.756-1.756v-3.513a1.756,1.756,0,0,1,1.756-1.756h23.11a1.756,1.756,0,0,1,1.756,1.756v3.513A1.756,1.756,0,0,1,342.282,139.937Z" transform="translate(-296.708 -132.911)" fill="#b5dbff"/>
              </g>
              <g id="Grupo_1179811" data-name="Grupo 1179811" transform="translate(0 10.582)">
                <path id="Trazado_1000127" data-name="Trazado 1000127" d="M372.573,197.172h13.237a1.756,1.756,0,0,0,1.756-1.756V191.9a1.756,1.756,0,0,0-1.756-1.756H372.573a1.756,1.756,0,0,0-1.756,1.756v3.513A1.756,1.756,0,0,0,372.573,197.172Z" transform="translate(-340.237 -190.146)" fill="#b5dbff"/>
                <path id="Trazado_1000128" data-name="Trazado 1000128" d="M207.171,197.172h23.11a1.756,1.756,0,0,0,1.756-1.756V191.9a1.756,1.756,0,0,0-1.756-1.756h-23.11a1.756,1.756,0,0,0-1.756,1.756v3.513A1.756,1.756,0,0,0,207.171,197.172Z" transform="translate(-205.415 -190.146)" fill="#b5dbff"/>
              </g>
              <g id="Grupo_1179812" data-name="Grupo 1179812" transform="translate(0 21.163)">
                <path id="Trazado_1000129" data-name="Trazado 1000129" d="M220.409,254.406H207.171a1.756,1.756,0,0,1-1.756-1.756v-3.513a1.756,1.756,0,0,1,1.756-1.756h13.237a1.756,1.756,0,0,1,1.756,1.756v3.513A1.756,1.756,0,0,1,220.409,254.406Z" transform="translate(-205.415 -247.38)" fill="#b5dbff"/>
                <path id="Trazado_1000130" data-name="Trazado 1000130" d="M342.282,254.406h-23.11a1.756,1.756,0,0,1-1.756-1.756v-3.513a1.756,1.756,0,0,1,1.756-1.756h23.11a1.756,1.756,0,0,1,1.756,1.756v3.513A1.756,1.756,0,0,1,342.282,254.406Z" transform="translate(-296.708 -247.38)" fill="#b5dbff"/>
              </g>
            </g>
          </g>
        </g>
        <path id="Trazado_1000131" data-name="Trazado 1000131" d="M163.742,161.432V146.4l-16.249-16.249a4.235,4.235,0,0,0-3.66-1.493,34.819,34.819,0,0,1-21.973-7.809,8.34,8.34,0,0,0-10.527,0A34.819,34.819,0,0,1,89.36,128.66a3.92,3.92,0,0,0-4.156,4.156v12.129a51.674,51.674,0,0,0,4.059,20.076h70.89A3.589,3.589,0,0,0,163.742,161.432Z" transform="translate(-69.451 -96.982)" fill="url(#linear-gradient-7)"/>
        <g id="Grupo_1179817" data-name="Grupo 1179817" transform="translate(15.383 21.627)">
          <g id="Grupo_1179816" data-name="Grupo 1179816">
            <path id="Trazado_1000132" data-name="Trazado 1000132" d="M142.2,126.658a34.819,34.819,0,0,1-21.973-7.809,8.34,8.34,0,0,0-10.527,0,34.819,34.819,0,0,1-21.973,7.809,4.526,4.526,0,0,0-4.526,4.526v12.129a51.712,51.712,0,0,0,19.077,40.113L106,186.457a14.2,14.2,0,0,0,17.921,0l3.725-3.031a51.713,51.713,0,0,0,19.077-40.114v-12.13a4.525,4.525,0,0,0-4.526-4.525Z" transform="translate(-83.202 -116.978)" fill="url(#linear-gradient-8)"/>
            <path id="Trazado_1000133" data-name="Trazado 1000133" d="M139.082,210.719a3.819,3.819,0,0,1-2.4-.854l-7.125-5.8a45.443,45.443,0,0,1-16.764-35.25v-9.626a2.252,2.252,0,0,1,2.115-2.216,37.745,37.745,0,0,0,21.774-8.386,3.807,3.807,0,0,1,4.806,0,37.744,37.744,0,0,0,21.775,8.386,2.252,2.252,0,0,1,2.115,2.216v9.625a45.445,45.445,0,0,1-16.764,35.251l-7.125,5.8a3.818,3.818,0,0,1-2.4.854Z" transform="translate(-107.32 -142.049)" fill="url(#linear-gradient-9)"/>
            <path id="Trazado_1000134" data-name="Trazado 1000134" d="M148.864,219.778a3.5,3.5,0,0,1-2.2-.782l-6.524-5.308a41.609,41.609,0,0,1-15.35-32.276V172.6a2.062,2.062,0,0,1,1.936-2.029,34.56,34.56,0,0,0,19.937-7.679,3.486,3.486,0,0,1,4.4,0A34.562,34.562,0,0,0,171,170.571a2.062,2.062,0,0,1,1.936,2.029v8.813a41.609,41.609,0,0,1-15.35,32.276L151.064,219A3.5,3.5,0,0,1,148.864,219.778Z" transform="translate(-117.101 -153.766)" fill="url(#linear-gradient-10)"/>
            <path id="Trazado_1000135" data-name="Trazado 1000135" d="M286.762,131.183a4.525,4.525,0,0,0-4.526-4.525,34.819,34.819,0,0,1-21.973-7.809A8.325,8.325,0,0,0,255,116.978v72.663a14.172,14.172,0,0,0,8.96-3.185l3.725-3.031a51.713,51.713,0,0,0,19.077-40.114v-12.13Z" transform="translate(-223.237 -116.978)" fill="url(#linear-gradient-11)"/>
          </g>
          <path id="Trazado_1000136" data-name="Trazado 1000136" d="M219.345,227.235a3.658,3.658,0,0,0-5.155.292l-17.76,17.76a2.342,2.342,0,0,1-.8.5.7.7,0,0,1-.506-.21l-6.808-6.808a3.471,3.471,0,0,0-5.009,0,3.306,3.306,0,0,0-.146,4.863l27.173,27.173a51.713,51.713,0,0,0,16.981-35.57Z" transform="translate(-163.87 -206.09)" fill="url(#linear-gradient-12)"/>
          <path id="Trazado_1000137" data-name="Trazado 1000137" d="M186.051,260.065a51.711,51.711,0,0,0,17.4-27.051l-16.425-16.425a18.8,18.8,0,1,0-26.588,26.588l19.741,19.741a1.664,1.664,0,0,0,2.227.114Z" transform="translate(-141.603 -193.617)" fill="url(#linear-gradient-13)"/>
          <circle id="Elipse_13650" data-name="Elipse 13650" cx="18.808" cy="18.808" r="18.808" transform="translate(12.955 17.091)" fill="url(#linear-gradient-14)"/>
          <path id="Trazado_1000138" data-name="Trazado 1000138" d="M210.821,251.148l-14.39,14.39a2.343,2.343,0,0,1-.8.5.7.7,0,0,1-.506-.21l-6.808-6.808a3.471,3.471,0,0,0-5.009,0,3.306,3.306,0,0,0-.146,4.863l16.688,16.688a18.811,18.811,0,0,0,10.968-29.426Z" transform="translate(-163.87 -226.342)" fill="url(#linear-gradient-15)"/>
          <path id="Trazado_1000139" data-name="Trazado 1000139" d="M195.323,252.192a7.952,7.952,0,0,1-5.661-2.345l-6.808-6.807a3.645,3.645,0,0,1,5.155-5.155l6.808,6.808a.715.715,0,0,0,1.012,0l18.051-18.051a3.645,3.645,0,1,1,5.155,5.155l-18.051,18.051A7.953,7.953,0,0,1,195.323,252.192Z" transform="translate(-163.561 -205.497)" fill="url(#linear-gradient-16)"/>
        </g>
      </g>
    </g>
  </g>
</svg>
